<svg height="80" width="80" xmlns="http://www.w3.org/2000/svg" xmlns:xlink="http://www.w3.org/1999/xlink"><clipPath id="a"><path d="m-6460 872h46v48h-46z"/></clipPath><g clip-path="url(#a)" transform="translate(6477 -856)"><g stroke="#000" stroke-miterlimit="10" stroke-width=".8"><path d="m-6453.904 889.121 4.085-4.27h22.218l-3.507 4.27zm0 0h22.794v23.177h-22.794z" fill="#f4a414"/><path d="m-6429.94 875.702h-17.535a2.29 2.29 0 0 0 -1.657.713 2.5 2.5 0 0 0 -.687 1.727v6.708h22.218v-6.707a2.393 2.393 0 0 0 -2.339-2.44zm-1.169 6.1a.6.6 0 0 1 -.584.61h-14.028a.6.6 0 0 1 -.584-.61v-3.05a.6.6 0 0 1 .584-.61h14.028a.6.6 0 0 1 .584.61zm0 7.318h7.013v23.178h-7.012z" fill="#ea9713"/><path d="m-6424.095 912.298-2.922-3.05v-6.708a.585.585 0 0 0 -1.17 0v6.708l-2.92 3.05zm-3.505-27.447-3.507 4.27h2.922v7.319a.585.585 0 0 0 1.17 0v-7.32h2.922z" fill="#dc8e12"/></g></g></svg>