<svg xmlns="http://www.w3.org/2000/svg" xmlns:xlink="http://www.w3.org/1999/xlink" width="330" height="130" viewBox="0 0 330 130">
  <defs>
    <clipPath id="clip-path">
      <rect id="Rectangle_3410" data-name="Rectangle 3410" width="290" height="125" transform="translate(-17666.629 4518)" fill="#fff" stroke="#707070" stroke-width="1"/>
    </clipPath>
  </defs>
  <g id="Groupe_3691" data-name="Groupe 3691" transform="translate(17718 -4522)">
    <path id="Tracé_6809" data-name="Tracé 6809" d="M0,0H330V130H0Z" transform="translate(-17718 4522)" fill="#0f2998"/>
    <g id="Groupe_de_masques_101" data-name="Groupe de masques 101" transform="translate(-39.371 7)" clip-path="url(#clip-path)">
      <g id="_17f07d427c76d445b6ad8639ec7737ec" data-name="17f07d427c76d445b6ad8639ec7737ec" transform="translate(-17652.672 4518)">
        <path id="Tracé_6797" data-name="Tracé 6797" d="M29.874,20.393v95.2H196.13v-95.2Zm153.3,76.2H93.747V60.931h89.424Zm0-43.567H93.747v-7.08h89.424Zm0-14.989H93.747v-7.08h89.424v7.08Z" transform="translate(65.585 9.09)" fill="#cce9ff"/>
        <path id="Tracé_6798" data-name="Tracé 6798" d="M29.874,7.542H196.13V20.817H29.874Z" transform="translate(65.585 8.665)" fill="#0b4870"/>
        <path id="Tracé_6799" data-name="Tracé 6799" d="M146.327,98.74h29.434v7.08H146.327Z" transform="translate(72.995 11.68)" fill="#ffbe55"/>
        <path id="Tracé_6800" data-name="Tracé 6800" d="M77.027,21.663A43.352,43.352,0,0,1,78.07,31.684c-.067,5.194-1.021,6.5-.644,9.6.61,5.086,3.861,7.263,8,12.6,2.574,3.319,8.31,10.7,9.12,17.338C95.789,81.436,85.737,93.473,73.8,98.01c-15.965,6.056-34.372-1.767-41.406-13.858-.51-.873-6.424-11.379-2.274-20.83.843-1.907,3.118-7.069,7.9-8.6,2.23-.711,3.262,0,4.46-.948,2.918-2.328-.189-7.931.244-15.528.566-9.763,6.956-18.815,13.125-20.776a12.185,12.185,0,0,1,6.812-.7c2.008.474,2.785,1.379,5.048,1.466,2.186.086,2.74-.711,4.316-.528,1.243.151,3.04.916,5,3.955Z" transform="translate(65.507 8.962)" fill="#0e538c"/>
        <path id="Tracé_6801" data-name="Tracé 6801" d="M65.99,47.681s15.533,2.231,16.354,7.565c.466,3.05-1.021,20.647-3.883,27s.821,28.987,3.062,32.759H41.87s11.039-23.825,9.2-32.36S43.5,58.23,51.889,52.67s14.1-4.989,14.1-4.989Z" transform="translate(66.348 9.992)" fill="#ffbe55"/>
        <path id="Tracé_6802" data-name="Tracé 6802" d="M57.246,41.246l.255,7.909a5.108,5.108,0,0,0,10.207-.216l-.133-9.375L57.246,41.246Z" transform="translate(67.327 9.724)" fill="#fcd2b1"/>
        <path id="Tracé_6803" data-name="Tracé 6803" d="M53.842,26.9S48.927,45.413,61,45.467c5.115.022,7.977-2.187,8.277-5.259,0,0,4.6-1.39,3.983-5.56s-2.862-1.088-2.763-.1-1.331,1.487-1.232.4.555-11.519-6.823-11.918C62.451,23.032,57.525,28.883,53.842,26.9Z" transform="translate(67.047 9.177)" fill="#ffe3ca"/>
        <path id="Tracé_6804" data-name="Tracé 6804" d="M75.894,50.695s8.554,4.289,18,25.194c8.044,17.823-13.935,39.019-13.935,39.019H72.444S85.4,90.1,86.012,87.322,73.675,67.85,75.894,50.695Z" transform="translate(68.294 10.092)" fill="#ffbe55"/>
        <path id="Tracé_6805" data-name="Tracé 6805" d="M31.241,17.957l1.165-5.711,5.337.959-1.686,6.4Z" transform="translate(65.672 8.821)" fill="#ffe3ca"/>
        <path id="Tracé_6806" data-name="Tracé 6806" d="M30.532,11.164c-.222-3.7,3.1-8.685,4.26-9.644s5.026-1.573,4.959.6a22.932,22.932,0,0,1-.632,6.131c-.322.905-1.287,2.92-.2,2.381s2.086-3.287,3.04-2.446c.788.7-.832,5.226-3.04,6.778-1.22.862-1.287,1.239-2.962,1.325s-5.07.733-5.425-5.129Z" transform="translate(65.626 8.437)" fill="#ffe3ca"/>
        <path id="Tracé_6807" data-name="Tracé 6807" d="M31.579,17.149s-6.7,19.677-5.27,27.22S48.72,68.248,48.72,68.248l5.325-15.323S40.92,48.582,37.037,44.487s-.1-26.724-.1-26.724Z" transform="translate(65.345 8.983)" fill="#ffbe55"/>
        <path id="Tracé_6808" data-name="Tracé 6808" d="M-59.874-8.147" transform="translate(59.874 8.147)" fill="#0e538c"/>
      </g>
    </g>
  </g>
</svg>
