<svg xmlns="http://www.w3.org/2000/svg" width="330" height="130" viewBox="0 0 330 130">
  <g id="Groupe_3691" data-name="Groupe 3691" transform="translate(17627 -5021)">
    <path id="Tracé_6809" data-name="Tracé 6809" d="M0,0H330V130H0Z" transform="translate(-17627 5021)" fill="#9d00ff"/>
    <g id="ICONS" transform="translate(-17494.5 5058.5)">
      <path id="Tracé_6819" data-name="Tracé 6819" d="M58.07,9.25V51.281a2.749,2.749,0,0,1-.818,1.955,2.789,2.789,0,0,1-1.972.8H3.289a2.789,2.789,0,0,1-1.972-.8A2.749,2.749,0,0,1,.5,51.281V9.25Z" transform="translate(0)" fill="#64daf9"/>
      <path id="Tracé_6820" data-name="Tracé 6820" d="M58.07,9.25V51.281a2.749,2.749,0,0,1-.818,1.955,2.789,2.789,0,0,1-1.972.8H3.289a2.789,2.789,0,0,1-1.972-.8A2.749,2.749,0,0,1,.5,51.281V9.25Z" transform="translate(0)" fill="none"/>
      <rect id="Rectangle_3411" data-name="Rectangle 3411" width="49.29" height="36.97" rx="2.88" transform="translate(4.34 13.173)" fill="#fff"/>
      <rect id="Rectangle_3412" data-name="Rectangle 3412" width="49.29" height="36.97" rx="2.88" transform="translate(4.34 13.173)" fill="none"/>
      <path id="Tracé_6821" data-name="Tracé 6821" d="M58.07,3.26V9.25H.5V3.26A2.78,2.78,0,0,1,3.289.5H55.271A2.775,2.775,0,0,1,58.06,3.26Z" transform="translate(0)" fill="#5097ff"/>
      <path id="Tracé_6822" data-name="Tracé 6822" d="M58.07,3.26V9.25H.5V3.26A2.78,2.78,0,0,1,3.289.5H55.271A2.775,2.775,0,0,1,58.06,3.26Z" transform="translate(0)" fill="none"/>
      <path id="Tracé_6823" data-name="Tracé 6823" d="M7.65,5.72a1.3,1.3,0,1,1-1.3-1.3,1.3,1.3,0,0,1,1.3,1.3m3.94,0a1.3,1.3,0,1,1-1.3-1.3,1.3,1.3,0,0,1,1.3,1.3m3.94,0a1.3,1.3,0,1,1-1.3-1.3,1.3,1.3,0,0,1,1.3,1.3" fill="#fff"/>
      <rect id="Rectangle_3413" data-name="Rectangle 3413" width="18.32" height="13.34" rx="1.29" transform="translate(7.63 33.767)" fill="#ffb807"/>
      <rect id="Rectangle_3414" data-name="Rectangle 3414" width="18.32" height="13.34" rx="1.29" transform="translate(7.63 33.767)" fill="none"/>
      <path id="Tracé_6824" data-name="Tracé 6824" d="M13.83,37.59v5.47a.962.962,0,0,0,1.49.76l4.32-2.74a.88.88,0,0,0,0-1.51l-4.32-2.74a.962.962,0,0,0-1.49.76" transform="translate(0.14 0.103)" fill="#fe4e3e"/>
      <path id="Tracé_6825" data-name="Tracé 6825" d="M63.9,32.86v24.4a3.092,3.092,0,0,1-3.09,3.09H32.08a3.056,3.056,0,0,1-2.15-.87,2.967,2.967,0,0,1-.76-1.17,3.054,3.054,0,0,1-.19-1.05V32.86a3.092,3.092,0,0,1,3.09-3.09H60.8a3.092,3.092,0,0,1,3.09,3.09Z" transform="translate(0.6 0.15)" fill="#3a1f65"/>
      <path id="Tracé_6826" data-name="Tracé 6826" d="M63.9,32.86v24.4a3.092,3.092,0,0,1-3.09,3.09H32.08a3.056,3.056,0,0,1-2.15-.87,2.967,2.967,0,0,1-.76-1.17,3.054,3.054,0,0,1-.19-1.05V32.86a3.092,3.092,0,0,1,3.09-3.09H60.8a3.092,3.092,0,0,1,3.09,3.09Z" transform="translate(0.6 0.15)" fill="none"/>
      <path id="Tracé_6827" data-name="Tracé 6827" d="M63.9,54.26v3a3.092,3.092,0,0,1-3.09,3.09H43.16l4.67-6.03.83-1.07,5.74-7.41a2.268,2.268,0,0,1,3.56.06l5.94,8.35Z" transform="translate(0.6 0.15)" fill="#05bb70"/>
      <path id="Tracé_6828" data-name="Tracé 6828" d="M63.9,54.26v3a3.092,3.092,0,0,1-3.09,3.09H43.16l4.67-6.03.83-1.07,5.74-7.41a2.268,2.268,0,0,1,3.56.06l5.94,8.35Z" transform="translate(0.6 0.15)" fill="none"/>
      <path id="Tracé_6829" data-name="Tracé 6829" d="M53.99,60.35H32.08a3.056,3.056,0,0,1-2.15-.87,2.967,2.967,0,0,1-.76-1.17l10.2-12.47a2.491,2.491,0,0,1,3.77.06l5.52,7.35.8,1.07Z" transform="translate(0.446 0.15)" fill="#05bb70"/>
      <path id="Tracé_6830" data-name="Tracé 6830" d="M53.99,60.35H32.08a3.056,3.056,0,0,1-2.15-.87,2.967,2.967,0,0,1-.76-1.17l10.2-12.47a2.491,2.491,0,0,1,3.77.06l5.52,7.35.8,1.07Z" transform="translate(0.446 0.15)" fill="none"/>
      <path id="Tracé_6831" data-name="Tracé 6831" d="M51.93,39.92a3.55,3.55,0,1,1-3.55-3.55,3.553,3.553,0,0,1,3.55,3.55" transform="translate(0.472 0.102)" fill="#ffb807"/>
      <path id="Tracé_6832" data-name="Tracé 6832" d="M51.93,39.92a3.55,3.55,0,1,1-3.55-3.55,3.553,3.553,0,0,1,3.55,3.55" transform="translate(0.472 0.102)" fill="none"/>
      <path id="Tracé_6833" data-name="Tracé 6833" d="M21.58,22.71a2.38,2.38,0,0,1-.11.73,1.9,1.9,0,0,1-.31.58,1.928,1.928,0,0,1-.47.43,2.8,2.8,0,0,1-.6.3,3.117,3.117,0,0,1-.7.17,6.728,6.728,0,0,1-.83.06H16.54a.524.524,0,0,1-.33-.11.45.45,0,0,1-.13-.37V17.89a.45.45,0,0,1,.13-.37.524.524,0,0,1,.33-.11h1.9a4.985,4.985,0,0,1,1.18.12,2.51,2.51,0,0,1,.81.35,1.562,1.562,0,0,1,.51.6,1.914,1.914,0,0,1,.18.86,1.625,1.625,0,0,1-.28.96,1.562,1.562,0,0,1-.33.35,1.942,1.942,0,0,1-.45.25,1.976,1.976,0,0,1,.59.21,1.574,1.574,0,0,1,.47.38,1.842,1.842,0,0,1,.44,1.24Zm-1.99-3.19a1.07,1.07,0,0,0-.07-.41.813.813,0,0,0-.21-.3.892.892,0,0,0-.35-.18,2.155,2.155,0,0,0-.57-.06h-.78v1.97h.86a1.515,1.515,0,0,0,.53-.08.834.834,0,0,0,.33-.22,1.074,1.074,0,0,0,.2-.32,1,1,0,0,0,.06-.39Zm.39,3.25a1.159,1.159,0,0,0-.09-.47.893.893,0,0,0-.26-.35,1.167,1.167,0,0,0-.43-.22,2.508,2.508,0,0,0-.69-.08H17.6v2.16h1.11a1.686,1.686,0,0,0,.54-.07,1.254,1.254,0,0,0,.38-.2.9.9,0,0,0,.25-.33,1.063,1.063,0,0,0,.09-.45Zm7,1.56a2.628,2.628,0,0,1-.01.3.878.878,0,0,1-.04.2.233.233,0,0,1-.07.11.178.178,0,0,1-.1.04H23.29a.524.524,0,0,1-.33-.11.45.45,0,0,1-.13-.37V17.62a.288.288,0,0,1,.04-.11.242.242,0,0,1,.13-.08,1.105,1.105,0,0,1,.24-.05,3.575,3.575,0,0,1,.37-.02,2.12,2.12,0,0,1,.38.02,1.7,1.7,0,0,1,.23.05.287.287,0,0,1,.13.08.167.167,0,0,1,.04.11v6.1h2.38a.326.326,0,0,1,.1.03.233.233,0,0,1,.07.11.781.781,0,0,1,.04.19,2.628,2.628,0,0,1,.01.3ZM34.5,21.1a5.854,5.854,0,0,1-.23,1.69,3.221,3.221,0,0,1-.7,1.26,3.032,3.032,0,0,1-1.15.79,4.288,4.288,0,0,1-1.58.27,4.711,4.711,0,0,1-1.54-.23,2.59,2.59,0,0,1-1.1-.71,3.132,3.132,0,0,1-.66-1.21,5.962,5.962,0,0,1-.22-1.73,5.692,5.692,0,0,1,.23-1.66,3.251,3.251,0,0,1,.7-1.25,3.032,3.032,0,0,1,1.15-.79,4.283,4.283,0,0,1,1.58-.28,4.586,4.586,0,0,1,1.52.23,2.668,2.668,0,0,1,1.1.7,3.1,3.1,0,0,1,.67,1.2,5.753,5.753,0,0,1,.23,1.71Zm-1.62.08a6.082,6.082,0,0,0-.09-1.09,2.267,2.267,0,0,0-.32-.84,1.564,1.564,0,0,0-.6-.54,2.018,2.018,0,0,0-.94-.19,1.936,1.936,0,0,0-.95.21,1.783,1.783,0,0,0-.62.57,2.26,2.26,0,0,0-.33.83,5.4,5.4,0,0,0-.1,1.01,6.352,6.352,0,0,0,.09,1.12,2.389,2.389,0,0,0,.32.85,1.489,1.489,0,0,0,.6.54,2.023,2.023,0,0,0,.94.18,1.936,1.936,0,0,0,.95-.21,1.783,1.783,0,0,0,.62-.57,2.223,2.223,0,0,0,.33-.85,5.711,5.711,0,0,0,.1-1.03Zm9-2.61a2.533,2.533,0,0,1-.01.29.878.878,0,0,1-.04.2.289.289,0,0,1-.06.1.14.14,0,0,1-.09.03.656.656,0,0,1-.25-.11,3.677,3.677,0,0,0-.45-.23,5.18,5.18,0,0,0-.67-.23,3.488,3.488,0,0,0-.91-.11,2.477,2.477,0,0,0-1,.19,2.193,2.193,0,0,0-.76.54,2.482,2.482,0,0,0-.49.84,3.137,3.137,0,0,0-.17,1.08,3.662,3.662,0,0,0,.17,1.15,2.326,2.326,0,0,0,.48.83,1.941,1.941,0,0,0,.75.5,2.687,2.687,0,0,0,.96.17,2.22,2.22,0,0,0,.51-.06,1.485,1.485,0,0,0,.47-.18V21.81H38.88c-.07,0-.12-.04-.16-.13a1.205,1.205,0,0,1-.06-.45,2.353,2.353,0,0,1,.01-.28.691.691,0,0,1,.04-.18.2.2,0,0,1,.07-.1.161.161,0,0,1,.09-.03h2.56a.467.467,0,0,1,.17.03.383.383,0,0,1,.21.26,1.326,1.326,0,0,1,.03.21v3.02a.745.745,0,0,1-.06.31.414.414,0,0,1-.25.21c-.13.05-.28.1-.47.16a5.45,5.45,0,0,1-.58.14,5.969,5.969,0,0,1-.61.09c-.21.02-.41.03-.62.03a4.847,4.847,0,0,1-1.63-.26,3.32,3.32,0,0,1-1.22-.76,3.083,3.083,0,0,1-.76-1.21,4.769,4.769,0,0,1-.26-1.61,4.683,4.683,0,0,1,.28-1.67,3.572,3.572,0,0,1,.8-1.26,3.376,3.376,0,0,1,1.25-.79,4.682,4.682,0,0,1,1.63-.28,4.983,4.983,0,0,1,.9.07c.27.05.5.1.71.16a1.977,1.977,0,0,1,.5.21,1.839,1.839,0,0,1,.28.19.451.451,0,0,1,.11.23,2.272,2.272,0,0,1,.04.44Z" transform="translate(0.249 0.048)" fill="#231f20"/>
    </g>
  </g>
</svg>
