<svg xmlns="http://www.w3.org/2000/svg" xmlns:xlink="http://www.w3.org/1999/xlink" width="330" height="130" viewBox="0 0 330 130">
  <defs>
    <clipPath id="clip-path">
      <rect id="Rectangle_3410" data-name="Rectangle 3410" width="88" height="74" transform="translate(-17558 4522)" fill="#fff"/>
    </clipPath>
  </defs>
  <g id="Groupe_3691" data-name="Groupe 3691" transform="translate(17681 -4491)">
    <path id="Tracé_6809" data-name="Tracé 6809" d="M0,0H330V130H0Z" transform="translate(-17681 4491)" fill="#dedede" opacity="0.578"/>
    <g id="Groupe_de_masques_101" data-name="Groupe de masques 101" transform="translate(-2 -3)" clip-path="url(#clip-path)">
      <g id="_77667414ed60008c3063313388a0aade" data-name="77667414ed60008c3063313388a0aade" transform="translate(-17549.469 4522)">
        <path id="Tracé_6810" data-name="Tracé 6810" d="M46.39,62.751v0a13.815,13.815,0,0,1-11.7,6.577,13.644,13.644,0,0,1-9.583-3.947c-.162-.16-.322-.323-.477-.49.1-.234.214-.462.338-.685a4.632,4.632,0,0,1,.927-1.217,8.541,8.541,0,0,1,2.57-1.263c.668-.244,1.57-.9,2.131-1,0,0,0,.028,0,.084l.3.052s0,0,.007,0l.878-.632c.007-.043.013-.089.023-.132.025-.147.041-.3.067-.446.04-.316.088-.626.128-.938a.538.538,0,0,0,.013-.058v-.015c-.005.019-.005.041-.013.059V57.127a3.773,3.773,0,0,1-1.22-1.3,7.613,7.613,0,0,1-.857-2.779c-.076-.542.212-2.012-.16-1.627l0,0,0,0c-.1-.256-.194-.505-.3-.756a3.572,3.572,0,0,1-.248-.823,3.938,3.938,0,0,1-.018-.633q.035-1.042.072-2.084a.727.727,0,0,1,.027-.217l-.052-.033a.527.527,0,0,1-.083-.628c.243-.518.851-.711,1.31-1.048a10.772,10.772,0,0,1,1.213-1.023,2.733,2.733,0,0,1,.979-.275,7.008,7.008,0,0,1,3.55.366,4.52,4.52,0,0,1,2.54,2.431,7.372,7.372,0,0,1,.191,3.657.862.862,0,0,1,.4.591,2.554,2.554,0,0,1-.448,2.164,2.279,2.279,0,0,1-.246.284l-.506.139.509,3.579.243.4c.011-.024.018-.043.031-.067a4.773,4.773,0,0,1,1.145,1.865c0,.006.005.011.005.017a.087.087,0,0,0,0,.009,37.305,37.305,0,0,0,3.931,2.045,8.7,8.7,0,0,1,2.383,1.363Z" transform="translate(0.946 3.428)" fill="#f79b5c"/>
        <path id="Tracé_6811" data-name="Tracé 6811" d="M35.255,61.573l.826,6.137h-3.3l1.608-6.385Z" transform="translate(1.38 4.947)" fill="#f98732"/>
        <ellipse id="Ellipse_974" data-name="Ellipse 974" cx="1.266" cy="1.306" rx="1.266" ry="1.306" transform="translate(55.323 3.541)" fill="#f7af7f"/>
        <ellipse id="Ellipse_975" data-name="Ellipse 975" cx="1.266" cy="1.306" rx="1.266" ry="1.306" transform="translate(60.386 3.541)" fill="#f79b5c"/>
        <ellipse id="Ellipse_976" data-name="Ellipse 976" cx="1.266" cy="1.306" rx="1.266" ry="1.306" transform="translate(65.448 3.541)" fill="#f98732"/>
        <path id="Tracé_6812" data-name="Tracé 6812" d="M16.823,9.613h49.36v3.918H16.823Z" transform="translate(0.53 0.457)" fill="#f98732"/>
        <path id="Tracé_6813" data-name="Tracé 6813" d="M14.524,12.11c.015-.024.026-.05.039-.075a.887.887,0,0,0,.043-.085.948.948,0,0,0,.029-.1c.007-.026.017-.05.022-.077a.966.966,0,0,0,0-.364c-.005-.027-.015-.051-.022-.077a.9.9,0,0,0-.029-.1.887.887,0,0,0-.043-.085c-.013-.025-.024-.051-.039-.075a.93.93,0,0,0-.106-.134l-.006-.007L13.147,9.632a.881.881,0,0,0-1.273,0,.949.949,0,0,0-.184,1.034H9.979a.929.929,0,0,0,0,1.857H11.69a.952.952,0,0,0,.066.883.883.883,0,0,0,1.391.151l1.266-1.306.006-.007a.955.955,0,0,0,.106-.134ZM7.448,10.666H5.736a.949.949,0,0,0-.184-1.034.881.881,0,0,0-1.273,0L3.014,10.938l-.006.007a.93.93,0,0,0-.106.134c-.015.024-.026.05-.039.075a.938.938,0,0,0-.043.085.954.954,0,0,0-.029.1c-.007.026-.017.05-.022.077a.966.966,0,0,0,0,.364c.005.027.015.051.022.077a.954.954,0,0,0,.029.1.936.936,0,0,0,.043.085c.013.025.024.051.039.075a.93.93,0,0,0,.106.134l.006.007L4.28,13.557a.883.883,0,0,0,1.391-.151.952.952,0,0,0,.065-.883H7.448a.929.929,0,0,0,0-1.857Z" transform="translate(-0.219 0.435)" fill="#464668"/>
        <path id="Tracé_6814" data-name="Tracé 6814" d="M66.823,16.823V46.861H45.3a13.6,13.6,0,0,0-19.106,0H4.807V16.823Z" transform="translate(-0.11 1.083)" fill="#f79b5c"/>
        <path id="Tracé_6815" data-name="Tracé 6815" d="M57.754,22.513a2.631,2.631,0,0,1-1.9-.813.87.87,0,0,0-1.258,0,2.634,2.634,0,0,1-3.8,0,.872.872,0,0,0-1.259,0,2.634,2.634,0,0,1-3.8,0,.872.872,0,0,0-1.259,0,2.634,2.634,0,0,1-3.8,0,.872.872,0,0,0-1.259,0,2.634,2.634,0,0,1-3.8,0,.87.87,0,0,0-1.259,0,2.635,2.635,0,0,1-3.8,0,.872.872,0,0,0-1.259,0,2.635,2.635,0,0,1-3.8,0,.87.87,0,0,0-1.259,0,2.635,2.635,0,0,1-3.8,0,.87.87,0,0,0-1.259,0,2.635,2.635,0,0,1-3.8,0,.871.871,0,0,0-.629-.269.929.929,0,0,1,0-1.857,2.632,2.632,0,0,1,1.9.813.872.872,0,0,0,1.259,0,2.631,2.631,0,0,1,3.8,0,.872.872,0,0,0,1.259,0,2.634,2.634,0,0,1,3.8,0,.872.872,0,0,0,1.259,0,2.634,2.634,0,0,1,3.8,0,.872.872,0,0,0,1.259,0,2.634,2.634,0,0,1,3.8,0,.872.872,0,0,0,1.259,0,2.634,2.634,0,0,1,3.8,0,.872.872,0,0,0,1.259,0,2.634,2.634,0,0,1,3.8,0,.872.872,0,0,0,1.259,0,2.634,2.634,0,0,1,3.8,0,.872.872,0,0,0,1.259,0,2.631,2.631,0,0,1,3.8,0,.871.871,0,0,0,1.259,0,2.631,2.631,0,0,1,3.8,0,.95.95,0,0,1,0,1.313.88.88,0,0,1-1.273,0,.87.87,0,0,0-1.258,0,2.631,2.631,0,0,1-1.9.813Zm0,4.459a2.631,2.631,0,0,1-1.9-.813.87.87,0,0,0-1.258,0,2.634,2.634,0,0,1-3.8,0,.872.872,0,0,0-1.259,0,2.634,2.634,0,0,1-3.8,0,.87.87,0,0,0-1.259,0,2.634,2.634,0,0,1-3.8,0,.872.872,0,0,0-1.259,0,2.634,2.634,0,0,1-3.8,0,.872.872,0,0,0-1.259,0,2.635,2.635,0,0,1-3.8,0,.87.87,0,0,0-1.259,0,2.635,2.635,0,0,1-3.8,0,.87.87,0,0,0-1.259,0,2.635,2.635,0,0,1-3.8,0,.872.872,0,0,0-1.259,0,2.635,2.635,0,0,1-3.8,0,.872.872,0,0,0-1.259,0,2.635,2.635,0,0,1-3.8,0,.871.871,0,0,0-.629-.269.929.929,0,0,1,0-1.857,2.632,2.632,0,0,1,1.9.813.872.872,0,0,0,1.259,0,2.634,2.634,0,0,1,3.8,0,.872.872,0,0,0,1.259,0,2.634,2.634,0,0,1,3.8,0,.872.872,0,0,0,1.259,0,2.634,2.634,0,0,1,3.8,0,.872.872,0,0,0,1.259,0,2.634,2.634,0,0,1,3.8,0,.872.872,0,0,0,1.259,0,2.634,2.634,0,0,1,3.8,0,.872.872,0,0,0,1.259,0,2.634,2.634,0,0,1,3.8,0,.872.872,0,0,0,1.259,0,2.634,2.634,0,0,1,3.8,0,.872.872,0,0,0,1.259,0,2.634,2.634,0,0,1,3.8,0,.872.872,0,0,0,1.259,0,2.631,2.631,0,0,1,3.8,0,.871.871,0,0,0,1.259,0,2.631,2.631,0,0,1,3.8,0,.95.95,0,0,1,0,1.313.88.88,0,0,1-1.273,0,.87.87,0,0,0-1.258,0,2.631,2.631,0,0,1-1.9.813Zm0,4.142a2.631,2.631,0,0,1-1.9-.813.87.87,0,0,0-1.258,0,2.634,2.634,0,0,1-3.8,0,.872.872,0,0,0-1.259,0,2.635,2.635,0,0,1-3.8,0,.872.872,0,0,0-1.259,0,2.635,2.635,0,0,1-3.8,0,.87.87,0,0,0-1.259,0,2.635,2.635,0,0,1-3.8,0,.95.95,0,0,1,0-1.313.88.88,0,0,1,1.273,0,.87.87,0,0,0,1.259,0,2.635,2.635,0,0,1,3.8,0,.872.872,0,0,0,1.259,0,2.635,2.635,0,0,1,3.8,0,.872.872,0,0,0,1.259,0,2.635,2.635,0,0,1,3.8,0,.872.872,0,0,0,1.259,0,2.631,2.631,0,0,1,3.8,0,.87.87,0,0,0,1.259,0,2.631,2.631,0,0,1,3.8,0,.95.95,0,0,1,0,1.313.88.88,0,0,1-1.273,0,.87.87,0,0,0-1.258,0,2.631,2.631,0,0,1-1.9.813Zm-30.376,0a2.641,2.641,0,0,1-1.9-.812.87.87,0,0,0-1.259,0,2.635,2.635,0,0,1-3.8,0,.871.871,0,0,0-1.258,0,2.635,2.635,0,0,1-3.8,0,.87.87,0,0,0-1.259,0,2.635,2.635,0,0,1-3.8,0,.87.87,0,0,0-.629-.269.929.929,0,0,1,0-1.857,2.632,2.632,0,0,1,1.9.813.871.871,0,0,0,1.258,0,2.632,2.632,0,0,1,3.8,0,.871.871,0,0,0,1.258,0,2.635,2.635,0,0,1,3.8,0,.871.871,0,0,0,1.258,0,2.632,2.632,0,0,1,3.8,0,.871.871,0,0,0,1.258,0,2.632,2.632,0,0,1,1.9-.813.929.929,0,0,1,0,1.857.871.871,0,0,0-.629.269,2.638,2.638,0,0,1-1.9.812ZM61.55,43.632a2.639,2.639,0,0,1-1.9-.812.87.87,0,0,0-1.258,0,2.635,2.635,0,0,1-3.8,0,.949.949,0,0,1,0-1.313.88.88,0,0,1,1.273,0,.872.872,0,0,0,1.259,0,2.631,2.631,0,0,1,3.8,0,.872.872,0,0,0,1.259,0,.88.88,0,0,1,1.273,0,.95.95,0,0,1,0,1.313,2.64,2.64,0,0,1-1.9.811Zm-3.8-8.6a2.631,2.631,0,0,1-1.9-.813.87.87,0,0,0-1.258,0,2.634,2.634,0,0,1-3.8,0,.872.872,0,0,0-1.259,0,2.635,2.635,0,0,1-3.8,0,.87.87,0,0,0-1.259,0,2.635,2.635,0,0,1-3.8,0,.872.872,0,0,0-1.259,0,2.635,2.635,0,0,1-3.8,0,.871.871,0,0,0-1.258,0,2.635,2.635,0,0,1-3.8,0,.87.87,0,0,0-1.259,0,2.635,2.635,0,0,1-3.8,0,.87.87,0,0,0-1.259,0,2.635,2.635,0,0,1-3.8,0,.871.871,0,0,0-1.258,0,2.635,2.635,0,0,1-3.8,0,.871.871,0,0,0-1.258,0,2.632,2.632,0,0,1-3.8,0,.87.87,0,0,0-.629-.269.929.929,0,0,1,0-1.857,2.632,2.632,0,0,1,1.9.813.871.871,0,0,0,1.258,0,2.635,2.635,0,0,1,3.8,0,.871.871,0,0,0,1.258,0,2.635,2.635,0,0,1,3.8,0,.871.871,0,0,0,1.258,0,2.635,2.635,0,0,1,3.8,0,.871.871,0,0,0,1.258,0,2.635,2.635,0,0,1,3.8,0,.87.87,0,0,0,1.259,0,2.635,2.635,0,0,1,3.8,0,.872.872,0,0,0,1.259,0,2.635,2.635,0,0,1,3.8,0,.87.87,0,0,0,1.259,0,2.635,2.635,0,0,1,3.8,0,.87.87,0,0,0,1.259,0,2.635,2.635,0,0,1,3.8,0,.872.872,0,0,0,1.259,0,2.631,2.631,0,0,1,3.8,0,.87.87,0,0,0,1.259,0,2.631,2.631,0,0,1,3.8,0,.95.95,0,0,1,0,1.313.88.88,0,0,1-1.273,0,.87.87,0,0,0-1.258,0,2.629,2.629,0,0,1-1.9.813ZM32.441,38.726a2.631,2.631,0,0,1-1.9-.813.871.871,0,0,0-1.258,0,2.634,2.634,0,0,1-3.8,0,.871.871,0,0,0-1.259,0,2.634,2.634,0,0,1-3.8,0,.871.871,0,0,0-1.259,0,2.634,2.634,0,0,1-3.8,0,.871.871,0,0,0-1.259,0,2.634,2.634,0,0,1-3.8,0,.87.87,0,0,0-.629-.269.929.929,0,0,1,0-1.857,2.631,2.631,0,0,1,1.9.813.871.871,0,0,0,1.259,0,2.634,2.634,0,0,1,3.8,0,.871.871,0,0,0,1.259,0,2.634,2.634,0,0,1,3.8,0,.871.871,0,0,0,1.258,0,2.634,2.634,0,0,1,3.8,0,.871.871,0,0,0,1.258,0,2.631,2.631,0,0,1,3.8,0,.871.871,0,0,0,1.258,0,2.634,2.634,0,0,1,3.8,0,.872.872,0,0,0,1.259,0,2.634,2.634,0,0,1,3.8,0,.949.949,0,0,1,0,1.313.88.88,0,0,1-1.273,0,.871.871,0,0,0-1.259,0,2.634,2.634,0,0,1-3.8,0,.871.871,0,0,0-1.259,0,2.63,2.63,0,0,1-1.9.813Z" transform="translate(0.101 1.322)" fill="#464668"/>
        <path id="Tracé_6816" data-name="Tracé 6816" d="M68.712.347H3.393A3.1,3.1,0,0,0,.347,3.49V51.3a3.1,3.1,0,0,0,3.046,3.143h18.19a15.847,15.847,0,0,0-.612,4.363A15.227,15.227,0,0,0,35.937,74.25,15.227,15.227,0,0,0,50.9,58.807a15.846,15.846,0,0,0-.612-4.363H68.712A3.1,3.1,0,0,0,71.758,51.3V3.49A3.1,3.1,0,0,0,68.712.347ZM35.937,72.233a13.238,13.238,0,0,1-13.01-13.425,13.726,13.726,0,0,1,.919-4.947l0-.008c.068-.181.144-.359.22-.538.038-.086.074-.173.113-.258.027-.059.056-.118.084-.177a12.994,12.994,0,0,1,11.67-7.5,13.432,13.432,0,0,1,0,26.85ZM69.958,51.3a1.268,1.268,0,0,1-1.246,1.286H49.63a14.777,14.777,0,0,0-27.387,0H3.393A1.268,1.268,0,0,1,2.147,51.3V3.49A1.268,1.268,0,0,1,3.393,2.2H68.712A1.268,1.268,0,0,1,69.958,3.49Z" transform="translate(-0.347 -0.347)" fill="#fff"/>
        <path id="Tracé_6817" data-name="Tracé 6817" d="M38.531,56.426l-3.753,3.221,2.152,2.662,2.784-4.059Zm-3.753,3.221-3.128-2.1-.23,1.588L33.1,62.308Z" transform="translate(1.307 4.521)" fill="#f98732"/>
        <path id="Tracé_6818" data-name="Tracé 6818" d="M36.247,61.331l-1.554,1.6-1.4-1.442,1.382-2.1Z" transform="translate(1.407 4.779)" fill="#ef7a2b"/>
      </g>
    </g>
  </g>
</svg>
