<svg xmlns="http://www.w3.org/2000/svg" version="1.1" xmlns:xlink="http://www.w3.org/1999/xlink" xmlns:svgjs="http://svgjs.dev/svgjs" width="1000" height="180" preserveAspectRatio="none" viewBox="0 0 1000 180"><g mask="url(&quot;#SvgjsMask2152&quot;)" fill="none"><path d="M537 64L658 185" stroke-width="8" stroke="url(&quot;#SvgjsLinearGradient2153&quot;)" stroke-linecap="round" class="BottomRight"></path><path d="M283 112L399 228" stroke-width="8" stroke="url(&quot;#SvgjsLinearGradient2154&quot;)" stroke-linecap="round" class="TopLeft"></path><path d="M116 27L19 -70" stroke-width="8" stroke="url(&quot;#SvgjsLinearGradient2153&quot;)" stroke-linecap="round" class="BottomRight"></path><path d="M425 88L550 213" stroke-width="10" stroke="url(&quot;#SvgjsLinearGradient2154&quot;)" stroke-linecap="round" class="TopLeft"></path><path d="M645 38L546 -61" stroke-width="6" stroke="url(&quot;#SvgjsLinearGradient2153&quot;)" stroke-linecap="round" class="BottomRight"></path><path d="M507 45L438 -24" stroke-width="6" stroke="url(&quot;#SvgjsLinearGradient2154&quot;)" stroke-linecap="round" class="TopLeft"></path><path d="M581 4L658 81" stroke-width="8" stroke="url(&quot;#SvgjsLinearGradient2154&quot;)" stroke-linecap="round" class="TopLeft"></path><path d="M634 152L558 76" stroke-width="6" stroke="url(&quot;#SvgjsLinearGradient2153&quot;)" stroke-linecap="round" class="BottomRight"></path><path d="M741 69L651 -21" stroke-width="8" stroke="url(&quot;#SvgjsLinearGradient2154&quot;)" stroke-linecap="round" class="TopLeft"></path><path d="M546 153L422 29" stroke-width="8" stroke="url(&quot;#SvgjsLinearGradient2153&quot;)" stroke-linecap="round" class="BottomRight"></path><path d="M945 83L1078 216" stroke-width="6" stroke="url(&quot;#SvgjsLinearGradient2154&quot;)" stroke-linecap="round" class="TopLeft"></path><path d="M151 1L250 100" stroke-width="10" stroke="url(&quot;#SvgjsLinearGradient2153&quot;)" stroke-linecap="round" class="BottomRight"></path><path d="M545 60L482 -3" stroke-width="8" stroke="url(&quot;#SvgjsLinearGradient2154&quot;)" stroke-linecap="round" class="TopLeft"></path><path d="M294 65L387 158" stroke-width="6" stroke="url(&quot;#SvgjsLinearGradient2153&quot;)" stroke-linecap="round" class="BottomRight"></path><path d="M923 5L874 -44" stroke-width="6" stroke="url(&quot;#SvgjsLinearGradient2153&quot;)" stroke-linecap="round" class="BottomRight"></path><path d="M709 73L831 195" stroke-width="10" stroke="url(&quot;#SvgjsLinearGradient2154&quot;)" stroke-linecap="round" class="TopLeft"></path><path d="M634 114L532 12" stroke-width="6" stroke="url(&quot;#SvgjsLinearGradient2154&quot;)" stroke-linecap="round" class="TopLeft"></path><path d="M699 147L623 71" stroke-width="6" stroke="url(&quot;#SvgjsLinearGradient2153&quot;)" stroke-linecap="round" class="BottomRight"></path><path d="M355 103L459 207" stroke-width="6" stroke="url(&quot;#SvgjsLinearGradient2154&quot;)" stroke-linecap="round" class="TopLeft"></path><path d="M284 43L214 -27" stroke-width="10" stroke="url(&quot;#SvgjsLinearGradient2154&quot;)" stroke-linecap="round" class="TopLeft"></path><path d="M538 73L627 162" stroke-width="10" stroke="url(&quot;#SvgjsLinearGradient2153&quot;)" stroke-linecap="round" class="BottomRight"></path><path d="M625 69L544 -12" stroke-width="10" stroke="url(&quot;#SvgjsLinearGradient2154&quot;)" stroke-linecap="round" class="TopLeft"></path><path d="M93 79L140 126" stroke-width="6" stroke="url(&quot;#SvgjsLinearGradient2154&quot;)" stroke-linecap="round" class="TopLeft"></path><path d="M379 161L424 206" stroke-width="8" stroke="url(&quot;#SvgjsLinearGradient2154&quot;)" stroke-linecap="round" class="TopLeft"></path><path d="M124 166L68 110" stroke-width="10" stroke="url(&quot;#SvgjsLinearGradient2153&quot;)" stroke-linecap="round" class="BottomRight"></path><path d="M168 50L243 125" stroke-width="8" stroke="url(&quot;#SvgjsLinearGradient2154&quot;)" stroke-linecap="round" class="TopLeft"></path></g><defs><mask id="SvgjsMask2152"><rect width="1000" height="180" fill="#ffffff"></rect></mask><linearGradient x1="0%" y1="0%" x2="100%" y2="100%" id="SvgjsLinearGradient2153"><stop stop-color="rgba(121, 9, 169, 0)" offset="0"></stop><stop stop-color="rgba(121, 9, 169, 1)" offset="1"></stop></linearGradient><linearGradient x1="100%" y1="100%" x2="0%" y2="0%" id="SvgjsLinearGradient2154"><stop stop-color="rgba(121, 9, 169, 0)" offset="0"></stop><stop stop-color="rgba(121, 9, 169, 1)" offset="1"></stop></linearGradient></defs></svg>