<?xml version="1.0" encoding="UTF-8" standalone="yes"?>
<svg width="45.866" height="45.866" viewBox="0 0 45.866 45.866" version="1.2" baseProfile="tiny-ps" xmlns="http://www.w3.org/2000/svg">
  <title>bimi-svg-tiny-12-ps</title>
  <g id="Groupe_3460" transform="translate(12981.002 -5989.066)">
    <g id="Groupe_3459" transform="translate(-4583.813 14688.966)">
      <circle id="Ellipse_798" cx="22.933" cy="22.933" r="22.933" transform="translate(-8397.188 -8699.899)" fill="#fff"/>
      <g id="Ellipse_799" transform="translate(-8393.421 -8661.99) rotate(-83)" fill="#f6eafc" stroke="#000" stroke-linecap="round" stroke-width="3.058" stroke-dasharray="40">
        <circle cx="17.2" cy="17.2" r="17.2" stroke="none"/>
        <circle cx="17.2" cy="17.2" r="15.671" fill="none"/>
      </g>
      <path id="Tracé_4892" d="M-8380.179-8683.272v12.613" fill="none" stroke="#000" stroke-linecap="round" stroke-width="3.44"/>
      <path id="Tracé_4893" d="M-8368.28-8669.463a7.645,7.645,0,0,1-6.045-8.963,7.645,7.645,0,0,1,8.963-6.045,7.645,7.645,0,0,1,6.045,8.962A7.644,7.644,0,0,1-8368.28-8669.463Z" fill="#f39c12"/>
      <path id="Tracé_4894" d="M-8368.28-8669.463a7.642,7.642,0,0,1-6.045-8.962v-.019l.007-.036v-.014l0-.025v0l0,0v0l0,0v-.009l0-.011v0l.022-.112v-.01l.012-.059v0l0-.024v0l0-.01v-.011l.009-.043v0l0,0v0l0,0v-.01l.02-.1,0-.02V-8679l0-.01v-.009l.012-.064v-.015l0-.01v-.006l.015-.077v-.02l.006-.03v0l0,0v0l.01-.044v-.01l.01-.05v0l0,0,0-.01v-.006l.007-.033,0-.01.006-.03,0-.01v0l0-.01v0l0,0,0-.01v-.009l0-.01v0l0-.01v-.019l.038-.2,0-.01,0-.01v0l.015-.074v-.01l0-.015v-.015l0-.016.008-.042,0-.01,0-.01,0-.01v0l0-.01,0-.01v0l0-.01v0l0,0,0-.014,0-.01.038-.192v0l0-.01v0l0-.015v-.01l0-.01.009-.044,0-.01v-.01l0-.01,0-.009,0-.01,0-.01,0-.01,0-.014,0-.01.01-.018.01-.019v-.01l.01-.018.01-.019,0-.014,0-.015,0-.01.008-.014.008-.014.007-.013.011-.019,0-.01.008-.013,0-.01.01-.018.01-.014.008-.013.009-.014.008-.014.01-.013.008-.014.015-.022.011-.018.012-.018.014-.021.036-.052.008-.014.019-.026.018-.026.03-.043.013-.017.013-.017.018-.026.02-.026.037-.05.588-.441.012-.017.016-.022.02-.024.013-.017.04-.05.038-.049.014-.017.04-.049.04-.048.1-.112.02-.023.015-.016.014-.016.014-.015.015-.016.014-.015.02-.024.019-.019.018-.019.018-.018.025-.027.155-.173.044-.044.06-.059.015-.014.042-.04.022-.021.028-.025.015-.015.015-.014.007-.007.085-.077.095-.083.02-.017.137-.114.044-.036.016-.013.024-.02.017-.013.02-.016.021-.017a7.637,7.637,0,0,1,5.038-1.567,1.147,1.147,0,0,1,.911,1.157,1.146,1.146,0,0,1-.98,1.1,5.353,5.353,0,0,0-5.572,4.7,5.351,5.351,0,0,0,4.286,5.9,5.383,5.383,0,0,0,1.513.079,1.15,1.15,0,0,1,1.248,1.041,1.147,1.147,0,0,1-1.04,1.247c-.135.013-.271.021-.406.022h-.006l-.01,0h-.007l-.01,0-.009,0-.01,0-.008,0h-.008l-.008,0h-.008l-.025.02-.008,0-.01,0-.009,0h-.008l-.007,0-.012,0-.008,0h-.008l-1.544-.3Z"/>
      <path id="Tracé_4895" d="M-8376.357-8678.687h8.791m-8.791,3.822h8.791" fill="none" stroke="#000" stroke-linecap="round" stroke-width="2.293"/>
    </g>
  </g>
</svg>