<svg height="45.866" viewBox="0 0 45.866 45.866" width="45.866" xmlns="http://www.w3.org/2000/svg"><g transform="translate(8397.189 8699.9)"><circle cx="-8374.255" cy="-8676.966" fill="#fff" r="22.933"/><g fill="#f6eafc" stroke="#000" stroke-dasharray="40" stroke-linecap="round" stroke-width="3.058" transform="matrix(.12186934 -.99254615 .99254615 .12186934 -8393.421 -8661.99)"><circle cx="17.2" cy="17.2" r="17.2" stroke="none"/><circle cx="17.2" cy="17.2" fill="none" r="15.671"/></g><path d="m-8380.179-8683.272v12.613" fill="none" stroke="#000" stroke-linecap="round" stroke-width="3.44"/><path d="m-8368.28-8669.463a7.645 7.645 0 0 1 -6.045-8.963 7.645 7.645 0 0 1 8.963-6.045 7.645 7.645 0 0 1 6.045 8.962 7.644 7.644 0 0 1 -8.963 6.046z" fill="#f39c12"/><path d="m-8368.28-8669.463a7.642 7.642 0 0 1 -6.045-8.962v-.019l.007-.036v-.014-.025-.009-.011l.022-.112v-.01l.012-.059v-.024-.01-.011l.009-.043v-.01l.02-.1v-.02-.062-.01-.009l.012-.064v-.015-.01-.006l.015-.077v-.02l.006-.03.01-.044v-.01l.01-.05v-.01-.006l.007-.033v-.01l.006-.03v-.01-.01-.01-.009-.01-.01-.019l.038-.2v-.01-.01l.015-.074v-.01-.015-.015-.016l.008-.042v-.01-.01-.01-.01-.01-.01-.014-.01l.038-.192v-.01-.015-.01-.01l.009-.044v-.01-.01-.01-.009-.01-.01-.01-.014-.01l.01-.018.01-.019v-.01l.01-.018.01-.019v-.014-.015-.01l.008-.014.008-.014.007-.013.011-.019v-.01l.008-.013v-.01l.01-.018.01-.014.008-.013.009-.014.008-.014.01-.013.008-.014.015-.022.011-.018.012-.018.014-.021.036-.052.008-.014.019-.026.018-.026.03-.043.013-.017.013-.017.018-.026.02-.026.037-.05.588-.441.012-.017.016-.022.02-.024.013-.017.04-.05.038-.049.014-.017.04-.049.04-.048.1-.112.02-.023.015-.016.014-.016.014-.015.015-.016.014-.015.02-.024.019-.019.018-.019.018-.018.025-.027.155-.173.044-.044.06-.059.015-.014.042-.04.022-.021.028-.025.015-.015.015-.014.007-.007.085-.077.095-.083.02-.017.137-.114.044-.036.016-.013.024-.02.017-.013.02-.016.021-.017a7.637 7.637 0 0 1 5.038-1.567 1.147 1.147 0 0 1 .911 1.157 1.146 1.146 0 0 1 -.98 1.1 5.353 5.353 0 0 0 -5.572 4.7 5.351 5.351 0 0 0 4.286 5.9 5.383 5.383 0 0 0 1.513.079 1.15 1.15 0 0 1 1.248 1.041 1.147 1.147 0 0 1 -1.04 1.247c-.135.013-.271.021-.406.022h-.006-.01-.007-.01-.009-.01-.008-.008-.008-.008l-.025.02h-.008-.01-.009-.008-.007-.012-.008-.008l-1.544-.3z"/><path d="m-8376.357-8678.687h8.791m-8.791 3.822h8.791" fill="none" stroke="#000" stroke-linecap="round" stroke-width="2.293"/></g></svg>