<svg height="172" width="174" xmlns="http://www.w3.org/2000/svg"><defs><clipPath id="a"><path stroke="#707070" fill="#fff" transform="translate(-8013 711)" d="M0 0h174v172H0z"/></clipPath></defs><g clip-path="url(#a)" transform="translate(8013 -711)"><path d="M-7930.306 773.609c45.673-8.08 84.586-4.162 86.92 8.747s-32.793 29.926-78.466 38.006-84.586 4.163-86.921-8.747 32.797-29.927 78.467-38.006z"/><path fill="#fff" d="M-7977.098 800.17a2.27 2.27 0 010 1.2 1.771 1.771 0 01-3.423-.381v-1.638h-4.528v1.311c0 3.768 2.982 4.915 6.239 4.915s5.522-1.038 6.019-3.878a8.644 8.644 0 000-2.785c-.718-3.5-7.233-4.588-7.73-6.554a2.323 2.323 0 010-.874 1.378 1.378 0 011.546-1.147 1.445 1.445 0 011.168.388 1.411 1.411 0 01.433 1.141v1.038h4.253v-1.365c0-3.659-3.313-4.26-5.522-4.26s-5.522.983-5.963 3.768a5.4 5.4 0 000 2.294c.773 3.441 6.847 4.424 7.73 6.663m10.155-12.015l-3.2 16.93h4.638l2.319-15.346 2.264 15.346h4.639l-3.092-16.93zm25.841 0l-2.1 12.943-2.1-12.943h-7.116l-.331 16.93h4.417v-15.237l2.871 15.238h4.307l2.871-15.238v15.238h4.252l-.387-16.93zm19.384 12.124a2.432 2.432 0 010 1.256 1.545 1.545 0 01-1.656 1.147 1.5 1.5 0 01-1.222-.364 1.467 1.467 0 01-.49-1.165v-1.638h-4.639v1.256c0 3.823 3.037 4.915 6.239 4.915s5.522-1.038 6.074-3.823a7.888 7.888 0 000-2.785c-.718-3.55-7.178-4.588-7.675-6.608a2.323 2.323 0 010-.874 1.378 1.378 0 011.546-1.147 1.5 1.5 0 011.147.41 1.466 1.466 0 01.454 1.12v1.092h4.252v-1.366c0-3.714-3.368-4.26-5.522-4.26s-5.522.983-6.019 3.714a6.429 6.429 0 000 2.294c.718 3.5 6.792 4.478 7.675 6.663m14.195 2.512a1.488 1.488 0 001.656-1.256 2.431 2.431 0 000-.655v-12.562h4.304v13.271c-.331 3.113-2.871 4.151-6.019 4.151s-5.522-1.038-5.963-4.151v-13.271h4.307v12.507a2.431 2.431 0 000 .655 1.487 1.487 0 001.6 1.256m20.927-14.418l.276 13.271-3.92-13.271h-6.35v16.767h4.2v-13.763l4.252 13.763h6.018v-16.767zm14.908 14.473a1.545 1.545 0 001.712-1.2 2.647 2.647 0 000-.655v-2.46h-1.767v-2.457h6.184v4.535a8.855 8.855 0 010 1.092c-.276 3.113-2.982 4.205-6.019 4.205s-5.522-1.092-6.019-4.205a8.855 8.855 0 010-1.092v-8.249c.387-3.168 2.982-4.151 6.019-4.151s5.522.983 6.019 4.151v1.693h-4.417v-.928a3.674 3.674 0 000-.655 1.544 1.544 0 00-1.712-1.256 1.488 1.488 0 00-1.656 1.256 3.187 3.187 0 000 .765v7.754a2.646 2.646 0 000 .655 1.6 1.6 0 001.767 1.2"/></g></svg>