<svg height="96" width="96" xmlns="http://www.w3.org/2000/svg"><defs><clipPath id="a"><path stroke="#707070" fill="#fff" transform="translate(-7857.441 724)" d="M0 0h96v96H0z"/></clipPath></defs><g clip-path="url(#a)" transform="translate(7857.441 -724)"><path d="M-7795.165 739.25a20.946 20.946 0 005.064-15.249 21.208 21.208 0 00-14.333 7.266 19.942 19.942 0 00-4.778 14.771 17.626 17.626 0 0014.047-6.788zm12.04 35.566a21.562 21.562 0 0110.319-18.215 22.26 22.26 0 00-17.486-9.561c-7.453-.765-14.333 4.35-18.3 4.35s-9.553-4.253-15.763-4.157a23.5 23.5 0 00-19.781 12.094c-8.409 14.628-2.15 36.379 6.259 48.187 3.822 5.784 8.6 12.333 14.906 12.094s8.361-3.92 15.671-3.92 9.555 3.92 15.766 3.777 10.606-5.928 14.619-11.712a52.6 52.6 0 006.593-13.624 21.082 21.082 0 01-12.804-19.313z"/></g></svg>