<svg height="120" width="120" xmlns="http://www.w3.org/2000/svg"><defs><clipPath id="a"><circle stroke="#707070" fill="#fff" transform="translate(-10694 3598)" r="31" cy="31" cx="31"/></clipPath></defs><g clip-path="url(#a)" transform="translate(10723 -3569)"><g transform="translate(-10694 3598)"><circle fill="#68bbd8" r="31" cy="31" cx="31"/><path fill="#445c6c" d="M18.329 7.053l8.351 16.1h8.544l-8.448-16.1z"/><path fill="#fffbff" d="M15.374 20.673h31.242v34.274H15.374z"/><path fill="#5bcec3" d="M18.929 25.478H43.07v24.664H18.929z"/><ellipse fill="#ecb285" transform="rotate(-75.97 39.868 -4.068)" ry=".678" rx="1.569" cy=".678" cx="1.569"/><ellipse fill="#ecb285" transform="rotate(-14.03 146.505 -88.238)" ry="1.569" rx=".678" cy="1.569" cx=".678"/><path fill="#f2d7bc" d="M31.1 48.854l.039.01-.039.01zm-.11-.01l.029.01v.019z"/><path fill="#ecb285" d="M28.675 37.345h4.66v4.156h-4.66z"/><path fill="#f4d387" d="M40.358 46.965a1.23 1.23 0 01-.756 1.046c-2.344.756-8.564.862-8.564.862h-.145s-6.219-.107-8.564-.862a1.23 1.23 0 01-.756-1.046l.513-4.5S23 40.271 27.658 39.4s0 2.151 3.032 2.829a.727.727 0 00.213 0h.174c3.2-.639 3.177-2.906 3.177-2.906h-.144c4.66.862 5.706 3.081 5.706 3.081z"/><path fill="#2d434f" d="M34.274 39.389c-.31-.058-.6-.107-.969-.155 0 .969-.853 1.453-1.511 1.724a4.727 4.727 0 01-.814.252 4.727 4.727 0 01-.814-.252c-.659-.271-1.5-.794-1.511-1.724l-.969.155s0 2.151 3.032 2.829h.358c3.2-.639 3.177-2.906 3.177-2.906z"/><ellipse fill="#f4c6a6" transform="translate(26.873 27.125)" ry="5.967" rx="4.127" cy="5.967" cx="4.127"/><path fill="#2d434f" d="M27.125 35.03a10.046 10.046 0 00.4-3.555s-.233-1.434 1.938-.862a6.675 6.675 0 004.185-.4s.969-.572.852 2.393a13.563 13.563 0 01.378 2.519s1.734-5.115-.291-7.169-7.072-1.376-7.924 1.2c.007.003-1.001 1.079.462 5.874z"/><path fill="#5bcec3" d="M26.176 22.475h9.639v1.356h-9.639z"/><path fill="#2d434f" d="M43.671 7.053l-8.351 16.1h-8.544l8.448-16.1z"/></g></g></svg>