<svg height="96" width="100" xmlns="http://www.w3.org/2000/svg"><defs><clipPath id="a"><path stroke="#707070" fill="#fff" transform="translate(-8054.201 427)" d="M0 0h100v96H0z"/></clipPath><clipPath id="b"><path d="M0 0h99.8v96H0z"/></clipPath></defs><g clip-path="url(#a)" transform="translate(8054.201 -427)"><path fill="#f57921" d="M-8054 427h99.8v96h-99.8z"/><g clip-path="url(#b)" transform="translate(-8054 427)"><path fill="#faf9f5" d="M67.592 72.417V37.422c0-7.951-6.7-14.4-14.964-14.4H10.564a.574.574 0 00-.587.56v48.834a.573.573 0 00.587.559H21.8a.6.6 0 00.415-.164.553.553 0 00.172-.4V34.086a.576.576 0 01.587-.563h24.161a8.065 8.065 0 018.217 7.9v30.988a.574.574 0 00.585.563h11.07a.574.574 0 00.585-.559"/></g><g clip-path="url(#b)" transform="translate(-8054 427)"><path fill="#faf9f5" d="M44.902 72.413a.55.55 0 01-.171.4.6.6 0 01-.414.164H33.084a.575.575 0 01-.587-.562V43.043a.576.576 0 01.587-.563h11.238a.6.6 0 01.414.165.551.551 0 01.171.4v29.369z"/></g><g clip-path="url(#b)" transform="translate(-8054 427)"><path fill="#faf9f5" d="M89.822 72.413a.575.575 0 01-.587.562H78.004a.577.577 0 01-.59-.562V23.59a.578.578 0 01.59-.565H89.23a.6.6 0 01.415.165.554.554 0 01.172.4z"/></g></g></svg>