<svg height="214" width="182" xmlns="http://www.w3.org/2000/svg"><defs><clipPath id="a"><path stroke="#707070" fill="#fff" transform="translate(-7990 416)" d="M0 0h182v214H0z"/></clipPath></defs><g clip-path="url(#a)" transform="translate(7990 -416)"><g fill-rule="evenodd"><path fill="#c23c40" d="M-7982.778 497.473l54.763-.2a3.579 3.579 0 013.607 3.526l.117 32.582a3.579 3.579 0 01-3.582 3.552l-54.763.2a3.578 3.578 0 01-3.608-3.524l-.116-32.584a3.578 3.578 0 013.582-3.552z"/><path fill="#fff" d="M-7964.67 522.246l-.289-8.748a118.852 118.852 0 00-13.538.393 2.649 2.649 0 01-2.041-.951c-2.72-2.854-3.249-3.365 1.43-3.51 11.009-.339 42.988-1.227 48.7-.018 4.841 1.483-.564 6.373-1.246 7.463l-7.222 8.028c-1.393 1.136-2.961 1.431-5.013 1.63l-23.919-.027c-1.774-.062-1.941-.342-2.732-1.1l-1.398-1.726c.117-.763-.342-1.169.9-1.269l6.363-.166zm9.864-8.918a83.675 83.675 0 0110.876.261c2.315.4 2.351.382 1.061 2.644l-2.455 4.609a2.089 2.089 0 01-2 1.379l-7.057-.027-.423-8.866z"/><path d="M-7918.836 537.138h10.082c3.294 0 8.824-4.952 8.824-10.731v-17.391c-.706-1.027.652-9.644-9.956-10.681-.36-.035-.723.048-1.089.048h-7.862v38.755zm7.1-7.589v-24.488c1.036-.172 4.074-.472 4.074 4.277v16.13c-.004 3.183-1.58 4.083-4.078 4.083zm14.9 7.069h7.942v-38.987h-7.948zm11.039 0h16.383v-6.69h-8.389v-8.92h6.807v-7.988h-6.679v-7.927h8.981v-7.073h-17.109v38.6zm17.885-12.182v3.487c0 6.654 4.478 9.647 9.029 9.647 5.158 0 9.533-2.14 10.049-11.072a5.706 5.706 0 00-.042-1.673c-2.718-11.074-12.618-12.217-12.108-18.364.222-2.672 1.33-2.986 2.256-2.986 1.536 0 1.9 1.648 1.9 6.042h7.175v-1.226c0-8.483-4.438-11.592-9.232-11.5-5.445.108-8.9 3.112-9.442 9.768a6.25 6.25 0 00-.079.993c.518 11.74 12.3 13.7 12.3 18.954 0 2.572-.928 4.035-2.7 3.979-1.418-.044-2.325-1.149-2.325-3.869v-2.179h-6.789zm21.028 12.183h16.64v-6.691h-8.9v-9.05h6.681v-7.6h-6.294v-8.185h8.726v-7.332h-16.852v38.858zm18.863 0h15.585v-6.821h-7.25v-31.647h-8.335v38.468zm14.16-38.448a2.216 2.216 0 00-2.216 2.231 2.226 2.226 0 104.452 0 2.27 2.27 0 00-2.236-2.231zm0 .191a2.091 2.091 0 012.046 2.04 2.032 2.032 0 11-4.063 0 2.037 2.037 0 012.017-2.039zm-.517 2.168h-.016c.013-.043.027-.072.085-.072h.1c.317 0 .466.376.622.626.177.249.3.469.624.539.05-.028.275 0 .275-.071a2.481 2.481 0 01-.3-.136 4.822 4.822 0 01-.735-1.059.893.893 0 00.332-.291.907.907 0 00.114-.355c-.027-.434-.446-.561-.82-.583-.277 0-.537.008-.814.008-.029 0-.071 0-.071.027s0 .029.071.043c.211.028.262.213.262.391 0 .29 0 .61-.015.944.015.15.015.306.015.454a1.262 1.262 0 01-.015.249.3.3 0 01-.163.278c-.042.014-.1 0-.1.057 0 .014.029.028.071.042a.1.1 0 01.042-.014h.708a.1.1 0 01.035.014c.042-.014.085-.028.085-.057s-.112-.041-.119-.041c-.071-.022-.227-.015-.27-.292v-.7zm.114-.215c-.1 0-.114-.007-.114-.121 0-.234 0-.39-.013-.539.027-.171-.037-.4.2-.4a.62.62 0 01.637.61c0 .419-.389.454-.708.454zm-173.073 49.236v-7.432h2.917a8.145 8.145 0 011.508.107 3.009 3.009 0 012.245 1.8 4.454 4.454 0 01.332 1.767 4.628 4.628 0 01-.224 1.5 3.458 3.458 0 01-.579 1.08 2.875 2.875 0 01-.77.676 3.37 3.37 0 01-1.012.372 6.548 6.548 0 01-1.363.127zm1.121-.877h1.809a5.008 5.008 0 001.313-.133 2 2 0 00.76-.386 2.3 2.3 0 00.621-.941 4.1 4.1 0 00.219-1.433 3.105 3.105 0 00-.437-1.791 2.139 2.139 0 00-1.06-.84 4.97 4.97 0 00-1.45-.153h-1.776zm14.087.877v-7.429h6.125v.877h-5.005v2.275h4.687v.877h-4.687v2.53h5.2v.87h-6.319zm14.5 0v-7.429h1.151l4.45 5.836v-5.836h1.074v7.429h-1.153l-4.449-5.839v5.839zm15.389 0v-7.432h1.121v7.432zm9.7 0v-7.429h1.687l2.005 5.263c.184.49.321.856.4 1.1.1-.271.248-.668.452-1.191l2.028-5.171h1.508v7.428h-1.08v-6.218l-2.462 6.218h-1.011l-2.449-6.328v6.328h-1.082zm23.478 0v-7.429h2.918a8.145 8.145 0 011.508.107 3.018 3.018 0 011.242.532 3.066 3.066 0 011 1.271 4.438 4.438 0 01.332 1.767 4.653 4.653 0 01-.224 1.5 3.458 3.458 0 01-.579 1.08 2.876 2.876 0 01-.77.676 3.351 3.351 0 01-1.012.372 6.535 6.535 0 01-1.363.127zm1.121-.877h1.808a5.008 5.008 0 001.315-.137 2 2 0 00.76-.386 2.291 2.291 0 00.621-.941 4.1 4.1 0 00.223-1.433 3.105 3.105 0 00-.437-1.791 2.131 2.131 0 00-1.06-.84 4.97 4.97 0 00-1.45-.153h-1.785v5.68zm14.256.877v-7.432h1.12v7.432zm12.156 0l-3.285-7.432h1.214l2.2 5.4c.177.431.325.84.446 1.217.131-.405.285-.812.456-1.217l2.288-5.4h1.145l-3.317 7.432h-1.15zm12.3 0v-7.432h1.12v7.432zm9.354-2.388l1.057-.081a1.668 1.668 0 001.2 1.493 3.611 3.611 0 001.3.221 3.55 3.55 0 001.134-.166 1.6 1.6 0 00.73-.46.982.982 0 00.239-.635.9.9 0 00-.229-.613 1.751 1.751 0 00-.763-.438q-.341-.116-1.507-.363a8.52 8.52 0 01-1.636-.464 2.2 2.2 0 01-.9-.692 1.545 1.545 0 01-.3-.926 1.72 1.72 0 01.363-1.049 2.209 2.209 0 011.064-.744 4.522 4.522 0 011.555-.255 4.8 4.8 0 011.661.265 2.367 2.367 0 011.106.784 2.045 2.045 0 01.416 1.171l-1.075.072a1.462 1.462 0 00-.587-1.064 2.5 2.5 0 00-1.475-.361 2.614 2.614 0 00-1.48.328.943.943 0 00-.468.786.807.807 0 00.331.661 4.817 4.817 0 001.69.53 12.434 12.434 0 011.877.473 2.553 2.553 0 011.091.759 1.7 1.7 0 01.352 1.057 1.862 1.862 0 01-.387 1.118 2.508 2.508 0 01-1.112.817 4.379 4.379 0 01-1.634.291 5.484 5.484 0 01-1.926-.294 2.649 2.649 0 01-1.22-.884 2.3 2.3 0 01-.466-1.337zm15.1 2.388v-7.432h1.12v7.432zm9.394-3.62a3.752 3.752 0 011.132-2.9 4.142 4.142 0 012.924-1.047 4.538 4.538 0 012.115.491 3.424 3.424 0 011.434 1.371 3.989 3.989 0 01.495 2 3.942 3.942 0 01-.519 2.023 3.365 3.365 0 01-1.475 1.352 4.714 4.714 0 01-2.056.458 4.441 4.441 0 01-2.137-.506 3.438 3.438 0 01-1.428-1.385 3.784 3.784 0 01-.486-1.855zm1.155.015a2.764 2.764 0 00.822 2.117 2.9 2.9 0 004.967-2.225 3.427 3.427 0 00-.348-1.584 2.475 2.475 0 00-1.024-1.049 3.06 3.06 0 00-1.511-.373 3.1 3.1 0 00-2.049.716 2.967 2.967 0 00-.858 2.4zm15.017 3.6v-7.424h1.151l4.45 5.836v-5.836h1.075v7.429h-1.151l-4.45-5.839v5.839z"/></g></g></svg>