<svg xmlns="http://www.w3.org/2000/svg" version="1.1" xmlns:xlink="http://www.w3.org/1999/xlink" xmlns:svgjs="http://svgjs.dev/svgjs" width="1040" height="130" preserveAspectRatio="none" viewBox="0 0 1040 130"><g mask="url(&quot;#SvgjsMask1000&quot;)" fill="none"><g transform="translate(10.4, 0)" stroke-linecap="round"><path d="M129 51.19 L129 78.81" stroke-width="17.25" stroke="rgba(249, 109, 131, 1)"></path><path d="M152 44.77 L152 85.23" stroke-width="17.25" stroke="rgba(249, 109, 131, 1)"></path><path d="M175 46.78 L175 83.22" stroke-width="17.25" stroke="rgba(249, 109, 131, 1)"></path><path d="M198 59.48 L198 70.53" stroke-width="17.25" stroke="rgba(249, 109, 131, 1)"></path><path d="M221 43.52 L221 86.48" stroke-width="17.25" stroke="rgba(249, 109, 131, 1)"></path><path d="M244 28.52 L244 101.48" stroke-width="17.25" stroke="rgba(225, 225, 225, 1)"></path><path d="M267 52.31 L267 77.69" stroke-width="17.25" stroke="rgba(249, 109, 131, 1)"></path><path d="M290 54.27 L290 75.73" stroke-width="17.25" stroke="rgba(249, 109, 131, 1)"></path><path d="M313 58.76 L313 71.25" stroke-width="17.25" stroke="rgba(249, 109, 131, 1)"></path><path d="M336 27.52 L336 102.48" stroke-width="17.25" stroke="rgba(249, 109, 131, 1)"></path><path d="M359 57.61 L359 72.39" stroke-width="17.25" stroke="rgba(249, 109, 131, 1)"></path><path d="M382 52.85 L382 77.15" stroke-width="17.25" stroke="rgba(249, 109, 131, 1)"></path><path d="M405 36.52 L405 93.48" stroke-width="17.25" stroke="rgba(225, 225, 225, 1)"></path><path d="M428 51.88 L428 78.11" stroke-width="17.25" stroke="rgba(225, 225, 225, 1)"></path><path d="M451 26.14 L451 103.86" stroke-width="17.25" stroke="rgba(249, 109, 131, 1)"></path><path d="M474 44.65 L474 85.35" stroke-width="17.25" stroke="rgba(225, 225, 225, 1)"></path><path d="M497 32.08 L497 97.92" stroke-width="17.25" stroke="rgba(249, 109, 131, 1)"></path><path d="M520 49.66 L520 80.34" stroke-width="17.25" stroke="rgba(225, 225, 225, 1)"></path><path d="M543 38.97 L543 91.03" stroke-width="17.25" stroke="rgba(249, 109, 131, 1)"></path><path d="M566 37.13 L566 92.87" stroke-width="17.25" stroke="rgba(225, 225, 225, 1)"></path><path d="M589 33.23 L589 96.77" stroke-width="17.25" stroke="rgba(225, 225, 225, 1)"></path><path d="M612 31.81 L612 98.19" stroke-width="17.25" stroke="rgba(249, 109, 131, 1)"></path><path d="M635 39.23 L635 90.77" stroke-width="17.25" stroke="rgba(225, 225, 225, 1)"></path><path d="M658 46.77 L658 83.23" stroke-width="17.25" stroke="rgba(225, 225, 225, 1)"></path><path d="M681 56.95 L681 73.06" stroke-width="17.25" stroke="rgba(249, 109, 131, 1)"></path><path d="M704 27.4 L704 102.6" stroke-width="17.25" stroke="rgba(249, 109, 131, 1)"></path><path d="M727 35.14 L727 94.86" stroke-width="17.25" stroke="rgba(249, 109, 131, 1)"></path><path d="M750 38.29 L750 91.71" stroke-width="17.25" stroke="rgba(249, 109, 131, 1)"></path><path d="M773 50.19 L773 79.81" stroke-width="17.25" stroke="rgba(249, 109, 131, 1)"></path><path d="M796 38.25 L796 91.75" stroke-width="17.25" stroke="rgba(249, 109, 131, 1)"></path><path d="M819 53.87 L819 76.14" stroke-width="17.25" stroke="rgba(249, 109, 131, 1)"></path><path d="M842 51.74 L842 78.26" stroke-width="17.25" stroke="rgba(249, 109, 131, 1)"></path><path d="M865 33.73 L865 96.27" stroke-width="17.25" stroke="rgba(249, 109, 131, 1)"></path><path d="M888 42.13 L888 87.87" stroke-width="17.25" stroke="rgba(225, 225, 225, 1)"></path><path d="M911 38.17 L911 91.83" stroke-width="17.25" stroke="rgba(225, 225, 225, 1)"></path></g></g><defs><mask id="SvgjsMask1000"><rect width="1040" height="130" fill="#ffffff"></rect></mask></defs></svg>