<svg height="80" width="80" xmlns="http://www.w3.org/2000/svg"><defs><clipPath id="a"><path stroke="#000" fill="#fff" transform="translate(-6695 858)" d="M0 0h42v42H0z"/></clipPath></defs><g clip-path="url(#a)" transform="translate(6714 -839)"><g transform="translate(-6694.508 862.413)"><ellipse opacity=".15" fill="#45413c" transform="translate(5.495 30.544)" ry="1.545" rx="16.908" cy="1.545" cx="16.908"/><path fill="#4acfff" d="M27.466 14.279l-4.3-12.267A2.593 2.593 0 0020.491.376l-1.816.182a1 1 0 00-.86.727l-3.34 10.45 12.991 2.544z"/><path fill="#80ddff" d="M23.166 2.012A2.593 2.593 0 0020.491.376l-1.815.182a1 1 0 00-.86.727l-.669 2c.1-.363 1.146-.636 1.528-.727l1.815-.182c1.146-.091 2.961.545 3.343 1.636z"/><path stroke-width=".887" stroke-miterlimit="10" stroke-linejoin="round" stroke-linecap="round" stroke="#45413c" fill="none" d="M27.466 14.279l-4.3-12.267A2.593 2.593 0 0020.491.376l-1.816.182a1 1 0 00-.86.727l-3.34 10.45 12.991 2.544z"/><path fill="#f0f0f0" d="M39.598 29.544L.433 15.914 6.26.834A1.363 1.363 0 018.46.38a12.326 12.326 0 0010.123 3.354 3.866 3.866 0 013.057 1.09l10.032 10.182a20.842 20.842 0 005.54 3.907 6.4 6.4 0 013.343 8z"/><path fill="#fff" d="M5.782 3.647a14.437 14.437 0 0010.794 3.635 4.286 4.286 0 013.248 1.09l10.889 10.45a22.964 22.964 0 006.018 4.089 7.126 7.126 0 013.821 4.271l.1-.273a6.435 6.435 0 00-3.343-8 19.887 19.887 0 01-5.54-3.907L21.544 4.829a3.751 3.751 0 00-3.057-1.095A12.742 12.742 0 018.361.376a1.363 1.363 0 00-2.2.454l-.948 2.545z"/><path stroke-width=".887" stroke-miterlimit="10" stroke-linejoin="round" stroke-linecap="round" stroke="#45413c" fill="none" d="M39.598 29.544L.433 15.914 6.26.834A1.363 1.363 0 018.46.38a12.326 12.326 0 0010.123 3.354 3.866 3.866 0 013.057 1.09l10.032 10.182a20.842 20.842 0 005.54 3.907 6.4 6.4 0 013.343 8z"/><path stroke-width=".893" stroke-miterlimit="10" stroke-linejoin="round" stroke-linecap="round" stroke="#45413c" fill="#bdbec0" d="M35.013 30.634l-15.093-5.27a19.826 19.826 0 01-4.012-1.817l-2.867-1.634a2.012 2.012 0 00-1.624-.182 3.759 3.759 0 01-2.006 0l-7.07-2.455C.717 18.64-.238 17.822.048 17.004l.382-1.09 39.165 13.63-.382.909c-.478 1-2.1.909-4.2.182z"/><path fill="#4acfff" d="M41.03 24.728a5.84 5.84 0 01-.382 2.181l-1.051 2.635-10.985-3.816c.955-2.726 2.293-4 4.49-4.362a5.282 5.282 0 003.725-2.635.739.739 0 00.382.182 6.593 6.593 0 013.821 5.815z"/><path fill="#80ddff" d="M41.03 24.728a5.84 5.84 0 01-.382 2.181l-.1.273a7.126 7.126 0 00-3.821-4.271 20.058 20.058 0 01-3.057-1.726 4.913 4.913 0 003.248-2.544 7.238 7.238 0 012.293 1.545 6.924 6.924 0 011.815 4.543z"/><path stroke-width=".887" stroke-miterlimit="10" stroke-linejoin="round" stroke-linecap="round" stroke="#45413c" fill="none" d="M41.03 24.728a5.84 5.84 0 01-.382 2.181l-1.051 2.635-10.985-3.816c.955-2.726 2.293-4 4.49-4.362a5.282 5.282 0 003.725-2.635.739.739 0 00.382.182 6.593 6.593 0 013.821 5.815z"/><path fill="#4acfff" d="M13.329 20.367L.433 15.914 5.209 3.375 6.164.834a1.363 1.363 0 012.2-.454c.1.182.287.273.478.454a1.666 1.666 0 00.478.363c.191.091.287.273.478.363a6.479 6.479 0 001.051.636 5.885 5.885 0 01.573.363l.573.273c.382.182.764.273 1.146.454a5.1 5.1 0 00-.287 3.907 4.863 4.863 0 00.955 1.636c2.293 2.635 2.2 4.452-.478 11.54z"/><path fill="#80ddff" d="M12.851 7.1a13.175 13.175 0 01-7.069-3.453l-.569-.272.951-2.541a1.363 1.363 0 012.2-.454 10.672 10.672 0 004.776 2.817 6.242 6.242 0 00-.287 3.907z"/><path stroke-width=".887" stroke-miterlimit="10" stroke-linejoin="round" stroke-linecap="round" stroke="#45413c" fill="none" d="M13.329 20.367L.433 15.914 6.26.834A1.363 1.363 0 018.46.38a11.591 11.591 0 004.776 2.817c-.764 2-.86 3.725.669 5.543 2.2 2.726 2.1 4.543-.573 11.631z"/><path stroke-width=".887" stroke-miterlimit="10" stroke-linejoin="round" stroke-linecap="round" stroke="#45413c" fill="#fff" d="M26.319 14.46a1.065 1.065 0 01.1-1.454l2.2-1.817a1.205 1.205 0 011.528.091 1.065 1.065 0 01-.1 1.454l-2.2 1.817a1.205 1.205 0 01-1.528-.091zm-3.915-4.088a1.065 1.065 0 01.1-1.454l2.2-1.817a1.205 1.205 0 011.528.091 1.065 1.065 0 01-.1 1.454l-2.2 1.817a1.1 1.1 0 01-1.528-.091zm8.119 7.36a1.065 1.065 0 01.1-1.454l1.815-1.454a1.205 1.205 0 011.528.091 1.065 1.065 0 01-.1 1.454l-1.815 1.454a1.1 1.1 0 01-1.528-.091z"/></g></g></svg>