<svg height="120" width="120" xmlns="http://www.w3.org/2000/svg"><defs><clipPath id="a"><path stroke="#707070" fill="#fff" transform="translate(-8316 776)" d="M0 0h120v120H0z"/></clipPath></defs><g clip-path="url(#a)" transform="translate(8316 -776)"><g fill-rule="evenodd"><path d="M-8294.724 842.837a1.593 1.593 0 101.652 1.594 1.575 1.575 0 00-1.652-1.594zm0 2.729a1.137 1.137 0 111.15-1.135 1.123 1.123 0 01-1.15 1.134zm16.071-8.3h-8.04l.914-13.975-5.221 13.972h-7.467l11.846-31.588h7.944l-.917 14.167 5.32-14.167h7.467zm.97 0l11.845-31.591h7.466l-11.845 31.588z"/><path d="M-8299.328 826.375c-10.433 12.252-20.272 28.555-11.582 36.062 8.424 7.275 18.953 2.968 26.132.1s86.531-37.337 86.531-37.337c.766-.383.623-.862-.335-.623-.386.1-86.387 23.4-86.387 23.4-10.913 3.069-23.357-3.607-14.359-21.602z"/><path d="M-8294.443 844.543a.4.4 0 00.413-.451c0-.413-.27-.517-.722-.517h-.648v1.714h.433v-.73h.073l.394.73h.5l-.44-.745zm-.278-.278h-.247v-.4h.208c.128 0 .274.015.274.181s-.084.219-.235.219zm75.05-38.686a1.593 1.593 0 101.652 1.594 1.575 1.575 0 00-1.652-1.594zm0 2.729a1.137 1.137 0 111.15-1.135 1.124 1.124 0 01-1.15 1.135z"/><path d="M-8219.389 807.284a.4.4 0 00.413-.451c0-.413-.271-.517-.722-.517h-.649v1.713h.432v-.729h.073l.393.729h.5zm-.278-.278h-.247v-.4h.209c.127 0 .274.016.274.182s-.085.216-.236.216zm-4.924 3.934l2.006-5.265h-22.781l-7.822 9.476 3.611-9.476h-7.562l-11.751 31.588h7.466l5.017-13.209.344 13.209 22.909-.05 2.181-6.076h-8.71l2.862-7.657h7.179l2.209-5.887h-7.179l2.461-6.653h7.561zm-24.065 24.216l-.479-16.463 11.289-12.393-10.81 28.856z"/></g></g></svg>