<svg height="50" width="282" xmlns="http://www.w3.org/2000/svg"><defs><clipPath id="a"><path fill="#fff" transform="translate(-9713 9917)" d="M0 0h38v38H0z"/></clipPath></defs><path fill="#00b67a" d="M0 0h50v50H0z"/><g clip-path="url(#a)" transform="translate(9719 -9911)"><path fill="#fff" d="M-9675 9931.74h-14.511l-4.482-13.816-4.5 13.816-14.507-.016 11.752 8.55-4.5 13.8 11.752-8.534 11.737 8.534-4.482-13.8z"/><path fill="#005128" d="M-9685.73 9943.399l-1.008-3.128-7.255 5.269z"/></g><path fill="#00b67a" d="M58 0h50v50H58z"/><g clip-path="url(#a)" transform="translate(9777 -9911)"><path fill="#fff" d="M-9675 9931.74h-14.511l-4.482-13.816-4.5 13.816-14.507-.016 11.752 8.55-4.5 13.8 11.752-8.534 11.737 8.534-4.482-13.8z"/><path fill="#005128" d="M-9685.73 9943.399l-1.008-3.128-7.255 5.269z"/></g><path fill="#00b67a" d="M116 0h50v50h-50z"/><g clip-path="url(#a)" transform="translate(9835 -9911)"><path fill="#fff" d="M-9675 9931.74h-14.511l-4.482-13.816-4.5 13.816-14.507-.016 11.752 8.55-4.5 13.8 11.752-8.534 11.737 8.534-4.482-13.8z"/><path fill="#005128" d="M-9685.73 9943.399l-1.008-3.128-7.255 5.269z"/></g><path fill="#00b67a" d="M174 0h50v50h-50z"/><g clip-path="url(#a)" transform="translate(9893 -9911)"><path fill="#fff" d="M-9675 9931.74h-14.511l-4.482-13.816-4.5 13.816-14.507-.016 11.752 8.55-4.5 13.8 11.752-8.534 11.737 8.534-4.482-13.8z"/><path fill="#005128" d="M-9685.73 9943.399l-1.008-3.128-7.255 5.269z"/></g><path fill="#00b67a" d="M232 0h50v50h-50z"/><g clip-path="url(#a)" transform="translate(9951 -9911)"><path fill="#fff" d="M-9675 9931.74h-14.511l-4.482-13.816-4.5 13.816-14.507-.016 11.752 8.55-4.5 13.8 11.752-8.534 11.737 8.534-4.482-13.8z"/><path fill="#005128" d="M-9685.73 9943.399l-1.008-3.128-7.255 5.269z"/></g></svg>