<svg xmlns="http://www.w3.org/2000/svg" version="1.1" xmlns:xlink="http://www.w3.org/1999/xlink" xmlns:svgjs="http://svgjs.dev/svgjs" width="1440" height="120" preserveAspectRatio="none" viewBox="0 0 1440 120"><g mask="url(&quot;#SvgjsMask7613&quot;)" fill="none"><path d="M644.92 38.74a5.6 5.6 0 1 0 4.21 10.38 5.6 5.6 0 1 0-4.21-10.38zM650.93 53.57a5.6 5.6 0 1 0 4.21 10.38 5.6 5.6 0 1 0-4.21-10.38zM656.94 68.4a5.6 5.6 0 1 0 4.21 10.38 5.6 5.6 0 1 0-4.21-10.38zM662.95 83.22a5.6 5.6 0 1 0 4.21 10.38 5.6 5.6 0 1 0-4.21-10.38z" fill="rgba(0, 0, 0, 1)"></path><rect width="125.4" height="125.4" clip-path="url(&quot;#SvgjsClipPath7614&quot;)" x="1365.94" y="-42.13" fill="url(&quot;#SvgjsPattern7615&quot;)" transform="rotate(113.34, 1428.64, 20.57)"></rect><path d="M1032.05 26.87L1044.33 23.24 1050.56 34.43 1062.85 30.8 1069.08 41.98 1081.36 38.35 1087.6 49.54" stroke="rgba(0, 0, 0, 1)" stroke-width="1"></path><path d="M25.939999999999998 44.540000000000006 L41.04 34.33L46.011273543370095 51.9562735433701z" stroke="rgba(255, 110, 109, 1)" stroke-width="1.8"></path><rect width="90.39999999999999" height="90.39999999999999" clip-path="url(&quot;#SvgjsClipPath7616&quot;)" x="1115.23" y="-0.9" fill="url(&quot;#SvgjsPattern7617&quot;)" transform="rotate(34.49, 1160.43, 44.3)"></rect><rect width="60" height="60" clip-path="url(&quot;#SvgjsClipPath7618&quot;)" x="398.55" y="-20.77" fill="url(&quot;#SvgjsPattern7619&quot;)" transform="rotate(232.25, 428.55, 9.23)"></rect><path d="M298.19 107L310.84 109 311.66 121.78 324.31 123.79 325.13 136.57 337.78 138.57 338.6 151.35" stroke="rgba(98, 83, 255, 1)" stroke-width="1.13" stroke-dasharray="2, 2"></path><rect width="84.72" height="84.72" clip-path="url(&quot;#SvgjsClipPath7620&quot;)" x="1379.86" y="-40.32" fill="url(&quot;#SvgjsPattern7621&quot;)" transform="rotate(89.46, 1422.22, 2.04)"></rect><path d="M153.44 91.15L140.98 94.12 135.35 82.62 122.89 85.58 117.26 74.08 104.81 77.05 99.18 65.55M156.85 83.92L144.39 86.88 138.76 75.38 126.31 78.35 120.68 66.85 108.22 69.81 102.59 58.31" stroke="rgba(98, 83, 255, 1)" stroke-width="2.57" stroke-dasharray="3, 2"></path><path d="M46.22 67.57 L37.95 67.68L37.33168882770435 62.87168882770435z" fill="rgba(98, 83, 255, 1)"></path><rect width="60" height="60" clip-path="url(&quot;#SvgjsClipPath7622&quot;)" x="592.19" y="23.71" fill="url(&quot;#SvgjsPattern7623&quot;)" transform="rotate(328.84, 622.19, 53.71)"></rect><rect width="60" height="60" clip-path="url(&quot;#SvgjsClipPath7624&quot;)" x="837.1" y="44.82" fill="url(&quot;#SvgjsPattern7625&quot;)" transform="rotate(237.21, 867.1, 74.82)"></rect><path d="M1229.91 4.87L1240.56 11.99 1235.95 23.94 1246.6 31.05 1241.99 43 1252.64 50.12 1248.03 62.07M1222.28 7.29L1232.93 14.4 1228.32 26.35 1238.97 33.47 1234.36 45.42 1245.01 52.53 1240.41 64.48M1214.66 9.7L1225.3 16.82 1220.7 28.77 1231.34 35.89 1226.74 47.83 1237.38 54.95 1232.78 66.9" stroke="rgba(0, 0, 0, 1)" stroke-width="1" stroke-dasharray="3, 2"></path><path d="M648.71 90.64 L644.3299999999999 82.36999999999999L652.5543300704347 80.47066992956526z" fill="rgba(255, 110, 109, 1)"></path><circle r="16.85066340200297" cx="549.7" cy="110.06" fill="rgba(255, 110, 109, 1)"></circle><rect width="77" height="77" clip-path="url(&quot;#SvgjsClipPath7626&quot;)" x="66.52" y="2.26" fill="url(&quot;#SvgjsPattern7627&quot;)" transform="rotate(291.03, 105.02, 40.76)"></rect><path d="M832.2099999999999 144.82 L828.86 134.57999999999998L824.2919157120507 145.94308428794926z" stroke="rgba(98, 83, 255, 1)" stroke-width="1.23"></path><circle r="10" cx="1379.32" cy="44.03" stroke="rgba(98, 83, 255, 1)" stroke-width="2.95" stroke-dasharray="2, 2"></circle><path d="M1459.4399999999998 117.93 L1459.08 118.08L1459.493686916837 118.23868691683735z" fill="rgba(0, 0, 0, 1)"></path><rect width="72" height="72" clip-path="url(&quot;#SvgjsClipPath7628&quot;)" x="171.72" y="8.09" fill="url(&quot;#SvgjsPattern7629&quot;)" transform="rotate(185.28, 207.72, 44.09)"></rect><path d="M1039.71-1.91L1033.78 9.44 1021.4 6.15 1015.47 17.5 1003.1 14.21 997.17 25.56 984.8 22.27M1036.48-9.24L1030.55 2.12 1018.18-1.17 1012.25 10.18 999.87 6.89 993.95 18.24 981.57 14.95" stroke="rgba(255, 110, 109, 1)" stroke-width="1.42" stroke-dasharray="2, 2"></path><rect width="89.8" height="89.8" clip-path="url(&quot;#SvgjsClipPath7630&quot;)" x="112.94" y="-29.17" fill="url(&quot;#SvgjsPattern7631&quot;)" transform="rotate(197.91, 157.84, 15.73)"></rect><circle r="11.669229182535885" cx="363.49" cy="107.28" fill="rgba(255, 110, 109, 1)"></circle><rect width="60" height="60" clip-path="url(&quot;#SvgjsClipPath7632&quot;)" x="1285.77" y="81.39" fill="url(&quot;#SvgjsPattern7633&quot;)" transform="rotate(123.91, 1315.77, 111.39)"></rect><rect width="60" height="60" clip-path="url(&quot;#SvgjsClipPath7634&quot;)" x="1047.19" y="48.62" fill="url(&quot;#SvgjsPattern7635&quot;)" transform="rotate(36.93, 1077.19, 78.62)"></rect><rect width="120.4" height="120.4" clip-path="url(&quot;#SvgjsClipPath7636&quot;)" x="384.65" y="43.57" fill="url(&quot;#SvgjsPattern7637&quot;)" transform="rotate(337.97, 444.85, 103.77)"></rect><rect width="117.8" height="117.8" clip-path="url(&quot;#SvgjsClipPath7638&quot;)" x="330.34" y="-36.05" fill="url(&quot;#SvgjsPattern7639&quot;)" transform="rotate(298.76, 389.24, 22.85)"></rect><path d="M83.57 103.16a5.6 5.6 0 1 0 9.87-5.29 5.6 5.6 0 1 0-9.87 5.29zM97.67 95.6a5.6 5.6 0 1 0 9.87-5.29 5.6 5.6 0 1 0-9.87 5.29zM111.77 88.05a5.6 5.6 0 1 0 9.87-5.29 5.6 5.6 0 1 0-9.87 5.29zM125.87 80.49a5.6 5.6 0 1 0 9.88-5.29 5.6 5.6 0 1 0-9.88 5.29zM62.92 132.38a5.6 5.6 0 1 0 9.87-5.29 5.6 5.6 0 1 0-9.87 5.29zM77.02 124.82a5.6 5.6 0 1 0 9.88-5.29 5.6 5.6 0 1 0-9.88 5.29zM91.13 117.27a5.6 5.6 0 1 0 9.87-5.3 5.6 5.6 0 1 0-9.87 5.3zM105.23 109.71a5.6 5.6 0 1 0 9.87-5.29 5.6 5.6 0 1 0-9.87 5.29z" stroke="rgba(98, 83, 255, 1)" stroke-width="1" stroke-dasharray="2, 2"></path><rect width="103.6" height="103.6" clip-path="url(&quot;#SvgjsClipPath7640&quot;)" x="539.07" y="33.94" fill="url(&quot;#SvgjsPattern7641&quot;)" transform="rotate(10.09, 590.87, 85.74)"></rect><path d="M1285.38 26.29 L1299.44 14.36L1281.5234473776566 9.438447377656576z" fill="rgba(0, 0, 0, 1)"></path><rect width="95.2" height="95.2" clip-path="url(&quot;#SvgjsClipPath7642&quot;)" x="690.54" y="9.57" fill="url(&quot;#SvgjsPattern7643&quot;)" transform="rotate(194.12, 738.14, 57.17)"></rect><rect width="76.4" height="76.4" clip-path="url(&quot;#SvgjsClipPath7644&quot;)" x="186.22" y="16.31" fill="url(&quot;#SvgjsPattern7645&quot;)" transform="rotate(180.63, 224.42, 54.51)"></rect><path d="M95.57 51.56 L130.65 46.64L93.78647577885332 29.776475778853317z" fill="rgba(255, 110, 109, 1)"></path><rect width="64.6" height="64.6" clip-path="url(&quot;#SvgjsClipPath7646&quot;)" x="881.12" y="-27.88" fill="url(&quot;#SvgjsPattern7647&quot;)" transform="rotate(279.41, 913.42, 4.42)"></rect><path d="M1025.1399999999999 115.42 L1030.72 103.48L1033.5144129140594 115.03441291405967z" fill="rgba(255, 110, 109, 1)"></path><rect width="104.4" height="104.4" clip-path="url(&quot;#SvgjsClipPath7648&quot;)" x="671.59" y="25.93" fill="url(&quot;#SvgjsPattern7649&quot;)" transform="rotate(255.09, 723.79, 78.13)"></rect><path d="M1199.15 59.77L1191.08 49.83 1199.01 39.77 1190.94 29.83 1198.87 19.77 1190.79 9.83 1198.72-0.22M1207.15 59.72L1199.08 49.77 1207.01 39.72 1198.94 29.77 1206.86 19.72 1198.79 9.77 1206.72-0.28" stroke="rgba(98, 83, 255, 1)" stroke-width="1.64" stroke-dasharray="4, 4"></path><rect width="60" height="60" clip-path="url(&quot;#SvgjsClipPath7650&quot;)" x="1228.54" y="73.62" fill="url(&quot;#SvgjsPattern7651&quot;)" transform="rotate(123.26, 1258.54, 103.62)"></rect><circle r="18.312763614069024" cx="852.57" cy="59.24" stroke="rgba(0, 0, 0, 1)" stroke-width="1.13" stroke-dasharray="3, 2"></circle><rect width="110.19999999999999" height="110.19999999999999" clip-path="url(&quot;#SvgjsClipPath7652&quot;)" x="1201.4" y="-6.07" fill="url(&quot;#SvgjsPattern7653&quot;)" transform="rotate(342.57, 1256.5, 49.03)"></rect><rect width="60" height="60" clip-path="url(&quot;#SvgjsClipPath7654&quot;)" x="1302.86" y="68.89" fill="url(&quot;#SvgjsPattern7655&quot;)" transform="rotate(235.2, 1332.86, 98.89)"></rect><rect width="60" height="60" clip-path="url(&quot;#SvgjsClipPath7656&quot;)" x="1291.53" y="42.47" fill="url(&quot;#SvgjsPattern7657&quot;)" transform="rotate(175.72, 1321.53, 72.47)"></rect><path d="M908.2 14.07L911.88 26.34 900.71 32.61 904.38 44.88 893.22 51.16 896.89 63.42 885.73 69.7M900.79 11.07L904.46 23.34 893.29 29.62 896.97 41.88 885.8 48.16 889.47 60.43 878.31 66.7M893.37 8.08L897.04 20.34 885.88 26.62 889.55 38.89 878.38 45.16 882.06 57.43 870.89 63.71" stroke="rgba(0, 0, 0, 1)" stroke-width="1" stroke-dasharray="3, 3"></path><rect width="60" height="60" clip-path="url(&quot;#SvgjsClipPath7658&quot;)" x="44.9" y="22.37" fill="url(&quot;#SvgjsPattern7659&quot;)" transform="rotate(5.62, 74.9, 52.37)"></rect><circle r="10" cx="1260.04" cy="26" stroke="rgba(0, 0, 0, 1)" stroke-width="2.46" stroke-dasharray="3, 2"></circle><path d="M161.21 39.26L162.44 26.51 175.15 24.92 176.39 12.17 189.09 10.58 190.33-2.17 203.04-3.76M166.94 44.83L168.18 32.09 180.88 30.49 182.12 17.75 194.83 16.16 196.06 3.41 208.77 1.82M172.68 50.41L173.91 37.66 186.62 36.07 187.86 23.33 200.56 21.73 201.8 8.99 214.51 7.4" stroke="rgba(0, 0, 0, 1)" stroke-width="1.67" stroke-dasharray="2, 2"></path><rect width="60" height="60" clip-path="url(&quot;#SvgjsClipPath7660&quot;)" x="904.49" y="21.18" fill="url(&quot;#SvgjsPattern7661&quot;)" transform="rotate(68.41, 934.49, 51.18)"></rect><path d="M751.89 63.2a5.6 5.6 0 1 0-10.52-3.82 5.6 5.6 0 1 0 10.52 3.82zM736.86 57.74a5.6 5.6 0 1 0-10.53-3.83 5.6 5.6 0 1 0 10.53 3.83zM721.82 52.28a5.6 5.6 0 1 0-10.53-3.83 5.6 5.6 0 1 0 10.53 3.83zM706.78 46.81a5.6 5.6 0 1 0-10.53-3.82 5.6 5.6 0 1 0 10.53 3.82zM787.43 59.09a5.6 5.6 0 1 0-10.52-3.82 5.6 5.6 0 1 0 10.52 3.82zM772.4 53.63a5.6 5.6 0 1 0-10.53-3.82 5.6 5.6 0 1 0 10.53 3.82zM757.36 48.17a5.6 5.6 0 1 0-10.53-3.83 5.6 5.6 0 1 0 10.53 3.83zM742.32 42.7a5.6 5.6 0 1 0-10.53-3.82 5.6 5.6 0 1 0 10.53 3.82zM822.97 54.99a5.6 5.6 0 1 0-10.52-3.83 5.6 5.6 0 1 0 10.52 3.83zM807.94 49.52a5.6 5.6 0 1 0-10.53-3.82 5.6 5.6 0 1 0 10.53 3.82zM792.9 44.06a5.6 5.6 0 1 0-10.53-3.83 5.6 5.6 0 1 0 10.53 3.83zM777.86 38.59a5.6 5.6 0 1 0-10.53-3.82 5.6 5.6 0 1 0 10.53 3.82z" fill="rgba(98, 83, 255, 1)"></path><path d="M972.92 108.23L966.72 119.43 954.42 115.84 948.22 127.05 935.93 123.46 929.73 134.67 917.44 131.08" stroke="rgba(255, 110, 109, 1)" stroke-width="1.27" stroke-dasharray="3, 3"></path><path d="M74.34 36.66 L57.46 34.57L76.8478121477666 24.66718785223339z" fill="rgba(98, 83, 255, 1)"></path><circle r="16.037718680512224" cx="410.8" cy="22.42" stroke="rgba(0, 0, 0, 1)" stroke-width="1.36" stroke-dasharray="4, 4"></circle><rect width="98.4" height="98.4" clip-path="url(&quot;#SvgjsClipPath7662&quot;)" x="1247.57" y="-1.43" fill="url(&quot;#SvgjsPattern7663&quot;)" transform="rotate(348.49, 1296.77, 47.77)"></rect><rect width="86" height="86" clip-path="url(&quot;#SvgjsClipPath7664&quot;)" x="867.14" y="28.81" fill="url(&quot;#SvgjsPattern7665&quot;)" transform="rotate(116.2, 910.14, 71.81)"></rect><rect width="123" height="123" clip-path="url(&quot;#SvgjsClipPath7666&quot;)" x="148.41" y="34.41" fill="url(&quot;#SvgjsPattern7667&quot;)" transform="rotate(231.52, 209.91, 95.91)"></rect></g><defs><mask id="SvgjsMask7613"><rect width="1440" height="120" fill="#ffffff"></rect></mask><pattern x="0" y="0" width="125.4" height="12.54" patternUnits="userSpaceOnUse" id="SvgjsPattern7615"><rect width="125.4" height="6.27" x="0" y="0" fill="rgba(0, 0, 0, 1)"></rect><rect width="125.4" height="6.27" x="0" y="6.27" fill="rgba(0, 0, 0, 0)"></rect></pattern><clipPath id="SvgjsClipPath7614"><circle r="31.35" cx="1428.64" cy="20.57"></circle></clipPath><pattern x="0" y="0" width="9.04" height="9.04" patternUnits="userSpaceOnUse" id="SvgjsPattern7617"><path d="M0 9.04L4.52 0L9.04 9.04" stroke="rgba(255, 110, 109, 1)" fill="none"></path></pattern><clipPath id="SvgjsClipPath7616"><circle r="22.599999999999998" cx="1160.43" cy="44.3"></circle></clipPath><pattern x="0" y="0" width="6" height="6" patternUnits="userSpaceOnUse" id="SvgjsPattern7619"><path d="M0 6L3 0L6 6" stroke="rgba(0, 0, 0, 1)" fill="none"></path></pattern><clipPath id="SvgjsClipPath7618"><circle r="15" cx="428.55" cy="9.23"></circle></clipPath><pattern x="0" y="0" width="7.06" height="7.06" patternUnits="userSpaceOnUse" id="SvgjsPattern7621"><path d="M3.53 1L3.53 6.06M1 3.53L6.06 3.53" stroke="rgba(98, 83, 255, 1)" fill="none" stroke-width="2.02"></path></pattern><clipPath id="SvgjsClipPath7620"><circle r="21.18" cx="1422.22" cy="2.04"></circle></clipPath><pattern x="0" y="0" width="6" height="6" patternUnits="userSpaceOnUse" id="SvgjsPattern7623"><path d="M3 1L3 5M1 3L5 3" stroke="rgba(255, 110, 109, 1)" fill="none" stroke-width="1.22"></path></pattern><clipPath id="SvgjsClipPath7622"><circle r="15" cx="622.19" cy="53.71"></circle></clipPath><pattern x="0" y="0" width="60" height="6" patternUnits="userSpaceOnUse" id="SvgjsPattern7625"><rect width="60" height="3" x="0" y="0" fill="rgba(98, 83, 255, 1)"></rect><rect width="60" height="3" x="0" y="3" fill="rgba(0, 0, 0, 0)"></rect></pattern><clipPath id="SvgjsClipPath7624"><circle r="15" cx="867.1" cy="74.82"></circle></clipPath><pattern x="0" y="0" width="7.7" height="7.7" patternUnits="userSpaceOnUse" id="SvgjsPattern7627"><path d="M3.85 1L3.85 6.7M1 3.85L6.7 3.85" stroke="rgba(0, 0, 0, 1)" fill="none" stroke-width="2.55"></path></pattern><clipPath id="SvgjsClipPath7626"><circle r="19.25" cx="105.02" cy="40.76"></circle></clipPath><pattern x="0" y="0" width="6" height="6" patternUnits="userSpaceOnUse" id="SvgjsPattern7629"><path d="M0 6L3 0L6 6" stroke="rgba(255, 110, 109, 1)" fill="none"></path></pattern><clipPath id="SvgjsClipPath7628"><circle r="18" cx="207.72" cy="44.09"></circle></clipPath><pattern x="0" y="0" width="8.98" height="8.98" patternUnits="userSpaceOnUse" id="SvgjsPattern7631"><path d="M4.49 1L4.49 7.98M1 4.49L7.98 4.49" stroke="rgba(0, 0, 0, 1)" fill="none" stroke-width="2.34"></path></pattern><clipPath id="SvgjsClipPath7630"><circle r="22.45" cx="157.84" cy="15.73"></circle></clipPath><pattern x="0" y="0" width="6" height="6" patternUnits="userSpaceOnUse" id="SvgjsPattern7633"><path d="M3 1L3 5M1 3L5 3" stroke="rgba(255, 110, 109, 1)" fill="none" stroke-width="1.79"></path></pattern><clipPath id="SvgjsClipPath7632"><circle r="15" cx="1315.77" cy="111.39"></circle></clipPath><pattern x="0" y="0" width="6" height="6" patternUnits="userSpaceOnUse" id="SvgjsPattern7635"><path d="M0 6L3 0L6 6" stroke="rgba(255, 110, 109, 1)" fill="none"></path></pattern><clipPath id="SvgjsClipPath7634"><circle r="15" cx="1077.19" cy="78.62"></circle></clipPath><pattern x="0" y="0" width="120.4" height="12.04" patternUnits="userSpaceOnUse" id="SvgjsPattern7637"><rect width="120.4" height="6.02" x="0" y="0" fill="rgba(255, 110, 109, 1)"></rect><rect width="120.4" height="6.02" x="0" y="6.02" fill="rgba(0, 0, 0, 0)"></rect></pattern><clipPath id="SvgjsClipPath7636"><circle r="30.1" cx="444.85" cy="103.77"></circle></clipPath><pattern x="0" y="0" width="11.78" height="11.78" patternUnits="userSpaceOnUse" id="SvgjsPattern7639"><path d="M0 11.78L5.89 0L11.78 11.78" stroke="rgba(255, 110, 109, 1)" fill="none"></path></pattern><clipPath id="SvgjsClipPath7638"><circle r="29.45" cx="389.24" cy="22.85"></circle></clipPath><pattern x="0" y="0" width="103.6" height="10.36" patternUnits="userSpaceOnUse" id="SvgjsPattern7641"><rect width="103.6" height="5.18" x="0" y="0" fill="rgba(255, 110, 109, 1)"></rect><rect width="103.6" height="5.18" x="0" y="5.18" fill="rgba(0, 0, 0, 0)"></rect></pattern><clipPath id="SvgjsClipPath7640"><circle r="25.9" cx="590.87" cy="85.74"></circle></clipPath><pattern x="0" y="0" width="95.2" height="9.52" patternUnits="userSpaceOnUse" id="SvgjsPattern7643"><rect width="95.2" height="4.76" x="0" y="0" fill="rgba(255, 110, 109, 1)"></rect><rect width="95.2" height="4.76" x="0" y="4.76" fill="rgba(0, 0, 0, 0)"></rect></pattern><clipPath id="SvgjsClipPath7642"><circle r="23.8" cx="738.14" cy="57.17"></circle></clipPath><pattern x="0" y="0" width="7.64" height="7.64" patternUnits="userSpaceOnUse" id="SvgjsPattern7645"><path d="M3.82 1L3.82 6.64M1 3.82L6.64 3.82" stroke="rgba(0, 0, 0, 1)" fill="none" stroke-width="1.28"></path></pattern><clipPath id="SvgjsClipPath7644"><circle r="19.1" cx="224.42" cy="54.51"></circle></clipPath><pattern x="0" y="0" width="6.46" height="6.46" patternUnits="userSpaceOnUse" id="SvgjsPattern7647"><path d="M0 6.46L3.23 0L6.46 6.46" stroke="rgba(98, 83, 255, 1)" fill="none"></path></pattern><clipPath id="SvgjsClipPath7646"><circle r="16.15" cx="913.42" cy="4.42"></circle></clipPath><pattern x="0" y="0" width="104.4" height="10.44" patternUnits="userSpaceOnUse" id="SvgjsPattern7649"><rect width="104.4" height="5.22" x="0" y="0" fill="rgba(98, 83, 255, 1)"></rect><rect width="104.4" height="5.22" x="0" y="5.22" fill="rgba(0, 0, 0, 0)"></rect></pattern><clipPath id="SvgjsClipPath7648"><circle r="26.1" cx="723.79" cy="78.13"></circle></clipPath><pattern x="0" y="0" width="60" height="6" patternUnits="userSpaceOnUse" id="SvgjsPattern7651"><rect width="60" height="3" x="0" y="0" fill="rgba(98, 83, 255, 1)"></rect><rect width="60" height="3" x="0" y="3" fill="rgba(0, 0, 0, 0)"></rect></pattern><clipPath id="SvgjsClipPath7650"><circle r="15" cx="1258.54" cy="103.62"></circle></clipPath><pattern x="0" y="0" width="11.02" height="11.02" patternUnits="userSpaceOnUse" id="SvgjsPattern7653"><path d="M0 11.02L5.51 0L11.02 11.02" stroke="rgba(98, 83, 255, 1)" fill="none"></path></pattern><clipPath id="SvgjsClipPath7652"><circle r="27.549999999999997" cx="1256.5" cy="49.03"></circle></clipPath><pattern x="0" y="0" width="6" height="6" patternUnits="userSpaceOnUse" id="SvgjsPattern7655"><path d="M3 1L3 5M1 3L5 3" stroke="rgba(0, 0, 0, 1)" fill="none" stroke-width="1.55"></path></pattern><clipPath id="SvgjsClipPath7654"><circle r="15" cx="1332.86" cy="98.89"></circle></clipPath><pattern x="0" y="0" width="6" height="6" patternUnits="userSpaceOnUse" id="SvgjsPattern7657"><path d="M0 6L3 0L6 6" stroke="rgba(0, 0, 0, 1)" fill="none"></path></pattern><clipPath id="SvgjsClipPath7656"><circle r="15" cx="1321.53" cy="72.47"></circle></clipPath><pattern x="0" y="0" width="6" height="6" patternUnits="userSpaceOnUse" id="SvgjsPattern7659"><path d="M3 1L3 5M1 3L5 3" stroke="rgba(0, 0, 0, 1)" fill="none" stroke-width="1.98"></path></pattern><clipPath id="SvgjsClipPath7658"><circle r="15" cx="74.9" cy="52.37"></circle></clipPath><pattern x="0" y="0" width="60" height="6" patternUnits="userSpaceOnUse" id="SvgjsPattern7661"><rect width="60" height="3" x="0" y="0" fill="rgba(0, 0, 0, 1)"></rect><rect width="60" height="3" x="0" y="3" fill="rgba(0, 0, 0, 0)"></rect></pattern><clipPath id="SvgjsClipPath7660"><circle r="15" cx="934.49" cy="51.18"></circle></clipPath><pattern x="0" y="0" width="9.84" height="9.84" patternUnits="userSpaceOnUse" id="SvgjsPattern7663"><path d="M0 9.84L4.92 0L9.84 9.84" stroke="rgba(0, 0, 0, 1)" fill="none"></path></pattern><clipPath id="SvgjsClipPath7662"><circle r="24.6" cx="1296.77" cy="47.77"></circle></clipPath><pattern x="0" y="0" width="86" height="8.6" patternUnits="userSpaceOnUse" id="SvgjsPattern7665"><rect width="86" height="4.3" x="0" y="0" fill="rgba(255, 110, 109, 1)"></rect><rect width="86" height="4.3" x="0" y="4.3" fill="rgba(0, 0, 0, 0)"></rect></pattern><clipPath id="SvgjsClipPath7664"><circle r="21.5" cx="910.14" cy="71.81"></circle></clipPath><pattern x="0" y="0" width="12.3" height="12.3" patternUnits="userSpaceOnUse" id="SvgjsPattern7667"><path d="M6.15 1L6.15 11.3M1 6.15L11.3 6.15" stroke="rgba(255, 110, 109, 1)" fill="none" stroke-width="2.31"></path></pattern><clipPath id="SvgjsClipPath7666"><circle r="30.75" cx="209.91" cy="95.91"></circle></clipPath></defs></svg>