<svg xmlns="http://www.w3.org/2000/svg" xmlns:xlink="http://www.w3.org/1999/xlink" width="160" height="160" viewBox="0 0 160 160">
  <defs>
    <clipPath id="clip-path">
      <rect id="Rectangle_76" data-name="Rectangle 76" width="160" height="160" transform="translate(-16011 6432)" fill="#fff" stroke="#707070" stroke-width="1"/>
    </clipPath>
  </defs>
  <g id="Groupe_de_masques_13" data-name="Groupe de masques 13" transform="translate(16011 -6432)" clip-path="url(#clip-path)">
    <g id="fff234442722ba2c236d8f94dd8beb02" transform="translate(-16010.972 6432.02)">
      <path id="Tracé_93" data-name="Tracé 93" d="M113.348,92.689l18.373,56.393-20.6-6.449L98.3,159.98,81.29,107.774M45.207,93.913,28.259,149.082l20.6-6.449L61.68,159.98l15.9-51.944" fill="#ff8a65"/>
      <path id="Tracé_94" data-name="Tracé 94" d="M85.077,4l4.7-2.662A10.324,10.324,0,0,1,104,5.512l2.5,4.787a10.324,10.324,0,0,0,8.549,5.5l5.4.3a10.324,10.324,0,0,1,9.7,11.249l-.462,5.387a10.324,10.324,0,0,0,4.224,9.249l4.374,3.175A10.324,10.324,0,0,1,140.4,59.818l-3.3,4.274a10.324,10.324,0,0,0-1.45,10.061l1.962,5a10.324,10.324,0,0,1-6.149,13.473l-5.087,1.812a10.324,10.324,0,0,0-6.662,7.687l-1.062,5.3a10.324,10.324,0,0,1-12.5,8.012l-5.262-1.25a10.324,10.324,0,0,0-9.761,2.862l-3.75,3.875a10.324,10.324,0,0,1-14.811,0l-3.75-3.875a10.324,10.324,0,0,0-9.761-2.862l-5.262,1.25a10.324,10.324,0,0,1-12.5-8.012l-1.062-5.3a10.324,10.324,0,0,0-6.662-7.687l-5.087-1.812a10.324,10.324,0,0,1-6.149-13.473l1.962-5a10.324,10.324,0,0,0-1.45-10.061l-3.3-4.274A10.324,10.324,0,0,1,21.66,45.157l4.374-3.175a10.324,10.324,0,0,0,4.224-9.249L29.8,27.347A10.324,10.324,0,0,1,39.5,16.1l5.4-.3a10.324,10.324,0,0,0,8.549-5.5l2.5-4.787A10.324,10.324,0,0,1,70.2,1.337L74.9,4A10.324,10.324,0,0,0,85.077,4Z" fill="#ffe082"/>
      <circle id="Ellipse_26" data-name="Ellipse 26" cx="25.684" cy="25.684" r="25.684" transform="translate(54.306 36.358)" fill="#fff"/>
      <path id="Tracé_95" data-name="Tracé 95" d="M79.99,36.358A25.684,25.684,0,1,1,54.306,62.042,25.684,25.684,0,0,1,79.99,36.358m0-10a35.683,35.683,0,1,0,35.683,35.683A35.683,35.683,0,0,0,79.99,26.359Z" fill="#ffb74d"/>
    </g>
  </g>
</svg>
