<svg xmlns="http://www.w3.org/2000/svg" xmlns:xlink="http://www.w3.org/1999/xlink" width="160" height="160" viewBox="0 0 160 160">
  <defs>
    <clipPath id="clip-path">
      <rect id="Rectangle_75" data-name="Rectangle 75" width="160" height="160" transform="translate(-15725 6538)" fill="#fff" stroke="#707070" stroke-width="1" opacity="0.6"/>
    </clipPath>
  </defs>
  <g id="Groupe_de_masques_12" data-name="Groupe de masques 12" transform="translate(15725 -6538)" clip-path="url(#clip-path)">
    <g id="_381ea78a11e0149845463c0cd111aff6" data-name="381ea78a11e0149845463c0cd111aff6" transform="translate(-15750.807 6512.193)">
      <path id="Tracé_79" data-name="Tracé 79" d="M98.065,99.785H39.57a13.764,13.764,0,0,0-13.763,13.763v58.495A13.764,13.764,0,0,0,39.57,185.806H98.065a13.764,13.764,0,0,0,13.763-13.763V113.548A13.764,13.764,0,0,0,98.065,99.785Z" fill="#df9410"/>
      <path id="Tracé_80" data-name="Tracé 80" d="M91.183,99.785a13.764,13.764,0,0,1,13.763,13.763v58.495a13.764,13.764,0,0,1-13.763,13.763h6.882a13.764,13.764,0,0,0,13.763-13.763V113.548A13.764,13.764,0,0,0,98.065,99.785Z" fill="#cd8505" fill-rule="evenodd"/>
      <path id="Tracé_81" data-name="Tracé 81" d="M111.828,165.161H25.806v6.882A13.764,13.764,0,0,0,39.57,185.806H98.065a13.764,13.764,0,0,0,13.763-13.763Z" fill="#f2b549"/>
      <path id="Tracé_82" data-name="Tracé 82" d="M91.183,185.806h6.882a13.764,13.764,0,0,0,13.763-13.763v-6.882h-6.882v6.882A13.764,13.764,0,0,1,91.183,185.806Z" fill="#f1a928" fill-rule="evenodd"/>
      <path id="Tracé_83" data-name="Tracé 83" d="M87.742,99.785H58.495v13.763a6.882,6.882,0,0,0,6.882,6.882H80.86a6.882,6.882,0,0,0,6.882-6.882Z" fill="#c8720a"/>
      <path id="Tracé_84" data-name="Tracé 84" d="M84.3,99.785H53.333v10.323a6.882,6.882,0,0,0,6.882,6.882h17.2a6.882,6.882,0,0,0,6.882-6.882Z" fill="#f3dace"/>
      <path id="Tracé_85" data-name="Tracé 85" d="M73.251,30.35c-4.434,4.544-4.434,11.857-4.434,26.483s0,21.939,4.434,26.483S84.822,87.859,99.1,87.859a2.365,2.365,0,0,1,1.837,1.216l.015.022,2.606,3.855a3.734,3.734,0,0,0,6.223,0l2.606-3.855.015-.022a2.365,2.365,0,0,1,1.837-1.216c14.274,0,21.411,0,25.844-4.544s4.435-11.855,4.435-26.483,0-21.939-4.434-26.483-11.572-4.544-25.846-4.544H99.1C84.822,25.806,77.686,25.806,73.251,30.35Z" fill="#41d272" fill-rule="evenodd"/>
      <path id="Tracé_86" data-name="Tracé 86" d="M104.086,93.585a3.731,3.731,0,0,0,5.691-.631l2.606-3.855.015-.022a2.365,2.365,0,0,1,1.837-1.216c14.274,0,21.411,0,25.844-4.544s4.435-11.855,4.435-26.483,0-21.939-4.434-26.483-11.572-4.544-25.846-4.544h-5.161c14.274,0,21.411,0,25.844,4.544s4.435,11.857,4.435,26.483,0,21.939-4.434,26.483-11.572,4.544-25.844,4.544a2.365,2.365,0,0,0-1.837,1.216l-.015.022-2.606,3.855A3.908,3.908,0,0,1,104.086,93.585Z" fill="#29b258" fill-rule="evenodd"/>
      <path id="Tracé_87" data-name="Tracé 87" d="M118.5,49.684a5.162,5.162,0,1,1,7.3,7.3L110.317,72.468a5.161,5.161,0,0,1-7.3,0L92.7,62.145a5.162,5.162,0,0,1,7.3-7.3l5.457,5.457a1.722,1.722,0,0,0,2.433,0Z" fill="#3fcb6f" fill-rule="evenodd"/>
      <path id="Tracé_88" data-name="Tracé 88" d="M116.781,46.243a5.162,5.162,0,0,1,7.3,7.3L108.6,69.027a5.161,5.161,0,0,1-7.3,0L90.975,58.7a5.162,5.162,0,0,1,7.3-7.3l5.457,5.457a1.722,1.722,0,0,0,2.433,0Z" fill="#f8e6e4" fill-rule="evenodd"/>
      <path id="Tracé_89" data-name="Tracé 89" d="M172.043,110.108H123.871a13.764,13.764,0,0,0-13.763,13.763v48.172a13.764,13.764,0,0,0,13.763,13.763h48.172a13.764,13.764,0,0,0,13.763-13.763V123.871A13.764,13.764,0,0,0,172.043,110.108Z" fill="#df9410"/>
      <path id="Tracé_90" data-name="Tracé 90" d="M185.806,165.161h-75.7v6.882a13.764,13.764,0,0,0,13.763,13.763h48.172a13.764,13.764,0,0,0,13.763-13.763Z" fill="#f2b549"/>
      <path id="Tracé_91" data-name="Tracé 91" d="M165.161,110.108H137.634V120.43a6.882,6.882,0,0,0,6.882,6.882H158.28a6.882,6.882,0,0,0,6.882-6.882Z" fill="#c8720a"/>
      <path id="Tracé_92" data-name="Tracé 92" d="M161.72,110.108H134.194v6.882a6.882,6.882,0,0,0,6.882,6.882h13.763a6.882,6.882,0,0,0,6.882-6.882Z" fill="#f3dace"/>
    </g>
  </g>
</svg>
