<svg xmlns="http://www.w3.org/2000/svg" xmlns:xlink="http://www.w3.org/1999/xlink" width="100" height="100" viewBox="0 0 100 100">
  <defs>
    <clipPath id="clip-path">
      <rect id="Rectangle_77" data-name="Rectangle 77" width="100" height="100" transform="translate(-16285 6466)" fill="#fff"/>
    </clipPath>
  </defs>
  <g id="Groupe_de_masques_14" data-name="Groupe de masques 14" transform="translate(16285 -6466)" clip-path="url(#clip-path)">
    <g id="_2e59f7b2aa30907533f9cc9c4d1c9365" data-name="2e59f7b2aa30907533f9cc9c4d1c9365" transform="translate(-16285 6466)">
      <circle id="Ellipse_27" data-name="Ellipse 27" cx="50" cy="50" r="50" fill="#54acee"/>
      <rect id="Rectangle_78" data-name="Rectangle 78" width="11.25" height="11.25" transform="translate(44.375 39.109)" fill="#47646d"/>
      <path id="Tracé_96" data-name="Tracé 96" d="M26.953,10.922l15.188,29.3H57.687l-15.375-29.3Z" fill="#e5e5e5"/>
      <path id="Tracé_97" data-name="Tracé 97" d="M73.063,10.922l-15.2,29.3H42.313l15.375-29.3Z" fill="#fff"/>
      <path id="Tracé_98" data-name="Tracé 98" d="M72.953,66.609l-2.734,1.875a.656.656,0,0,0-.141.969l2.094,2.563a.656.656,0,0,1-.312,1.047l-3.125,1.031a.656.656,0,0,0-.406.891l1.281,3.125a.656.656,0,0,1-.594.922l-3.312.094a.656.656,0,0,0-.641.734l.375,3.281a.656.656,0,0,1-.828.719l-3.125-.844a.656.656,0,0,0-.812.531l-.563,3.266a.656.656,0,0,1-.984.453l-2.875-1.8a.656.656,0,0,0-.937.281l-1.469,2.969a.656.656,0,0,1-1.078.156l-2.234-2.437a.656.656,0,0,0-.969,0l-2.234,2.438a.656.656,0,0,1-1.078-.156L44.781,85.75a.656.656,0,0,0-.938-.281L41,87.172a.656.656,0,0,1-.984-.453l-.562-3.266a.656.656,0,0,0-.813-.531l-3.2.844a.656.656,0,0,1-.828-.719l.375-3.281a.656.656,0,0,0-.641-.734l-3.312-.094a.656.656,0,0,1-.594-.922l1.281-3.125A.656.656,0,0,0,31.312,74l-3.125-1.031a.656.656,0,0,1-.313-1.047l2.094-2.562a.656.656,0,0,0-.141-.969l-2.734-1.875a.656.656,0,0,1,0-1.094l2.734-1.875a.656.656,0,0,0,.141-.969l-2.156-2.453a.656.656,0,0,1,.312-1.047l3.125-1.031a.656.656,0,0,0,.406-.891l-1.281-3.125a.656.656,0,0,1,.594-.922l3.328.016a.656.656,0,0,0,.641-.734l-.375-3.281a.656.656,0,0,1,.828-.719l3.125.844a.656.656,0,0,0,.813-.531l.563-3.266a.656.656,0,0,1,.984-.453l2.875,1.688a.656.656,0,0,0,.937-.281l1.469-2.969a.656.656,0,0,1,1.078-.156L49.469,45.7a.656.656,0,0,0,.969,0l2.234-2.437a.656.656,0,0,1,1.078.156l1.469,2.969a.656.656,0,0,0,.937.281L59,44.969a.656.656,0,0,1,.984.453l.563,3.266a.656.656,0,0,0,.813.531l3.266-.781a.656.656,0,0,1,.828.719l-.375,3.281a.656.656,0,0,0,.641.734l3.312.094a.656.656,0,0,1,.594.922l-1.281,3.125a.656.656,0,0,0,.406.891l3.125,1.031a.656.656,0,0,1,.313,1.047l-2.094,2.563a.656.656,0,0,0,.141.969l2.734,1.875a.656.656,0,0,1-.016.922Z" fill="#617a87"/>
      <circle id="Ellipse_28" data-name="Ellipse 28" cx="10.547" cy="10.547" r="10.547" transform="translate(39.453 55.766)" fill="#617a87"/>
      <path id="Tracé_99" data-name="Tracé 99" d="M50.344,58.656l1.844,5.656h5.953l-4.812,3.5,1.844,5.672-4.828-3.5-4.812,3.5,1.844-5.672-4.828-3.5H48.5Z" fill="#fff"/>
      <path id="Tracé_100" data-name="Tracé 100" d="M50,55.328A10.938,10.938,0,1,1,39.063,66.266,10.938,10.938,0,0,1,50,55.328m0-4.688A15.625,15.625,0,1,0,65.625,66.266,15.625,15.625,0,0,0,50,50.641Z" fill="#fff"/>
    </g>
  </g>
</svg>
