<svg height="80" width="80" xmlns="http://www.w3.org/2000/svg"><defs><clipPath id="a"><path stroke="#707070" fill="#fff" transform="translate(-6811 965.687)" d="M0 0h38v38H0z"/></clipPath></defs><g clip-path="url(#a)" transform="translate(6832 -944.687)"><g transform="translate(-6811 967.788)"><rect fill="#ecf0f0" rx="2.069" height="28.383" width="38.194"/><path fill="#3b3c3d" d="M1.882 0A1.846 1.846 0 00.55.57 1.983 1.983 0 000 1.95v20.973h38.192V1.951a1.98 1.98 0 00-.549-1.38 1.843 1.843 0 00-1.331-.57H1.882z"/><path fill="#4bb7c0" d="M1.714 1.455h34.769v20.014H1.714z"/><path fill="#3b3c3d" d="M19.887 25.482a.791.791 0 11-.79-.819.8.8 0 01.79.819z"/><path fill="#ecf0f0" d="M14.707 27.893h8.78v4.556h-8.78zm-2.983 5.375v.026a.8.8 0 00.79.818h13.17a.8.8 0 00.79-.818v-.026h-14.75z"/><path stroke-width=".29" stroke-linejoin="round" stroke-linecap="round" stroke="#ecf0f0" fill="none" d="M14.893 31.457a.99.99 0 01-.931.858"/><path fill="#ecf0f0" d="M13.984 32.439l.764-.517.411.517z"/><path stroke-width=".29" stroke-linejoin="round" stroke-linecap="round" stroke="#ecf0f0" fill="none" d="M23.323 31.457a.99.99 0 00.931.858"/><path fill="#ecf0f0" d="M24.232 32.439l-.764-.517-.411.517z"/></g></g></svg>