<svg height="120" width="120" xmlns="http://www.w3.org/2000/svg"><defs><clipPath id="a"><circle stroke="#707070" fill="#fff" transform="translate(-10625 3753)" r="31" cy="31" cx="31"/></clipPath></defs><g clip-path="url(#a)" transform="translate(10654 -3724)" fill-rule="evenodd"><path fill="#b85756" d="M-10563 3784a31 31 0 11-31-31 31 31 0 0131 31"/><path fill="#974d4c" d="M-10594 3807.25s-17.437-6.6-17.437-20.823v-13.197s5.628-6.667 17.437-6.667v40.687m0 0v-40.687c11.809 0 17.438 6.668 17.438 6.668v13.2c0 14.221-17.438 20.819-17.438 20.819"/><path fill="#f0cb83" d="M-10594 3805.313s-17.437-6.6-17.437-20.823v-13.2s5.628-6.665 17.437-6.665v40.688"/><path fill="#d5915b" d="M-10594 3805.313s17.438-6.6 17.438-20.823v-13.2s-5.629-6.665-17.438-6.665v40.688"/></g></svg>