<svg xmlns="http://www.w3.org/2000/svg" xmlns:xlink="http://www.w3.org/1999/xlink" width="300" height="300" viewBox="0 0 300 300">
  <defs>
    <linearGradient id="linear-gradient" x1="0.5" x2="0.5" y2="1" gradientUnits="objectBoundingBox">
      <stop offset="0" stop-color="#ff985a"/>
      <stop offset="1" stop-color="#a76b47"/>
    </linearGradient>
    <clipPath id="clip-path">
      <rect id="Rectangle_3406" data-name="Rectangle 3406" width="168" height="169" transform="translate(-22509 -3143.458)" fill="#fff"/>
    </clipPath>
  </defs>
  <g id="Groupe_3681" data-name="Groupe 3681" transform="translate(23178 3225)">
    <g id="Groupe_3680" data-name="Groupe 3680">
      <path id="Tracé_6749" data-name="Tracé 6749" d="M56,0H244a56,56,0,0,1,56,56V244a56,56,0,0,1-56,56H56A56,56,0,0,1,0,244V56A56,56,0,0,1,56,0Z" transform="translate(-23178 -3225)" fill="url(#linear-gradient)"/>
      <g id="Groupe_de_masques_96" data-name="Groupe de masques 96" transform="translate(-590 -15.542)" clip-path="url(#clip-path)">
        <g id="_5d07f13fe16e9e31fa0ad552dcf01d1b" data-name="5d07f13fe16e9e31fa0ad552dcf01d1b" transform="translate(-22509 -3133.369)">
          <path id="Tracé_6740" data-name="Tracé 6740" d="M126.151,68c4.439-.5,12.654,3.981,16.74,5.733l39.99,17.33c5.335,2.3,11.844,3.781,13.254,10.358.655,3.055.339,9.178.339,12.554,0,7.927-.067,15.855.133,23.78,5.216,1.183,12.631,5.417,16.609,8.966,25.714,22.936,9.668,66.8-24.483,68.485-12.479.617-22.072-2.971-31.293-11.341l-1.153.649c-9.789,4.953-22.946,16.406-34.643,11.558a74.646,74.646,0,0,1-7.387-3.907L73.335,189.591c-3.025-1.685-8.639-3.93-10.921-5.845-6.206-5.207-4.617-16.491-4.616-23.7l0-45.995C57.779,98.356,56.57,97.3,72.616,90.405L85.933,84.6c9.852-4.375,19.728-8.782,29.661-12.968C118.942,70.217,122.479,68.33,126.151,68Z" transform="translate(-57.615 -67.961)"/>
          <path id="Tracé_6741" data-name="Tracé 6741" d="M131.149,90.519c1.781-.209,11.094,4.866,12.959,5.771l12.637,6.061c6.344,3.092,12.784,6,19.11,9.133,5.456,2.7,10.755,5.771,16.336,8.214-2.146.762-10,4.875-11.438,5.015a79.918,79.918,0,0,0-7.967-4.012l-15.867-7.624c-12-5.689-25.416-12.662-37.683-17.535C123.266,94.035,127.116,92.036,131.149,90.519Z" transform="translate(-84.672 -77.843)" fill="#dbcbf1"/>
          <path id="Tracé_6742" data-name="Tracé 6742" d="M131.359,74.449c3.849-.464,10.649,3.3,14.138,4.862L182.34,95.292c3.289,1.438,10.393,4.037,12.733,6.063-1.626,1.26-4.575,2.253-6.509,3.1L176.9,109.619l-2.595,1.2a75.5,75.5,0,0,1-7.107-3.424l-13.028-6.646c-13.129-6.587-26.642-13.182-39.973-19.393C116.552,79.891,128.677,74.925,131.359,74.449ZM93.76,90.4l46.4,21.606c5.029,2.349,9.852,5.1,14.956,7.3-3.856,1.346-21.271,10.18-23.6,9.683-2.93-1.013-5.76-2.476-8.584-3.759L88.845,109.786c-6.424-2.839-12.618-5.728-19.131-8.477C75.026,97.64,87.5,93.2,93.76,90.4Z" transform="translate(-62.927 -70.786)" fill="#fff"/>
          <path id="Tracé_6743" data-name="Tracé 6743" d="M247.535,128.8l.2.062c.719,2.36.016,30.379.1,34.514-9.876-.83-18.5.695-27.138,5.944-11.375,6.915-19.324,18.46-19.569,32.12-.15,8.381,2.949,20.026,8.853,26.173-6.492,3.447-12.718,7.445-19.3,10.719a16.707,16.707,0,0,1-7.539,1.809c-.142-3.027-.067-6.079-.067-9.11l0-53.26c0-7.016.079-14.044-.033-21.058a36.562,36.562,0,0,0,5.573-2.227l8.359-3.537C213.949,143.882,230.509,135.9,247.535,128.8Z" transform="translate(-112.686 -94.621)" fill="#ff5f00"/>
          <path id="Tracé_6744" data-name="Tracé 6744" d="M258.826,196.856l.187,0c32.041-.573,47.081,37.5,25.056,60.132a36.517,36.517,0,0,1-26.5,11.067c-30.621-.459-47.441-36.7-26.714-58.71A40.234,40.234,0,0,1,258.826,196.856Z" transform="translate(-129.657 -124.437)" fill="#ff5f00"/>
          <path id="Tracé_6745" data-name="Tracé 6745" d="M278.118,226.989c2.048.03,7.489,4.472,9.38,5.7,1.828,1.185,14.247,8.157,14.058,9.937-.229,2.16-2.847,2.233-4.4,3-1.951.962-3.851,3.015-6.214,2.516-5.582-1.181,3.429-5.256,4.56-5.88-5.039-2.9-10.227-6.717-15.2-9.871.108,2.936.113,5.869.119,8.806.009,1.429.051,2.852.114,4.28l1.065.343c-.144,4.805,1.742,11.9-4.108,12.044-3.468-2.185-7.71-6.081-11.38-8.641-1.4-.976-4.763-2.612-3.113-4.749,1.613-2.09,4.282.956,5.568,1.926,2.869,2.164,5.8,4.3,8.568,6.6-.031-6.64-.443-13.277-.522-19.922C276.577,230.742,275.714,228.3,278.118,226.989Z" transform="translate(-147.596 -137.646)"/>
          <path id="Tracé_6746" data-name="Tracé 6746" d="M65.031,127.8a71.048,71.048,0,0,1,7.446,3.1l43.868,19.943c3.615,1.712,7.23,3.581,10.973,5-.244,2.761-.131,5.589-.13,8.36l.006,68.111c0,2.22.108,4.517-.1,6.728l-.168.094c-4-1.377-7.574-3.649-11.234-5.726L85.809,216.882c-5.4-2.979-11.459-5.814-16.581-8.833-6.185-3.646-4.646-14.18-4.645-20.248l0-44.476C64.576,138.18,64.276,132.9,65.031,127.8Z" transform="translate(-60.599 -94.18)" fill="#ff5f00"/>
          <path id="Tracé_6747" data-name="Tracé 6747" d="M82.044,214.493c2.773-.2,4.924,1.39,7.2,2.754,7.975,4.784,16.238,9.073,24.307,13.7,10.009,5.736,11.321,5.793,11.3,18.779-.008,6.011-.243,10-6.532,12.543-5.305,1.7-9.34-2.24-13.737-4.609-5.142-2.769-10.324-5.432-15.412-8.3-5.139-2.9-11.754-5.842-13.013-12.235-.556-2.825-.64-13.931-.161-16.767A7.39,7.39,0,0,1,82.044,214.493Z" transform="translate(-65.549 -132.162)" fill="#fff"/>
          <path id="Tracé_6748" data-name="Tracé 6748" d="M91.316,227.438c3.488.451,13.722,7.356,17.2,9.439,2.374,1.42,7.635,4.157,9.347,5.944,2.126,2.219,1.437,13.554-.976,15.831-2.061,1.241-12.4-5.8-14.621-7.069-3.112-1.785-11.242-5.3-12.405-8.91C89.345,241.063,88.287,228.319,91.316,227.438Z" transform="translate(-71.508 -137.842)" fill="#dbcbf1"/>
        </g>
      </g>
    </g>
  </g>
</svg>
