<svg xmlns="http://www.w3.org/2000/svg" xmlns:xlink="http://www.w3.org/1999/xlink" width="300" height="300" viewBox="0 0 300 300">
  <defs>
    <linearGradient id="linear-gradient" x1="0.5" x2="0.5" y2="1" gradientUnits="objectBoundingBox">
      <stop offset="0" stop-color="#805aff"/>
      <stop offset="1" stop-color="#a76b47"/>
    </linearGradient>
    <clipPath id="clip-path">
      <rect id="Rectangle_3408" data-name="Rectangle 3408" width="150" height="156" transform="translate(-22651 -2611)" fill="#fff" stroke="#707070" stroke-width="1"/>
    </clipPath>
  </defs>
  <g id="Groupe_3689" data-name="Groupe 3689" transform="translate(21971 3062)">
    <path id="Tracé_6749" data-name="Tracé 6749" d="M56,0H244a56,56,0,0,1,56,56V244a56,56,0,0,1-56,56H56A56,56,0,0,1,0,244V56A56,56,0,0,1,56,0Z" transform="translate(-21971 -3062)" fill="url(#linear-gradient)"/>
    <g id="Groupe_de_masques_99" data-name="Groupe de masques 99" transform="translate(755 -379)" clip-path="url(#clip-path)">
      <g id="_8ebeec384cb5a0acdcfcb54ab61bbc4d" data-name="8ebeec384cb5a0acdcfcb54ab61bbc4d" transform="translate(-22656 -2613.063)">
        <path id="Tracé_6785" data-name="Tracé 6785" d="M90.448,134.229A64.552,64.552,0,1,0,25.9,69.677a64.552,64.552,0,0,0,64.552,64.552Z" fill="#a8d0ff"/>
        <path id="Tracé_6786" data-name="Tracé 6786" d="M69.552,25.9A64.552,64.552,0,1,1,5,90.448,64.552,64.552,0,0,1,69.552,25.9Z" fill="#00a1ff"/>
        <path id="Tracé_6787" data-name="Tracé 6787" d="M94.193,59.711,60.22,84.8,44.5,77.96C34.436,72.816,25.3,81.142,31.164,91.293L49.1,118.117c4.909,6.88,16.66,7.268,22.218,0L107.51,73.043C114.683,63.33,103.378,52.767,94.193,59.711Z" fill="#fff"/>
      </g>
    </g>
  </g>
</svg>
