<svg xmlns="http://www.w3.org/2000/svg" xmlns:xlink="http://www.w3.org/1999/xlink" width="100" height="100" viewBox="0 0 100 100">
  <defs>
    <clipPath id="clip-path">
      <rect id="Rectangle_82" data-name="Rectangle 82" width="64" height="62" fill="#fff" stroke="#707070" stroke-width="1"/>
    </clipPath>
    <clipPath id="clip-path-2">
      <path id="Tracé_132" data-name="Tracé 132" d="M54.588-29H0V33.322H54.588Z" transform="translate(0 29)"/>
    </clipPath>
  </defs>
  <g id="Groupe_116" data-name="Groupe 116" transform="translate(16155 -6667)">
    <circle id="Ellipse_31" data-name="Ellipse 31" cx="50" cy="50" r="50" transform="translate(-16155 6667)" fill="#54acee"/>
    <g id="Groupe_de_masques_16" data-name="Groupe de masques 16" transform="translate(-16137 6686)" clip-path="url(#clip-path)">
      <g id="a8dc8f5f902515a6c15317db8cdd10e1" transform="translate(4.706)" clip-path="url(#clip-path-2)">
        <path id="Tracé_125" data-name="Tracé 125" d="M.763-3.02c0,3.623,2.573,6.56,5.746,6.56H46.732c3.174,0,5.746-2.937,5.746-6.56V-7.94c0-3.623-2.573-6.56-5.746-6.56H6.509C3.336-14.5.763-11.563.763-7.94Z" transform="translate(0.673 45.661)" fill="#dd2e44"/>
        <path id="Tracé_126" data-name="Tracé 126" d="M.763-18.965l1.406-1.64H17.792a6.307,6.307,0,0,1,5.956,3.28l4.31,9.773V.716H.763Z" transform="translate(25.094 38.646)" fill="#617a87"/>
        <path id="Tracé_127" data-name="Tracé 127" d="M2.289-9.239H12.345L9.472-15.8s-1.437-3.28-4.31-3.28H2.289Z" transform="translate(37.933 40.4)" fill="#55acee"/>
        <path id="Tracé_128" data-name="Tracé 128" d="M4.579-2.6c0,3.623,2.573,6.56,5.746,6.56s5.746-2.937,5.746-6.56-2.573-6.56-5.746-6.56S4.579-6.221,4.579-2.6" transform="translate(29.898 51.799)" fill="#292f33"/>
        <path id="Tracé_129" data-name="Tracé 129" d="M6.1-4.351A3.1,3.1,0,0,0,8.979-1.07a3.1,3.1,0,0,0,2.873-3.282,3.1,3.1,0,0,0-2.875-3.28A3.1,3.1,0,0,0,6.1-4.351" transform="translate(31.245 53.552)" fill="#ccd6dd"/>
        <path id="Tracé_130" data-name="Tracé 130" d="M18.316-2.6c0,3.623,2.573,6.56,5.746,6.56s5.746-2.937,5.746-6.56-2.573-6.56-5.746-6.56S18.316-6.221,18.316-2.6" transform="translate(-9.697 51.799)" fill="#292f33"/>
        <path id="Tracé_131" data-name="Tracé 131" d="M23.613,10.783a3.1,3.1,0,0,1,2.873,3.282,3.1,3.1,0,0,1-2.875,3.28,3.1,3.1,0,0,1-2.873-3.282,3.1,3.1,0,0,1,2.875-3.28M16.43-23.658H37.978c3.174,0,5.746,2.937,5.746,6.56V4.223H10.684V-17.1c0-3.623,2.573-6.56,5.746-6.56" transform="translate(-9.248 35.138)" fill="#fff"/>
      </g>
    </g>
  </g>
</svg>
