<svg xmlns="http://www.w3.org/2000/svg" xmlns:xlink="http://www.w3.org/1999/xlink" width="300" height="300" viewBox="0 0 300 300">
  <defs>
    <linearGradient id="linear-gradient" x1="0.5" x2="0.5" y2="1" gradientUnits="objectBoundingBox">
      <stop offset="0" stop-color="#35044b"/>
      <stop offset="1" stop-color="#611181"/>
    </linearGradient>
    <linearGradient id="linear-gradient-2" x1="0.5" x2="0.5" y2="1" gradientUnits="objectBoundingBox">
      <stop offset="0" stop-color="#ff4a4a"/>
      <stop offset="1" stop-color="#5b4dff"/>
    </linearGradient>
    <clipPath id="clip-path">
      <path id="Tracé_6763" data-name="Tracé 6763" d="M44.34,0H193.2c24.488,0,44.34,19.583,44.34,43.741V190.584c0,24.157-19.852,43.741-44.34,43.741H44.34C19.852,234.325,0,214.742,0,190.584V43.741C0,19.583,19.852,0,44.34,0Z" transform="translate(-22921 -1736)" fill="url(#linear-gradient)"/>
    </clipPath>
  </defs>
  <g id="Groupe_3688" data-name="Groupe 3688" transform="translate(22771 3129)">
    <rect id="Rectangle_3391" data-name="Rectangle 3391" width="300" height="300" rx="56" transform="translate(-22771 -3129)" fill="url(#linear-gradient-2)"/>
    <g id="Groupe_de_masques_98" data-name="Groupe de masques 98" transform="translate(177.232 -1360.163)" clip-path="url(#clip-path)">
      <g id="_8cbc13ea39d3ebc02f2ee120fa5639a5" data-name="8cbc13ea39d3ebc02f2ee120fa5639a5" transform="translate(-22921 -1703.162)">
        <path id="Tracé_6764" data-name="Tracé 6764" d="M234.4,229.314,232.3,224.4l37.212-19.369,2.744,14.295L234.4,229.314Z" transform="translate(-48.37 -79.439)" fill="#4a4f60"/>
        <path id="Tracé_6765" data-name="Tracé 6765" d="M133.329,64.588v49.817a4.61,4.61,0,0,1-4.639,4.577H73.7a4.61,4.61,0,0,1-4.639-4.577V64.588A4.607,4.607,0,0,1,73.7,60.012h54.986A4.607,4.607,0,0,1,133.329,64.588Z" transform="translate(-14.38 -47.691)" fill="#f66"/>
        <rect id="Rectangle_3407" data-name="Rectangle 3407" width="63.855" height="12.515" rx="6.257" transform="translate(67.794 71.292)" fill="#4a4f60"/>
        <path id="Tracé_6766" data-name="Tracé 6766" d="M154.6,135.511H140.679a6.258,6.258,0,1,1,0,12.515H154.6a6.258,6.258,0,1,0,0-12.515Z" transform="translate(-29.292 -64.219)" fill="#3b3f4d"/>
        <path id="Tracé_6767" data-name="Tracé 6767" d="M119.462,224.486a22.649,22.649,0,0,1-45.294,0v-6.7l45.294-1.38Z" transform="translate(-15.443 -81.93)" fill="#4a4f60"/>
        <path id="Tracé_6768" data-name="Tracé 6768" d="M117.544,216.622v7.863a22.441,22.441,0,0,1-19.166,22.078,22.879,22.879,0,0,0,18.206-5.115,22.231,22.231,0,0,0,7.919-16.962V216.41Z" transform="translate(-20.484 -81.93)" fill="#3b3f4d"/>
        <path id="Tracé_6769" data-name="Tracé 6769" d="M91.751,225.067a8.726,8.726,0,0,0,17.45,0v-6H91.751Z" transform="translate(-19.104 -82.511)" fill="#fff"/>
        <path id="Tracé_6770" data-name="Tracé 6770" d="M186.359,199l-132.83,1.7c-7.775-13.174,3.62-40.032,22.92-51.035,10.14-5.78,20.492-6.062,26.314-5.722h35.558c-7.423,11.148-6.649,25.374,1.44,34.509a27.983,27.983,0,0,0,26.437,8.521c22.525-4.894,21.119-30.589,17.393-47.947-.28-1.308-5.056-16.357-7.055-22.125l15.72,4.338q3.757,12.392,8.159,25.378,4.723,13.889,9.655,26.806L186.359,199Z" transform="translate(-10.632 -60.147)" fill="#ffe966"/>
        <path id="Tracé_6771" data-name="Tracé 6771" d="M144.708,179.677a27.987,27.987,0,0,0,24.19,8.9,27.672,27.672,0,0,1-17.231-8.9c-8.088-9.135-8.862-23.362-1.44-34.509h-6.959c-7.422,11.148-6.649,25.374,1.44,34.509Zm67.613-31.836q-4.413-12.975-8.159-25.378H197.2q3.757,12.392,8.159,25.378c3.149,9.259,9.655,26.806,9.655,26.806h6.959S215.469,157.1,212.321,147.841Zm-97.652-2.673a54.472,54.472,0,0,0-6.43,0Z" transform="translate(-22.537 -61.363)" fill="#ffe236"/>
        <path id="Tracé_6772" data-name="Tracé 6772" d="M272.778,207.176a22.115,22.115,0,0,1,4.2,24.74,22.764,22.764,0,0,1-42.032-2.133" transform="translate(-48.919 -79.908)" fill="#4a4f60"/>
        <path id="Tracé_6773" data-name="Tracé 6773" d="M277.508,207.176l-4.672,2.792a22.077,22.077,0,0,1,2.125,21.485,22.594,22.594,0,0,1-17.3,13.222A22.732,22.732,0,0,0,281.2,232.937a22.108,22.108,0,0,0-3.693-25.761Z" transform="translate(-53.65 -79.908)" fill="#3b3f4d"/>
        <path id="Tracé_6774" data-name="Tracé 6774" d="M263.926,216.992A8.559,8.559,0,0,1,268,227.323a8.738,8.738,0,0,1-9.622,5.726,8.647,8.647,0,0,1-7.363-8.374,9.145,9.145,0,0,1,5.553-8,9.422,9.422,0,0,1,7.358.317Z" transform="translate(-52.265 -81.853)" fill="#fff"/>
        <path id="Tracé_6775" data-name="Tracé 6775" d="M54.18,214.6c5.326-24.332,28.349-38.059,47.073-33.326,13.567,3.429,24.273,16.4,26.77,32.387Z" transform="translate(-11.281 -74.034)" fill="#ffe236"/>
        <path id="Tracé_6776" data-name="Tracé 6776" d="M101.254,181.271a32.518,32.518,0,0,0-14.664-.177c.249.056.5.114.746.177,13.567,3.429,24.273,16.4,26.77,32.387l-59.885.761c-.013.06-.028.118-.041.178l73.844-.938C125.526,197.667,114.821,184.7,101.254,181.271Z" transform="translate(-11.281 -74.034)" fill="#ffdf1f"/>
        <path id="Tracé_6777" data-name="Tracé 6777" d="M236.12,190.664l1.38-.81a28.042,28.042,0,0,1,38.143,9.553l-49.206,28.885a27.244,27.244,0,0,1,9.684-37.628Z" transform="translate(-46.332 -75.27)" fill="#ffe236"/>
        <path id="Tracé_6778" data-name="Tracé 6778" d="M165.114,106.837H148.77a3.433,3.433,0,1,1,0-6.865h16.344a3.433,3.433,0,1,1,0,6.865ZM41.8,88.357H22.36a3.433,3.433,0,1,1,0-6.865H41.8a3.433,3.433,0,1,1,0,6.865Zm0,13.73H15.4a3.433,3.433,0,1,1,0-6.865H41.8a3.433,3.433,0,1,1,0,6.865Zm0,13.73H8.442a3.433,3.433,0,1,1,0-6.865H41.8a3.433,3.433,0,1,1,0,6.865Z" transform="translate(-1.033 -52.394)" fill="#4a4f60"/>
        <path id="Tracé_6779" data-name="Tracé 6779" d="M141.912,64.588V104.9a32.567,32.567,0,0,1-26.566-14.849,31.657,31.657,0,0,1-2.328-30.034h24.255a4.607,4.607,0,0,1,4.639,4.577Z" transform="translate(-22.963 -47.691)" fill="#ff4e4e"/>
        <ellipse id="Ellipse_973" data-name="Ellipse 973" cx="25.516" cy="25.175" rx="25.516" ry="25.175" transform="translate(94.282 0)" fill="#63ea86"/>
        <path id="Tracé_6780" data-name="Tracé 6780" d="M149.921,44.238a25.959,25.959,0,0,0-5.248.536,25.111,25.111,0,0,1,0,49.279,25.707,25.707,0,0,0,25.381-9.171,24.9,24.9,0,0,0,2.793-26.522,25.555,25.555,0,0,0-22.928-14.122Z" transform="translate(-30.123 -44.238)" fill="#4fe777"/>
        <path id="Tracé_6781" data-name="Tracé 6781" d="M160.421,75.3H150.387a3.456,3.456,0,0,1-3.48-3.432V58.893a3.48,3.48,0,0,1,6.959,0v9.545h6.555a3.433,3.433,0,1,1,0,6.865Z" transform="translate(-30.589 -46.695)" fill="#fff"/>
        <path id="Tracé_6782" data-name="Tracé 6782" d="M234.056,258.232H3.48a3.433,3.433,0,1,1,0-6.865H234.056a3.433,3.433,0,1,1,0,6.865Z" transform="translate(0 -89.582)" fill="#4a4f60"/>
        <path id="Tracé_6783" data-name="Tracé 6783" d="M217.457,96.628h12.232a1.843,1.843,0,0,1,1.856,1.831v16.518a1.843,1.843,0,0,1-1.856,1.831H217.457a10.091,10.091,0,1,1,0-20.179Z" transform="translate(-43.148 -55.707)" fill="#ffe236"/>
        <path id="Tracé_6784" data-name="Tracé 6784" d="M233.765,96.628h-6.959a1.843,1.843,0,0,1,1.856,1.831v16.518a1.843,1.843,0,0,1-1.856,1.831h6.959a1.843,1.843,0,0,0,1.856-1.831V98.459a1.843,1.843,0,0,0-1.856-1.831Z" transform="translate(-47.225 -55.707)" fill="#ffdf1f"/>
      </g>
    </g>
  </g>
</svg>
