<svg xmlns="http://www.w3.org/2000/svg" xmlns:xlink="http://www.w3.org/1999/xlink" width="300" height="300" viewBox="0 0 300 300">
  <defs>
    <linearGradient id="linear-gradient" x1="0.5" x2="0.5" y2="1" gradientUnits="objectBoundingBox">
      <stop offset="0" stop-color="#35044b"/>
      <stop offset="1" stop-color="#ff7c7c"/>
    </linearGradient>
    <clipPath id="clip-path">
      <rect id="Rectangle_3404" data-name="Rectangle 3404" width="177" height="170" transform="translate(-22717.588 -3128.784)" fill="#fff" stroke="#707070" stroke-width="1"/>
    </clipPath>
  </defs>
  <g id="Groupe_3687" data-name="Groupe 3687" transform="translate(23178 3070)">
    <path id="Tracé_6763" data-name="Tracé 6763" d="M56,0H244a56,56,0,0,1,56,56V244a56,56,0,0,1-56,56H56A56,56,0,0,1,0,244V56A56,56,0,0,1,56,0Z" transform="translate(-23178 -3070)" fill="url(#linear-gradient)"/>
    <g id="Groupe_de_masques_97" data-name="Groupe de masques 97" transform="translate(-398.412 123.784)" clip-path="url(#clip-path)">
      <g id="_9bfa2cf3b74882af75676c18738a82ab" data-name="9bfa2cf3b74882af75676c18738a82ab" transform="translate(-22718 -3129)">
        <g id="Groupe_3682" data-name="Groupe 3682">
          <path id="Tracé_6750" data-name="Tracé 6750" d="M147.843,170.216H29.569C13.238,170.216,0,157.515,0,141.846V28.369C0,12.7,13.238,0,29.569,0H147.843c16.331,0,29.569,12.7,29.569,28.369V141.846C177.412,157.515,164.174,170.216,147.843,170.216Z" fill="rgba(255,255,255,0)"/>
        </g>
        <g id="Groupe_3686" data-name="Groupe 3686" transform="translate(17.759 17.041)">
          <path id="Tracé_6751" data-name="Tracé 6751" d="M75.778,176.37a248.486,248.486,0,0,0,86.509,0,23.518,23.518,0,0,0,19.32-18.536,219.759,219.759,0,0,0,0-83A23.518,23.518,0,0,0,162.287,56.3a248.485,248.485,0,0,0-86.509,0,23.518,23.518,0,0,0-19.32,18.536,219.759,219.759,0,0,0,0,83A23.514,23.514,0,0,0,75.778,176.37Z" transform="translate(-39.213 -39.755)" fill="rgba(179,255,206,0.6)"/>
          <g id="Groupe_3683" data-name="Groupe 3683" transform="translate(75.382 2.871)">
            <path id="Tracé_6752" data-name="Tracé 6752" d="M219.936,118.389a7.51,7.51,0,0,1-.8.028c-32.673,0-59.137-25.39-59.137-56.739V37.65a236.784,236.784,0,0,1,23.655,1.7V61.679c0,18.78,15.908,34.043,35.482,34.043a11.385,11.385,0,0,0,1.39-.057A208.267,208.267,0,0,1,219.936,118.389Z" transform="translate(-158.522 -36.2)" fill="#fff"/>
            <path id="Tracé_6753" data-name="Tracé 6753" d="M218.116,118.73c-33.424,0-60.616-26.088-60.616-58.157V35.1l1.511.031c7.883.17,15.893.746,23.809,1.714l1.292.156V60.573c0,17.989,15.254,32.625,34,32.625a10.135,10.135,0,0,0,1.206-.045l1.617-.2.044,1.566a210.9,210.9,0,0,1-.594,22.871l-.1,1.172-1.218.128A9.011,9.011,0,0,1,218.116,118.73ZM160.457,38V60.573c0,30.321,25.556,55.019,57.085,55.317.485-6.46.659-13.126.52-19.856-20.355-.028-36.908-15.927-36.908-35.462V39.5C174.265,38.7,167.317,38.193,160.457,38Z" transform="translate(-157.5 -35.095)" fill="#0082f7"/>
          </g>
          <path id="Tracé_6754" data-name="Tracé 6754" d="M159.284,165.679a24.388,24.388,0,0,1-10.852,4.766c-5.115.908-10.2,1.645-15.317,2.213L40.3,83.607c.591-4.908,1.36-9.787,2.306-14.7A22.53,22.53,0,0,1,47.574,58.5Z" transform="translate(-34.227 -42.349)" fill="#fff"/>
          <path id="Tracé_6755" data-name="Tracé 6755" d="M217.605,118.923c-33.83,0-61.355-26.409-61.355-58.866V36.028a2.22,2.22,0,0,1,4.435,0V60.056c0,30.111,25.536,54.611,56.92,54.611.189,0,.373,0,.559-.014a2.227,2.227,0,0,1,2.445,1.887,2.152,2.152,0,0,1-1.966,2.346C218.3,118.92,217.951,118.923,217.605,118.923Zm0-22.7c-20.787,0-37.7-16.227-37.7-36.171V37.73a2.22,2.22,0,0,1,4.435,0V60.056c0,17.6,14.923,31.915,33.265,31.915a9.832,9.832,0,0,0,1.115-.04,2.2,2.2,0,0,1,2.475,1.847,2.147,2.147,0,0,1-1.925,2.375A13.6,13.6,0,0,1,217.605,96.227Z" transform="translate(-81.607 -31.707)" fill="#0082f7"/>
          <path id="Tracé_6756" data-name="Tracé 6756" d="M131.584,173.162a2.248,2.248,0,0,1-1.567-.624L37.2,83.486a2.068,2.068,0,0,1,0-3.01,2.285,2.285,0,0,1,3.137,0l92.816,89.051a2.068,2.068,0,0,1,0,3.01A2.261,2.261,0,0,1,131.584,173.162Zm26.168-6.979a2.248,2.248,0,0,1-1.567-.624L44.475,58.38a2.068,2.068,0,0,1,0-3.01,2.285,2.285,0,0,1,3.137,0l111.71,107.179a2.068,2.068,0,0,1,0,3.01A2.261,2.261,0,0,1,157.753,166.183Z" transform="translate(-32.695 -40.725)" fill="#fc6030"/>
          <path id="Tracé_6757" data-name="Tracé 6757" d="M113.655,38V165.094q-11.842-.553-23.655-2.27V40.27Q101.8,38.567,113.655,38Z" transform="translate(-54.535 -33.481)" fill="#fff"/>
          <path id="Tracé_6758" data-name="Tracé 6758" d="M100.977,166.171a254.973,254.973,0,0,1-44.051-3.844h0c-11.754-2.062-20.737-10.681-22.886-21.958a224.761,224.761,0,0,1,0-84.529c2.15-11.277,11.133-19.9,22.886-21.958a254.145,254.145,0,0,1,88.1,0c11.754,2.062,20.737,10.681,22.886,21.958a224.762,224.762,0,0,1,0,84.529c-2.15,11.277-11.133,19.9-22.886,21.958A254.973,254.973,0,0,1,100.977,166.171Zm0-127.628a245.523,245.523,0,0,0-42.455,3.708A19.073,19.073,0,0,0,42.765,57.369a216.686,216.686,0,0,0,0,81.468,19.073,19.073,0,0,0,15.757,15.118h0a245.015,245.015,0,0,0,84.912,0,19.073,19.073,0,0,0,15.757-15.118,216.687,216.687,0,0,0,0-81.468,19.073,19.073,0,0,0-15.757-15.118A245.582,245.582,0,0,0,100.977,38.543Z" transform="translate(-30.03 -30.035)" fill="#0c3"/>
          <path id="Tracé_6759" data-name="Tracé 6759" d="M88.468,163.33A2.175,2.175,0,0,1,86.25,161.2V38.647a2.22,2.22,0,0,1,4.435,0V161.2A2.175,2.175,0,0,1,88.468,163.33Zm23.655,2.27a2.175,2.175,0,0,1-2.218-2.128V36.378a2.22,2.22,0,0,1,4.435,0V163.472A2.175,2.175,0,0,1,112.123,165.6Z" transform="translate(-53.003 -31.858)" fill="#0c3"/>
          <g id="Groupe_3684" data-name="Groupe 3684" transform="translate(15.506 54.591)">
            <ellipse id="Ellipse_972" data-name="Ellipse 972" cx="29.5" cy="28" rx="29.5" ry="28" transform="translate(2.146 2.583)" fill="#fff"/>
            <path id="Tracé_6760" data-name="Tracé 6760" d="M88.036,187.244c-17.528,0-31.786-13.68-31.786-30.5s14.258-30.5,31.786-30.5,31.786,13.68,31.786,30.5S105.565,187.244,88.036,187.244Zm0-56.739c-15.083,0-27.351,11.77-27.351,26.242s12.268,26.242,27.351,26.242,27.351-11.77,27.351-26.242S103.119,130.505,88.036,130.505Z" transform="translate(-56.25 -126.25)" fill="#0082f7"/>
          </g>
          <g id="Groupe_3685" data-name="Groupe 3685" transform="translate(33.247 66.065)">
            <path id="Tracé_6761" data-name="Tracé 6761" d="M101.827,150,90,178.369l11.827-5.674,11.827,5.674Z" transform="translate(-87.783 -147.999)" fill="#fff"/>
            <path id="Tracé_6762" data-name="Tracé 6762" d="M112.123,178.971a2.292,2.292,0,0,1-.991-.224l-10.837-5.2-10.837,5.2a2.286,2.286,0,0,1-2.493-.338,2.064,2.064,0,0,1-.556-2.355l11.827-28.369a2.355,2.355,0,0,1,4.119,0l11.827,28.369a2.064,2.064,0,0,1-.556,2.355A2.29,2.29,0,0,1,112.123,178.971ZM100.3,169.042a2.273,2.273,0,0,1,.991.224l6.609,3.172L100.3,154.2l-7.6,18.233,6.609-3.172A2.3,2.3,0,0,1,100.3,169.042Z" transform="translate(-86.25 -146.473)" fill="#0082f7"/>
          </g>
        </g>
      </g>
    </g>
  </g>
</svg>
