<svg xmlns="http://www.w3.org/2000/svg" xmlns:xlink="http://www.w3.org/1999/xlink" width="290" height="106" viewBox="0 0 290 106">
  <defs>
    <clipPath id="clip-path">
      <rect id="Rectangle_3256" data-name="Rectangle 3256" width="145" height="106" transform="translate(-13450 -2440)" fill="#fff"/>
    </clipPath>
    <clipPath id="clip-path-2">
      <rect id="Rectangle_3306" data-name="Rectangle 3306" width="64" height="64" transform="translate(-13135 -2363)" fill="#fff" stroke="#707070" stroke-width="1"/>
    </clipPath>
    <clipPath id="clip-path-3">
      <path id="Tracé_6017" data-name="Tracé 6017" d="M30.354,3.627a1.73,1.73,0,0,1,1.7.127L48.24,12.636a5.832,5.832,0,0,1,2.591,4.711V58.614a2.283,2.283,0,0,1-.736,1.893l0,.013-2.891,1.587-1.345-3.489-13.3-7.3a5.832,5.832,0,0,1-2.593-4.711L29.46,11.964l-2-6.751Z" transform="translate(-27.463 -3.461)"/>
    </clipPath>
    <clipPath id="clip-path-4">
      <path id="Tracé_6020" data-name="Tracé 6020" d="M46.622,17.393a5.194,5.194,0,0,0-2.31-4.2L29.9,5.286c-1.274-.7-2.31.044-2.31,1.657V46.69a5.2,5.2,0,0,0,2.31,4.2L44.312,58.8c1.275.7,2.31-.044,2.31-1.657Z" transform="translate(-27.589 -5.023)"/>
    </clipPath>
  </defs>
  <g id="Groupe_3564" data-name="Groupe 3564" transform="translate(13450 2440)">
    <rect id="Rectangle_3255" data-name="Rectangle 3255" width="145" height="106" transform="translate(-13305 -2440)" fill="#ae29ce"/>
    <g id="Groupe_de_masques_47" data-name="Groupe de masques 47" clip-path="url(#clip-path)">
      <g id="cbb0b739aec8b0ecfb7cda1abdcaa7cf" transform="translate(-13424.221 -2444.932)">
        <path id="Tracé_6008" data-name="Tracé 6008" d="M70.426,68.683c-.716-2.778-1.375-3.956-2.647-4.922a13.855,13.855,0,0,0-5.462-2.216c-2.64-.462-2.715-1.834-3.377-4.04a.956.956,0,0,0-1.563-.362,1.98,1.98,0,0,0-.182-.172c.056-.316-.4-1.223-.389-1.525.161-3.157-.872-4.743-3.449-5.332a28.894,28.894,0,0,0-4.914-.053c-2.389.661-4.741,2.758-4.381,5.285a4.674,4.674,0,0,1-2.641,1.894q-3.862.491-7.725.867a21.375,21.375,0,0,0-13,7.352,1.013,1.013,0,0,0-.121,1.23c-.206.883-1.366,3.024-.453,3.629-1.5,3.589-4.953,10.527-4.959,12.509-.027,8.326.872,19.164,9.086,23.772a2.342,2.342,0,0,1,.518,1.163,3.126,3.126,0,0,0,3.109,2.511c7.072.157,13.922-.706,20.994-.748a85.6,85.6,0,0,1,9.579.757,19.828,19.828,0,0,0,8.045-.757,1.054,1.054,0,0,0,1.112.447,13.988,13.988,0,0,0,6.774-4.013c.58-1.056,2.846-4.063,1.945-5.11A16.5,16.5,0,0,0,75.65,90.4c.206-.6-.169-1.265,0-1.887.123-.45.436-.637.594-1.082a3.316,3.316,0,0,0-.27-2.11c-.1-.319.189-.662.27-.988.383-1.536-.5-1.4-1.128-2.427.009,0,.174-.736.173-.732a2.961,2.961,0,0,0-.358-1.63.77.77,0,0,0-.755-.446,27.744,27.744,0,0,1,1.113-2.914,30.509,30.509,0,0,1,2.733-5.068.98.98,0,0,0-.851-1.461,42.939,42.939,0,0,1-6.744-.974Z" fill="#fff" fill-rule="evenodd"/>
        <path id="Tracé_6009" data-name="Tracé 6009" d="M63.789,82.07a9.989,9.989,0,0,0-2.873-.63c.53-.093,1.062-.183,1.6-.229a1.144,1.144,0,0,1,1,.255,2.712,2.712,0,0,1,.4.656q-.061-.028-.124-.052Zm9.763-3.336a11.472,11.472,0,0,0-4.329,1.072,1.969,1.969,0,0,0-1.2,1.268,2.787,2.787,0,0,0-.016.971c.03.244.037.556.249.721a.452.452,0,0,0,.115.065,10.107,10.107,0,0,0-1.391.772,2.553,2.553,0,0,0-.957,1.087q-.021-.071-.044-.141a3.96,3.96,0,0,0-1.5-2.119.324.324,0,0,0,.177-.387,1.789,1.789,0,0,0-1.74-1.439,7.17,7.17,0,0,0-2.709.8q-.448-.009-.895.01a.038.038,0,0,0,0,.077c.24.03.48.064.72.1.57.091,1.139.207,1.695.351a10.653,10.653,0,0,1,1.981.648,3.544,3.544,0,0,1,1.8,3.452c-.025.219-.11.879-.413.811-.256-.058-.358-.593-.448-.791a2.245,2.245,0,0,0-1.191-1.1c-.609-.273-1.261-.459-1.891-.674q-.536-.184-1.073-.367a2.007,2.007,0,0,0-1.105-.211.3.3,0,0,0-.131.5,1.608,1.608,0,0,0,.791.419l1.147.4c.591.205,1.21.379,1.785.63l-.018.041a.08.08,0,0,0-.093.091,4.331,4.331,0,0,1,.073,1.679c-.105.423-.476.89-.957.766a.256.256,0,0,0,.053-.3c-.191-.408-2.688-2.017-2.911-1.42-.007.021.016.037.034.034.19-.04.508.284.66.387.219.148.442.292.659.445q.355.25.7.52a1.833,1.833,0,0,0,.515.36.432.432,0,0,0-.228.266,1.072,1.072,0,0,1-.578.721,3.23,3.23,0,0,1-1.027.089,2.073,2.073,0,0,0-1.205.582c-.709.662-1.065,1.83-2.057,2.143a4.26,4.26,0,0,1-1.85-.016,6.9,6.9,0,0,0-2-.071,6.746,6.746,0,0,0-1.847.591,8.622,8.622,0,0,0-1.655.926c-.1-.312-.2-.62-.28-.938a11.185,11.185,0,0,1-.3-2.291,19.089,19.089,0,0,1,.082-2.207c.032-.366.081-.73.112-1.1.008-.092.025-.191.037-.289a25.286,25.286,0,0,1,2.724-1.321l.007,0,.086-.038,0-.005a.567.567,0,0,0,.224-.249,10.738,10.738,0,0,0,3.288-3.51,10.961,10.961,0,0,1,1.142-1.724,3.283,3.283,0,0,1,1.779-1.053,16.634,16.634,0,0,1,2.553-.389c.467-.037.99-.095,1.5-.092a3.952,3.952,0,0,1,1.021.121,2.13,2.13,0,0,1,1.045.852q.429.52.83,1.061a10.136,10.136,0,0,1,.693,1.073,6.454,6.454,0,0,1,.333.691,2,2,0,0,1,.1.266c.021.088-.017.181.081.181-.407.006-.4.656,0,.632,1.583-.092-.684-3.183-1.015-3.613-.469-.61-.953-1.406-1.7-1.689l-.033-.011a3.868,3.868,0,0,0,.556-.708,2.532,2.532,0,0,0,.429-.866.178.178,0,0,0-.324-.136,5.739,5.739,0,0,0-.376.843c-.128.28-.284.543-.408.825a3.763,3.763,0,0,0-.943-.147c.411-.557,1.115-1.633,1.2-1.771q.584-.964,1.114-1.959c.383-.715.711-1.46,1.077-2.183.208-.41.417-.823.648-1.221a3.52,3.52,0,0,1,.262-.4.888.888,0,0,1,.065-.068l.067-.038c.133-.076.18-.254.273-.366a.63.63,0,0,1,.551-.206c.48-.005.961.014,1.44.027q1.375.038,2.749.121,1.534.091,3.065.238c.9.086,1.8.227,2.708.294a85.806,85.806,0,0,1-4.114,8.513.354.354,0,0,0-.034.084Zm-6.784,7.486a3.39,3.39,0,0,0-.567.331,3.384,3.384,0,0,0,.029-.622,1,1,0,0,0,.538.29Zm8.418-5a.041.041,0,0,0-.033.023,1.394,1.394,0,0,0,.287,1.633c.233.23.742.49.725.868-.014.306-.347.562-.489.815a.833.833,0,0,0-.075.748c.136.326.515.456.644.777.165.407-.1.9-.29,1.252-.174.328-.4.656-.549,1a10.545,10.545,0,0,0-2.669,2.123c-.844.884-1.568,1.923-2.908,1.9a.334.334,0,0,0-.3.166q-.56.025-1.12.026-.983.006-1.966-.024a2,2,0,0,1-.015-.508c-.008-.432-.012-.862-.03-1.294l-.015-.361a1.242,1.242,0,0,0,1.22.591c.843-.049,1.691-.187,2.526-.312.439-.065.879-.139,1.317-.218.36-.064.868-.048,1.119-.336a.151.151,0,0,0-.03-.236c-.249-.123-.406-.054-.679,0q-1.463.281-2.938.49c-.368.052-.737.1-1.106.143a1.133,1.133,0,0,1-.945-.161c-.523-.49-.23-1.311.1-1.806a.031.031,0,0,0,0-.027c.312-.074.624-.159.934-.219q.9-.171,1.8-.3c1.238-.177,2.483-.293,3.727-.411.308-.03.312-.515,0-.486a52.966,52.966,0,0,0-5.347.663q-.663.128-1.317.292a2.929,2.929,0,0,1-.643.133H66.09c-.423-.013-.485-.375-.252-.677.029-.037.058-.074.089-.109a6.045,6.045,0,0,1,1.45-1.156c.591-.081,1.18-.26,1.758-.391l4.285-.975c.28-.064.161-.5-.119-.432l-3.254.737-1.587.36c-.317.071-.713.215-1.086.267a1.452,1.452,0,0,1-.523-.009c-.52-.123-.546-.774-.322-1.16a2.97,2.97,0,0,1,1.148-.951c.73-.427,1.508-.734,2.267-1.087l.4-.089a13.687,13.687,0,0,0,2.417-.574c.221-.094.1-.442-.118-.437a9.565,9.565,0,0,0-1.731.337l-1.817.393a2.174,2.174,0,0,1-.475.1c-.035-.017-.047-.137-.058-.215a2.728,2.728,0,0,1-.024-.793c.089-.584.576-.859,1.069-1.083a11.368,11.368,0,0,1,3.5-.936q.414-.043.83-.056c.326-.01.6-.067.76.254A5.813,5.813,0,0,1,75.186,81.222ZM73.662,99.581c-.239-.828-.174-1.711-.338-2.556q-.132-.654-.326-1.292a4.881,4.881,0,0,1-.291-1.067.031.031,0,0,1,.046-.027,2.575,2.575,0,0,1,.789.939,6.287,6.287,0,0,1,.548,1.236,4.076,4.076,0,0,1,.151,2.767A.3.3,0,0,1,73.662,99.581ZM66.27,88.619a5.078,5.078,0,0,0,.606-.1,2.315,2.315,0,0,0-.551.78q-.026-.339-.072-.676h.016Zm-1.943,17.227a6.954,6.954,0,0,1-.919-.9c-.3-.3.168-.767.465-.465a6.215,6.215,0,0,0,.786.8.336.336,0,0,1,.118.45A.332.332,0,0,1,64.327,105.846Zm-1.988-9.564a17.8,17.8,0,0,1,1.971-.791.329.329,0,0,1,.175.634,16.337,16.337,0,0,0-1.814.725c-.385.166-.719-.4-.332-.568Zm-6.872-.2c-.159-.392.477-.562.634-.175.18.446.387.88.568,1.326.159.392-.477.562-.634.175C55.855,96.965,55.648,96.531,55.467,96.085Zm-6.782,7.843a.336.336,0,0,1-.45.118.331.331,0,0,1-.118-.45,11.529,11.529,0,0,1,1-1.2c.3-.3.762.163.465.465A10.363,10.363,0,0,0,48.685,103.928Zm-.97-44.009a5.874,5.874,0,0,1,.824.714.329.329,0,0,1-.465.465,4.977,4.977,0,0,0-.69-.611.329.329,0,1,1,.332-.568ZM57.583,70.5a2.508,2.508,0,0,0-.334,1.065.329.329,0,0,1-.657,0,3.276,3.276,0,0,1,.424-1.4c.189-.379.756-.046.567.332ZM61.2,62c.354-.236.682.334.332.568l-.852.568c-.354.235-.682-.334-.332-.568ZM45.5,76.862c-.061.418-.694.239-.634-.175a15,15,0,0,1,.378-1.894.329.329,0,0,1,.634.175A15.01,15.01,0,0,0,45.5,76.862ZM43.2,84.4a.329.329,0,0,1,0-.657,5.146,5.146,0,0,1,1.129.2.329.329,0,0,1-.175.634A4.364,4.364,0,0,0,43.2,84.4Zm-.851,15.174c-.145.071-.294.134-.441.2q-1.36.623-2.718,1.251c-1.224.567-2.458,1.114-3.685,1.675q-1.877.858-3.747,1.734c-.587.274-1.179.539-1.77.806a5.622,5.622,0,0,1-1.684.665c-.028,0-.038-.034-.022-.053a3.031,3.031,0,0,1,.819-.532c.281-.158.567-.307.853-.458.594-.315,1.19-.627,1.79-.931q1.8-.911,3.606-1.814c1.227-.615,2.452-1.233,3.69-1.826q1.348-.646,2.7-1.285c.137-.065.272-.135.411-.193a3.15,3.15,0,0,1,.518-.109.271.271,0,0,1,.208.493,3.285,3.285,0,0,1-.527.375Zm-4.388,6.743a.331.331,0,0,1,.229-.4.34.34,0,0,1,.4.229,3.708,3.708,0,0,0,.767,1.181c.3.3-.17.769-.465.465A4.552,4.552,0,0,1,37.956,106.312ZM34.728,95.757a.329.329,0,0,1,.464-.465l.852.852a.329.329,0,0,1-.465.465l-.852-.852Zm-8.741-1.389a3.289,3.289,0,0,0-1.744.867c-.02.026-.054-.007-.042-.033.535-1.108,2.068-1.5,3.129-1.886.751-.275,1.521-.5,2.3-.706a16.339,16.339,0,0,1,.211-2.719c.08-.942.144-1.886.177-2.831.034-.964.042-1.934.011-2.9s-.156-1.909-.211-2.866c-.005-.093.124-.1.152-.021a12.33,12.33,0,0,1,.565,2.809,23.035,23.035,0,0,1,.13,2.9c-.014,1-.072,1.994-.152,2.988-.038.471-.082.942-.123,1.413a8.815,8.815,0,0,1-.119,1.064c.469-.115.938-.224,1.406-.329,1.493-.337,2.992-.65,4.478-1.014.73-.179,1.449-.393,2.175-.583a15.456,15.456,0,0,1,2.108-.476c.25-.028.282.315.117.431a8.1,8.1,0,0,1-1.988.9c-.662.225-1.35.387-2.027.554-1.414.348-2.842.632-4.267.929s-2.85.59-4.257.955c-.678.176-1.353.352-2.025.55ZM22.631,76.775a.329.329,0,0,1-.331-.568,11.025,11.025,0,0,1,1.5-.7c.394-.158.563.479.175.634A9.848,9.848,0,0,0,22.631,76.775Zm-1.325,24.431a.329.329,0,0,1-.331-.567c.513-.3,1.077-.5,1.609-.758.379-.186.712.382.332.568-.533.261-1.1.459-1.609.757Zm-.6-13.868a3.788,3.788,0,0,0,1.275.673c.389.154.219.79-.175.634a4.629,4.629,0,0,1-1.565-.842c-.307-.292.158-.756.465-.465ZM24.635,68.5c.39.153.219.789-.175.634-.437-.172-.888-.3-1.325-.474-.39-.153-.219-.789.175-.634.437.172.888.3,1.325.473Zm6.924-7.481c.415-.07.591.564.175.634a7.7,7.7,0,0,0-1.514.379c-.4.153-.565-.483-.175-.634A7.689,7.689,0,0,1,31.559,61.023Zm2.288,18.214c-.38-.187-.047-.754.332-.568a5.333,5.333,0,0,0,1.247.44c.414.088.238.722-.175.634A6.046,6.046,0,0,1,33.847,79.237Zm2.161-10.259a.329.329,0,0,1,.175.634c-.717.2-1.455.3-2.177.473-.411.1-.586-.534-.175-.634C34.554,69.276,35.292,69.174,36.009,68.977Zm9.167-3.22c.416.077.239.711-.175.634a7.308,7.308,0,0,0-1.333-.083.329.329,0,0,1,0-.657A8.25,8.25,0,0,1,45.176,65.757Zm29.9,3.436q-1.611-.154-3.227-.247l-.15-.009a.305.305,0,0,0-.02-.033,7.7,7.7,0,0,1-.835-1.616,8.415,8.415,0,0,0-.753-1.63,5.293,5.293,0,0,0-1.443-1.406,6.635,6.635,0,0,0-.939.776c-.3.3-.767-.168-.465-.465a7.219,7.219,0,0,1,.815-.692c-.332-.2-.671-.392-1-.581Q65.2,62.229,63.25,61.331c-.6-.279-1.212-.526-1.826-.777-.331-.135-.657-.308-.987-.464a.763.763,0,0,0-.225-.649,1.686,1.686,0,0,0-.393-.234l-.067-.024.064.02c.084.039.091.027.02-.034,0-.133-.266-.414-.326-.551a7.118,7.118,0,0,0-.582-1.4,1.619,1.619,0,0,0-1.8-.614,7.187,7.187,0,0,0-.355-2.088.023.023,0,0,0-.042-.006,3.2,3.2,0,0,0-.324,1.555,9.152,9.152,0,0,0,.067,1.555q-.064.049-.131.095a2.887,2.887,0,0,1-.681.327,5.293,5.293,0,0,1-1.415.24A17.179,17.179,0,0,1,50.517,58a15.1,15.1,0,0,1-4.21-1.153,23.464,23.464,0,0,1-2.064-1.381,3.715,3.715,0,0,0,.061-2.3.093.093,0,0,0-.178,0c-.154.636-.2,1.276-.405,1.9l-.01.028-.192-.129a.325.325,0,0,0-.438.115c-1.419,2.237-3.666,2.365-6.026,2.764a48.018,48.018,0,0,0-7.661,1.765,16.818,16.818,0,0,0-6.442,3.791A14.961,14.961,0,0,0,21.8,64.686a5.891,5.891,0,0,1,1.033.219c.4.127.229.762-.175.634a5.837,5.837,0,0,0-1.326-.24,29.126,29.126,0,0,0-3,5.433A39.841,39.841,0,0,0,15.257,82c.26-.156.524-.3.8-.442.376-.191.709.376.332.568a13.668,13.668,0,0,0-1.22.7,41.06,41.06,0,0,0-.2,5.112,43.549,43.549,0,0,0,1.886,12.134,18.262,18.262,0,0,0,2.618,5.4,9.5,9.5,0,0,0,1.89,1.935,7.5,7.5,0,0,0,1.119.7,8.137,8.137,0,0,1,1.605.713,1.321,1.321,0,0,1,.338.46,2.5,2.5,0,0,0,.039,1.027.366.366,0,0,0,.21.236c0,.03,0,.058,0,.086s.02.017.022,0l.012-.077a.311.311,0,0,0,.1.016c1.248,0,2.5-.026,3.747-.068-.1-.3-.2-.59-.3-.886-.136-.4.5-.573.634-.175.117.346.241.69.35,1.037,1.339-.05,2.678-.11,4.014-.154,2.842-.095,5.684-.126,8.527-.186,4.415-.094,8.862-.285,13.284-.1.153-.324.324-.642.486-.962.191-.378.758-.045.568.332-.113.222-.23.442-.341.664.9.047,1.79.108,2.683.192,1.523.143,3.032.4,4.554.555a16.968,16.968,0,0,0,4.6-.123.606.606,0,0,0,.506-.42.01.01,0,0,0,.006-.005,2.285,2.285,0,0,1,.229-.235,1.614,1.614,0,0,1,.306-.154,3.154,3.154,0,0,1,.67-.166c.252-.038.506-.041.758-.072a6.06,6.06,0,0,0,.626-.117,6.3,6.3,0,0,0,1.077-.359,3.8,3.8,0,0,0,.844-.536,7.324,7.324,0,0,0,1.418-1.425,10.673,10.673,0,0,0,.666-.956c.355-.574.657-1.17.963-1.771.111-.178.212-.361.3-.546a6.847,6.847,0,0,0-1.834-.33.329.329,0,0,1,0-.658,7.785,7.785,0,0,1,2.1.383c.033-.088.065-.177.095-.268a4.688,4.688,0,0,0,.2-.577l.1-.266q.111-.461.222-.924a12.361,12.361,0,0,0,.353-1.5,10.036,10.036,0,0,0,.166-1.01,19,19,0,0,0,.215-2.481q-.015-.77-.1-1.537-.036-.52-.118-1.035c-.071-.51-.14-1.014-.258-1.518l-.264-1.021a19.671,19.671,0,0,0-.777-2.085c-.016-.042-.1-.136-.149-.137s-.091.034-.074.08l.005.013c-.017-.039-.033-.078-.051-.117s-.072-.109-.117-.108h-.008a.189.189,0,0,0,.033-.031,6.556,6.556,0,0,0,.7-1.213,3.2,3.2,0,0,0,.388-1.063,1.221,1.221,0,0,0-.222-.926c-.237-.3-.682-.448-.435-.889.281-.5.695-.936.283-1.506a7.048,7.048,0,0,0-.788-.7,1.494,1.494,0,0,1-.411-1.081.032.032,0,0,0,.048-.02,3.494,3.494,0,0,0-.178-2.212.733.733,0,0,0-.743-.5c1.42-2.774,2.749-5.593,3.932-8.477.04-.095.078-.189.117-.284a.3.3,0,0,0-.2-.361,26.108,26.108,0,0,0-3.133-.394Z" fill-rule="evenodd"/>
        <path id="Tracé_6010" data-name="Tracé 6010" d="M64.133,37.4c-.564-6.878-2.281-12.97-10.35-13.23A28.158,28.158,0,0,0,43.075,26.4c-8.139,4.083-10.722,19-3.551,25.005a.076.076,0,0,0,0,.128A27.779,27.779,0,0,0,44.3,54.045c4.393,1.858,9.565,2.665,14.045.65C65.182,51.784,65.284,43.686,64.133,37.4Z" fill="#fff" fill-rule="evenodd"/>
        <path id="Tracé_6011" data-name="Tracé 6011" d="M77.591,34.191a2.045,2.045,0,0,0,.6-.958,1.876,1.876,0,0,0,0-1.049c-.11-.363-.348-.653-.294-1.031a.927.927,0,0,1,.025-.114c.205-.712.711-1.226.53-2.015a1.365,1.365,0,0,0-.281-.581c.015-.171.028-.344.039-.516a2.756,2.756,0,0,0-.031-2.2A8.347,8.347,0,0,0,78,24.684a2,2,0,0,0-.112-.9,12.782,12.782,0,0,0-.609-1.372.507.507,0,0,0-.053-.369,3.439,3.439,0,0,0-.453-.576q-.177-.316-.354-.626c-.054-.095-.115-.2-.181-.311a1.069,1.069,0,0,0,.086-1.058.488.488,0,0,0-.432-.248c-.178.011-.357.018-.538.025a3.849,3.849,0,0,0-1.129-.984c-.415-.352-.836-.7-1.245-1.05l-.348-.3,0-.009c-.086-.311-.182-.619-.278-.928-.06-.191-.078-.392-.264-.5a3.818,3.818,0,0,0-1.436-.289l-.133-.118a2.09,2.09,0,0,0-.089-1.657.407.407,0,0,0-.556-.145,1.858,1.858,0,0,1-1.287.339c-.661-.508-3.325-2.8-3.737-3.048l-.014-.026a3.338,3.338,0,0,0-.829-.9L63.868,9.5a1.722,1.722,0,0,1,.371-.858.4.4,0,0,0-.476-.617l-.089.04c-.316.141-.665.294-1.029.424-.133-.05-.269-.1-.392-.145l-1.326-.533c-.219-.088-.449-.162-.66-.265a1.017,1.017,0,0,0-1.074-.795.96.96,0,0,1,.194-.346c.262-.3-.088-.87-.463-.6l-.08.056c-.1.073-.21.142-.318.208a.725.725,0,0,0-.57-.013,5.871,5.871,0,0,0-1.261.632c-.016.011-.033.021-.049.031a1.08,1.08,0,0,0-.79-.395H55.84a1.034,1.034,0,0,0-.968-.462.986.986,0,0,0-1.932-.216l-.123.4a4.339,4.339,0,0,0-1.2-.412,6.2,6.2,0,0,0-2.806.276l-.276.081c-.131-.152-.254-.308-.371-.453a.389.389,0,0,0-.657.272.528.528,0,0,1-.213.5,3.147,3.147,0,0,1-.546.026,1.8,1.8,0,0,1-.769-.142,1.014,1.014,0,0,1-.424-.35,1.019,1.019,0,0,0-1.591-.167,1.044,1.044,0,0,0-1.2.434,1.2,1.2,0,0,1-.707.387c-.244.068-.494.12-.744.165a.388.388,0,0,0-.52-.126c-.117.086-.231.175-.343.266A4.837,4.837,0,0,1,37.9,6.582c-.7-.285-1.337.494-1.222,1.148-.2.105-.421.175-.62.285a2.459,2.459,0,0,0-1.01,1.068c-.039.08-.074.161-.108.243-.163.132-.324.268-.48.412l-.783-.4c-.2-.1-.525-.03-.564.229a2.362,2.362,0,0,1-.436,1.078,17.861,17.861,0,0,0-2.056,1.263c-.755.237-1.558.375-2.218.53a.374.374,0,0,0-.222.544q.2.313.4.624-.558.546-1.061,1.146A21.29,21.29,0,0,0,25.13,18.34l-.823.332a.389.389,0,0,0-.169.64,2.442,2.442,0,0,1,.271.34,4.522,4.522,0,0,1-1.486,1.615,1.006,1.006,0,0,0-.419.508c-.067.044-.132.092-.2.141a.394.394,0,0,0-.078.611,2.47,2.47,0,0,1,.406.436l.078.28a6.917,6.917,0,0,0-1.46,1.9.327.327,0,0,0-.252.049,1.6,1.6,0,0,0-.417,1.971,7.144,7.144,0,0,0,.253,3.152,2.962,2.962,0,0,0-.754,1.563,31.965,31.965,0,0,0-.235,3.545,3.634,3.634,0,0,0-.939,1.585l-.446.222a.437.437,0,0,0-.221.386,3.126,3.126,0,0,0,.716,1.773,3.906,3.906,0,0,0,.606,1.1,8.336,8.336,0,0,1,.523.72.438.438,0,0,1,.033.066,1.486,1.486,0,0,0-.159.259,1.68,1.68,0,0,0,.154,2.036.507.507,0,0,0-.03.707c1.166,1.332,2.138,2.953,3.756,3.661a.36.36,0,0,1,.02.037,2.386,2.386,0,0,0-.1,2.015.15.15,0,0,0,.007.021c.143.427.406,1.112.88,1.245a1.594,1.594,0,0,0,.442.06q.565.544,1.127,1.089a3.809,3.809,0,0,1,.06.545.487.487,0,0,0,.609.464c.109-.032.714-.62.825-.616.056.056.11.112.165.168a1.826,1.826,0,0,1,.5.76,1.077,1.077,0,0,0,.753.971.414.414,0,0,0,.629,0c.013-.014.026-.028.04-.04l.063-.007q.146.434.292.867a1.029,1.029,0,0,0,1.442.6c.084.05.166.1.248.157.125.08.251.161.381.238.008.021.015.043.021.063a.456.456,0,0,0,.647.246,2.053,2.053,0,0,0,1.281-.016,3.289,3.289,0,0,1,.759-.271c.017,0,.034,0,.051,0A2.117,2.117,0,0,0,36.1,57.5a2.077,2.077,0,0,0,1.522-.1,3.529,3.529,0,0,0,.478.72.292.292,0,0,0,.407,0q.312-.276.62-.554c.149-.058.3-.126.456-.191a8.727,8.727,0,0,0,1.483-.573,2.518,2.518,0,0,0,.585-.517,4.217,4.217,0,0,0,.864-.667.866.866,0,0,0,.4-.1,1.652,1.652,0,0,0,.865-1.43,10.085,10.085,0,0,0,.781-3.31,8.241,8.241,0,0,0,0-1.13,1.982,1.982,0,0,0-.187-.681,2.06,2.06,0,0,1-.088-.229c.006-.253.009-.506.012-.759a1.42,1.42,0,0,1,.359-.578.928.928,0,0,0,.144-1.113l-.465-.619c.044-.885.256-2.294-.215-2.442.019-.131.06-.261.082-.392a2.382,2.382,0,0,0-.289-1.738q-.1-.153-.177-.314l-.091-.543q-.072-.42-.132-.843c-.021-.36-.039-.72-.06-1.081q-.029-.5-.063-1c.009-.149.022-.3.041-.446a2.733,2.733,0,0,1,1.1-1.832c.1-.016.2-.033.292-.052A4.44,4.44,0,0,1,46.2,34.8c.5.056.948.272,1.435,0,.143-.082.458-.309.485-.489a.136.136,0,0,1,.007-.029,1.007,1.007,0,0,1,.1-.01c.386-.013.755.139,1.145.1a1.792,1.792,0,0,0,1.145-.557,2.85,2.85,0,0,0,1.063.077,2.362,2.362,0,0,0,.842-.285c.194-.105.133-.135.345-.05a2.289,2.289,0,0,0,1.462.32,1.558,1.558,0,0,0,.73-.426c.048-.048.13-.119.186-.187.258.131.907.426,1.014.452a1.657,1.657,0,0,0,.917-.036c.216-.072.481-.27.671-.31.245-.053.791.289,1.084.407a2.067,2.067,0,0,0,1.58.044c.179-.073.527-.365.662-.362a14.617,14.617,0,0,1,1.008,2.276c.739,2.17.93,8.946.589,10.674-.013.051-.027.1-.041.152a24.566,24.566,0,0,1-1.556,4.433,7.238,7.238,0,0,1-2.888,3.23,8.19,8.19,0,0,1-4.488.844,15.58,15.58,0,0,1-2.907-.511q-.746-.2-1.483-.422c-.214-.065-.432-.126-.643-.2a.984.984,0,0,0-.922.027.671.671,0,0,0-.238.907c.275.474.777.506,1.263.644s.991.275,1.491.4a19.276,19.276,0,0,0,2.911.488,10.018,10.018,0,0,0,5.166-.847q.271-.131.523-.28c-.062.087-.126.174-.19.261a.571.571,0,0,0,.2.777c.079.041.158.081.237.119.011.026.022.051.035.077a1.741,1.741,0,0,0,1.19.843,7.06,7.06,0,0,0,1.81.023l1.631-.049.385-.012,1.936-.058a1.932,1.932,0,0,0,1.088-.2,1.608,1.608,0,0,0,.6-.445,2.485,2.485,0,0,0,.3-.159,3.91,3.91,0,0,0,.836-.735.812.812,0,0,0,1.116-.53c.135-.864,1.257-1.233,1.782-1.858a2.818,2.818,0,0,0,.71-1.8,3.869,3.869,0,0,0,1.782-3.031c.063-.535.054-1.108.145-1.652a.89.89,0,0,0,.107-.139,11.565,11.565,0,0,0,.707-1.336,1.842,1.842,0,0,1,.967-.346.766.766,0,0,0,.2-1.5l-.011,0a2.157,2.157,0,0,0-.067-1.75c.012-.058.022-.114.033-.172a2.62,2.62,0,0,0,.7-1.862,2.281,2.281,0,0,1,.707-.335.453.453,0,0,0,.107-.817,1.385,1.385,0,0,1-.3-.3,1.931,1.931,0,0,0-.294-1.831l.8-1.021a.589.589,0,0,0,0-.821l-.516-.41Z" fill-rule="evenodd"/>
        <path id="Tracé_6012" data-name="Tracé 6012" d="M58.218,46.964a.692.692,0,0,1,1.252.163c.261,1.177-1.141,2.263-2.207,2.29A1.988,1.988,0,0,1,55.17,47.4c.038-.282.414-.247.542-.071l.05.068c.348.468.807.952,1.454.838a1.107,1.107,0,0,0,.673-.43c.2-.26.174-.571.33-.846Zm-6.731-8.608a.629.629,0,0,1,.415.03.817.817,0,0,1,.6.559c.006.023.014.047.022.069l.013.034-.034-.087c.016.086.085.175.11.261a.938.938,0,0,1,.028.341c.09,0,.18,0,.27.012l.087.008a1.668,1.668,0,0,1,1.31.549.484.484,0,0,1-.288.708c-.458.07-.853-.184-1.31-.235a4.564,4.564,0,0,0-1.31.058c-.88.161-1.688.518-2.546.741l-.117.03h0c-.147.035-.314-.169-.168-.288a7.586,7.586,0,0,1,2.433-1.3.775.775,0,0,1-.079-.681c.013-.045.03-.088.047-.131l.037-.089a.65.65,0,0,1,.023-.124l0-.012h0a.673.673,0,0,1,.448-.451Zm8.763.032a.48.48,0,0,1,.648-.012l.026.02a1.237,1.237,0,0,1,.615.967,1.592,1.592,0,0,1,1.224.5.474.474,0,0,1,.122.462l-.035.1c-.112.3-.616.478-.787.121l-.008-.018c-.182-.424-.881-.379-1.252-.336a4.809,4.809,0,0,0-.764.167c-.088.026-.175.053-.263.081l-.087.028c-.047.015-.289.147-.138.115.04-.008.071.051.03.071a.267.267,0,0,1-.359-.278c.021-.335.553-.518.809-.634l.016-.007c.1-.046.2-.089.307-.13a1.5,1.5,0,0,1-.15-.293,1.3,1.3,0,0,1-.079-.3.3.3,0,0,1,0-.156l0-.015a.478.478,0,0,1-.01-.106l0-.014h0a.51.51,0,0,1,.136-.332Zm-3,3.568c.721.223,1.912.831,1.536,1.769-.525.861-1.917.228-2.593-.05a.483.483,0,0,0-.336.905c4.844,1.917,4.827-3.143,1.568-3.069C57.066,41.52,57.054,41.882,57.249,41.956Zm-6.41-6.6.123-.036c.64-.186,1.293-.506,1.861-.006a.7.7,0,0,1,.109.848c-.363.558-.9.473-1.49.52a4.611,4.611,0,0,0-1.3.332,4.563,4.563,0,0,0-.956.534c-.293.207-.494.531-.795.718a.191.191,0,0,1-.277-.113,1.584,1.584,0,0,1,.3-1.219,3.115,3.115,0,0,1,1.017-1,5.487,5.487,0,0,1,1.415-.582Zm9.321-.423a3.391,3.391,0,0,1,2.726,1.483.676.676,0,0,1-.24.916.686.686,0,0,1-.9-.223l-.013-.017a3.364,3.364,0,0,0-1.324-1.063,3.5,3.5,0,0,0-.824-.257l-.09-.016a1.242,1.242,0,0,0-.389-.022.441.441,0,0,0-.17.059.071.071,0,0,1-.1.088c-.268-.148-.236-.411-.014-.616a2.151,2.151,0,0,1,1.339-.333Z" fill-rule="evenodd"/>
        <path id="Tracé_6013" data-name="Tracé 6013" d="M57.757,45.155a5.952,5.952,0,0,0-3.15.09c-1.385.332-2.778,1.05-3.209,2.175-.485,1.268.483,1.667.625,1.6.959.068,2.1-.536,3.105-.691a6.965,6.965,0,0,0,2.44-.672A18.449,18.449,0,0,0,60.4,48.4c.866.229,1.241.724,2.045.619.962-.126.568-2.151-.5-2.971a5.258,5.258,0,0,0-4.187-.893Zm1.809,8.657c-.8.195-.853-1.558-.943-2.177-.07-.484-.464-1.731-1.465-1.678a1.563,1.563,0,0,0-1.326,1.749c.033.422.422,2.558-.818,2.827a14.74,14.74,0,0,1-2.536-.209c-.978-.222-2.25-1-2.586.53-.121.55,4.188,2.184,6.1,2.332a6.172,6.172,0,0,0,5.588-1.7,9.1,9.1,0,0,0,1.262-2.082c.132-.721-.174-1.185-1.066-.931A18.273,18.273,0,0,1,59.566,53.812Z" fill-rule="evenodd"/>
        <path id="Tracé_6014" data-name="Tracé 6014" d="M65.02,42.452a3.706,3.706,0,0,1-3.99.774c-3.408-1.424-1.74-5.867.888-7.06a8.82,8.82,0,0,1,1.167-.32c.036-.018.115.033.21-.015,2.9.324,3.558,4.824,1.725,6.621m-10.992.264a4.208,4.208,0,0,1-4.9,1.252c-3.358-1.323-2.167-5.262.131-6.807,4.852-1.824,6.856,2.817,4.768,5.555m-7.278-3.29-.009,0,.053-.024-.018.045a.2.2,0,0,0-.026-.018m20.58-1.6a1.5,1.5,0,0,0-.9.236c-.559-1.887-2.623-3.633-4.419-2.36a4.989,4.989,0,0,0-3.059,2.8,3.387,3.387,0,0,0-3.7.48,3.874,3.874,0,0,0-3.9-2.829c-1.952-.32-3.9,1.577-4.5,3.1a2.784,2.784,0,0,0-1.734.093c-3.082-.809-8.47-1.254-9.1-.805-.446.171-.692,1.226-.068,1.283.543-.077-.064-.772.484-.849,2.919-.181,5.752.407,8.64.654a1.69,1.69,0,0,0,1.535.324c-.7,2.581.811,4.337,3.075,4.862a4.628,4.628,0,0,0,5.639-5.6,5.035,5.035,0,0,1,3.44-.228c-1.933,7.118,9.526,6.8,7.736-.689,1.191.593,1.45-.36.825-.48" fill-rule="evenodd"/>
      </g>
    </g>
    <g id="Groupe_de_masques_48" data-name="Groupe de masques 48" transform="translate(-134 -56)" clip-path="url(#clip-path-2)">
      <g id="Groupe_3563" data-name="Groupe 3563" transform="translate(-13130.29 -2364.242)">
        <g id="Groupe_3562" data-name="Groupe 3562">
          <g id="Groupe_3561" data-name="Groupe 3561" transform="translate(0.8)">
            <g id="Groupe_3560" data-name="Groupe 3560" transform="translate(0)">
              <path id="Tracé_6015" data-name="Tracé 6015" d="M36.13,26a4.34,4.34,0,0,0-3.732-.147l-4.552,2.5c-.956.525-.835,1.443.268,2.051L44.65,39.479a4.34,4.34,0,0,0,3.732.148l4.552-2.5c.956-.525.836-1.442-.268-2.051Z" transform="translate(-6.03 25.264)" fill="#e1e3ee" fill-rule="evenodd"/>
              <path id="Tracé_6016" data-name="Tracé 6016" d="M30.354,3.627a1.73,1.73,0,0,1,1.7.127L48.24,12.636a5.832,5.832,0,0,1,2.591,4.711V58.614a2.283,2.283,0,0,1-.736,1.893l0,.013-2.891,1.587-1.345-3.489-13.3-7.3a5.832,5.832,0,0,1-2.593-4.711L29.46,11.964l-2-6.751Z" transform="translate(-5.724 1.838)" fill="#7887da" fill-rule="evenodd"/>
              <g id="Groupe_3540" data-name="Groupe 3540" transform="translate(21.738 5.299)" clip-path="url(#clip-path-3)">
                <rect id="Rectangle_3299" data-name="Rectangle 3299" width="5.035" height="43.332" transform="translate(19.307 15.7)" fill="#4b61dc"/>
              </g>
              <path id="Tracé_6018" data-name="Tracé 6018" d="M48.417,18.117a5.832,5.832,0,0,0-2.593-4.711L29.643,4.525c-1.431-.789-2.593.05-2.593,1.863V47.655a5.832,5.832,0,0,0,2.593,4.711l16.183,8.882c1.432.789,2.593-.05,2.593-1.863Z" transform="translate(-6.206 2.656)" fill="#10243e" fill-rule="evenodd"/>
              <g id="Groupe_3542" data-name="Groupe 3542" transform="translate(22.012 8.522)">
                <path id="Tracé_6019" data-name="Tracé 6019" d="M46.622,17.393a5.194,5.194,0,0,0-2.31-4.2L29.9,5.286c-1.274-.7-2.31.044-2.31,1.657V46.69a5.2,5.2,0,0,0,2.31,4.2L44.312,58.8c1.275.7,2.31-.044,2.31-1.657Z" transform="translate(-27.589 -5.023)" fill="#e1e3ee" fill-rule="evenodd"/>
                <g id="Groupe_3541" data-name="Groupe 3541" transform="translate(0)" clip-path="url(#clip-path-4)">
                  <rect id="Rectangle_3300" data-name="Rectangle 3300" width="19.034" height="10.92" transform="translate(-0.001 -1.965)" fill="#f2f3f7"/>
                </g>
              </g>
              <path id="Tracé_6021" data-name="Tracé 6021" d="M44.767,20.56a1.1,1.1,0,0,0-.49-.891L28.769,11.158c-.271-.148-.49.009-.49.353v3.576a1.1,1.1,0,0,0,.49.891l15.507,8.511c.271.148.49-.009.49-.353Z" transform="translate(-4.769 9.96)" fill="#f2f3f7" fill-rule="evenodd"/>
              <path id="Tracé_6022" data-name="Tracé 6022" d="M42.936,20.693a2.446,2.446,0,0,0-1.084-1.972L29.917,12.173c-.6-.33-1.084.021-1.084.782a2.446,2.446,0,0,0,1.084,1.972l11.935,6.548C42.448,21.8,42.936,21.454,42.936,20.693Z" transform="translate(-4.127 10.962)" fill="#e1e3ee" fill-rule="evenodd"/>
              <path id="Tracé_6023" data-name="Tracé 6023" d="M35.709,16.634a1.93,1.93,0,0,0-.858-1.559L29.832,12.32c-.474-.26-.858.017-.858.617a1.93,1.93,0,0,0,.858,1.559l5.019,2.755C35.325,17.51,35.709,17.234,35.709,16.634Z" transform="translate(-3.956 11.15)" fill="#7887da" fill-rule="evenodd"/>
              <path id="Tracé_6024" data-name="Tracé 6024" d="M44.767,33.381a1.1,1.1,0,0,0-.49-.891L28.769,23.979c-.271-.148-.49.009-.49.353v3.576a1.1,1.1,0,0,0,.49.891L44.276,37.31c.271.148.49-.009.49-.353Z" transform="translate(-4.769 23.584)" fill="#f2f3f7" fill-rule="evenodd"/>
              <ellipse id="Ellipse_907" data-name="Ellipse 907" cx="1.294" cy="1.42" rx="1.294" ry="1.42" transform="translate(24.738 48.958)" fill="#4b61dc"/>
              <ellipse id="Ellipse_908" data-name="Ellipse 908" cx="1.294" cy="1.42" rx="1.294" ry="1.42" transform="translate(28.552 51.051)" fill="#4b61dc"/>
              <ellipse id="Ellipse_909" data-name="Ellipse 909" cx="1.294" cy="1.42" rx="1.294" ry="1.42" transform="translate(32.367 53.145)" fill="#4b61dc"/>
              <ellipse id="Ellipse_910" data-name="Ellipse 910" cx="1.294" cy="1.42" rx="1.294" ry="1.42" transform="translate(36.182 55.238)" fill="#4b61dc"/>
              <path id="Tracé_6025" data-name="Tracé 6025" d="M44.767,23.633a1.147,1.147,0,0,0-.51-.926l-15.468-8.49c-.281-.158-.51.009-.51.367v7.684a1.147,1.147,0,0,0,.51.927l15.468,8.489c.281.158.51-.009.51-.367Z" transform="translate(-4.769 13.207)" fill="#f2f3f7" fill-rule="evenodd"/>
              <path id="Tracé_6026" data-name="Tracé 6026" d="M44.767,28.5a1.147,1.147,0,0,0-.51-.926L28.789,19.087c-.281-.158-.51.009-.51.367v7.68a1.147,1.147,0,0,0,.51.926l15.468,8.493c.281.158.51-.009.51-.367Z" transform="translate(-4.769 18.382)" fill="#f2f3f7" fill-rule="evenodd"/>
              <path id="Tracé_6027" data-name="Tracé 6027" d="M36.267,10.788a1.7,1.7,0,0,0-.758-1.373L31.447,7.182c-.418-.23-.758.014-.758.545A1.705,1.705,0,0,0,31.447,9.1l4.062,2.229C35.927,11.562,36.267,11.318,36.267,10.788Z" transform="translate(-1.949 5.702)" fill="#10243e" fill-rule="evenodd"/>
              <path id="Tracé_6028" data-name="Tracé 6028" d="M39.513,14.627a1.706,1.706,0,0,0-.76-1.377L30.475,8.7c-.418-.23-.758.014-.758.545a1.705,1.705,0,0,0,.758,1.377l8.279,4.546C39.174,15.4,39.513,15.157,39.513,14.627Z" transform="translate(-3.086 7.321)" fill="#4b61dc" fill-rule="evenodd"/>
              <g id="Groupe_3543" data-name="Groupe 3543" transform="matrix(0.5, -0.866, 0.866, 0.5, 35.357, 12.766)">
                <path id="Tracé_6029" data-name="Tracé 6029" d="M1.089,4.245h0l.4-.231L1.281,2.558,1.258,1.514A1.7,1.7,0,0,0,.626.266L.582-.045l-.4.237h0A.551.551,0,0,0-.046.724L0,2.922A1.675,1.675,0,0,0,.674,4.2a.409.409,0,0,0,.415.047Z" transform="translate(-0.001 0.015)" fill="#4b61dc" fill-rule="evenodd"/>
                <path id="Tracé_6030" data-name="Tracé 6030" d="M1.312,3.533c.01.485-.273.7-.632.484a1.675,1.675,0,0,1-.67-1.274L-.04.545C-.049.056.235-.157.592.061a1.675,1.675,0,0,1,.673,1.274Z" transform="translate(0.381 -0.03)" fill="#abb3db" fill-rule="evenodd"/>
              </g>
              <g id="Groupe_3553" data-name="Groupe 3553" transform="translate(44.047 21.08)">
                <path id="Tracé_6046" data-name="Tracé 6046" d="M25.765,18.929a.87.87,0,0,1,.827.058l5.631,2.965a2.692,2.692,0,0,1,1.258,2.193v5.522a.987.987,0,0,1-.431.925l-.009,0-1.626.858-1.237-2-3.588-1.893a2.692,2.692,0,0,1-1.259-2.193V21.619l-1.148-1.857Z" transform="translate(-23.746 -18.852)" fill="#40c3fd" fill-rule="evenodd"/>
                <path id="Tracé_6047" data-name="Tracé 6047" d="M32.131,24.555A2.666,2.666,0,0,0,30.9,22.376l-5.685-2.992c-.68-.358-1.232.037-1.232.882v5.522a2.666,2.666,0,0,0,1.232,2.175l5.685,2.99c.681.358,1.232-.037,1.232-.882Z" transform="translate(-23.982 -18.425)" fill="#88daff" fill-rule="evenodd"/>
                <rect id="Rectangle_3301" data-name="Rectangle 3301" width="0.979" height="2.058" transform="translate(1.294 5.832)" fill="#fff"/>
                <rect id="Rectangle_3302" data-name="Rectangle 3302" width="0.979" height="2.942" transform="translate(2.682 5.711)" fill="#fff"/>
                <rect id="Rectangle_3303" data-name="Rectangle 3303" width="0.979" height="4.24" transform="translate(4.07 5.174)" fill="#fff"/>
                <rect id="Rectangle_3304" data-name="Rectangle 3304" width="0.979" height="3.313" transform="translate(5.457 6.862)" fill="#fff"/>
              </g>
              <g id="Groupe_3554" data-name="Groupe 3554" transform="translate(44.047 31.851)">
                <path id="Tracé_6048" data-name="Tracé 6048" d="M25.765,18.929a.87.87,0,0,1,.827.058l5.631,2.965a2.692,2.692,0,0,1,1.258,2.193v5.522a.987.987,0,0,1-.431.925l-.009,0-1.626.858-1.237-2-3.588-1.893a2.692,2.692,0,0,1-1.259-2.193V21.619l-1.148-1.857Z" transform="translate(-23.746 -18.852)" fill="#40c3fd" fill-rule="evenodd"/>
                <path id="Tracé_6049" data-name="Tracé 6049" d="M32.131,24.555A2.666,2.666,0,0,0,30.9,22.376l-5.685-2.992c-.68-.358-1.232.037-1.232.882v5.522a2.666,2.666,0,0,0,1.232,2.175l5.685,2.99c.681.358,1.232-.037,1.232-.882Z" transform="translate(-23.982 -18.425)" fill="#88daff" fill-rule="evenodd"/>
                <path id="Tracé_6050" data-name="Tracé 6050" d="M25.1,21.135,26.7,21l1.6,1.893-1.6.136Zm1.441,2.107V25.27l-1.6-1.893V21.35Zm1.918.039v2.028l-1.6.136V23.417Z" transform="translate(-22.865 -16.568)" fill="#fff" fill-rule="evenodd"/>
              </g>
              <g id="Groupe_3555" data-name="Groupe 3555" transform="translate(44.047 42.437)">
                <path id="Tracé_6051" data-name="Tracé 6051" d="M25.765,18.929a.87.87,0,0,1,.827.058l5.631,2.965a2.692,2.692,0,0,1,1.258,2.193v5.522a.987.987,0,0,1-.431.925l-.009,0-1.626.858-1.237-2-3.588-1.893a2.692,2.692,0,0,1-1.259-2.193V21.619l-1.148-1.857Z" transform="translate(-23.746 -18.852)" fill="#40c3fd" fill-rule="evenodd"/>
                <path id="Tracé_6052" data-name="Tracé 6052" d="M32.131,24.555A2.666,2.666,0,0,0,30.9,22.376l-5.685-2.992c-.68-.358-1.232.037-1.232.882v5.522a2.666,2.666,0,0,0,1.232,2.175l5.685,2.99c.681.358,1.232-.037,1.232-.882Z" transform="translate(-23.982 -18.425)" fill="#88daff" fill-rule="evenodd"/>
                <path id="Tracé_6053" data-name="Tracé 6053" d="M46.028,33.79s.187.2.039.668a5.556,5.556,0,0,0-.273,2.051A2.787,2.787,0,0,0,46.1,37.6a6.863,6.863,0,0,1-2.753-1.071,2,2,0,0,1-.354-1.1,11,11,0,0,1,.471-2.367.859.859,0,0,0-.142-.648,11.066,11.066,0,0,1,2.7,1.383Zm-2.245,1.5s.366.191.762.373a.1.1,0,0,0,.132-.122.1.1,0,0,0-.05-.054c-.391-.179-.753-.368-.753-.368a.1.1,0,0,0-.132.041.1.1,0,0,0-.007.076.1.1,0,0,0,.049.058Zm.155-1.191a12.146,12.146,0,0,0,1.476.659.095.095,0,0,0,.11-.139.1.1,0,0,0-.059-.044,11.715,11.715,0,0,1-1.44-.645.1.1,0,0,0-.137.116.1.1,0,0,0,.049.056Zm-.124.525a12.145,12.145,0,0,0,1.476.659.1.1,0,0,0,.121-.065.1.1,0,0,0-.008-.074.1.1,0,0,0-.057-.046,11.713,11.713,0,0,1-1.44-.645.1.1,0,0,0-.141.116.1.1,0,0,0,.047.058Z" transform="translate(-40.833 -28.502)" fill="#fff" fill-rule="evenodd"/>
              </g>
              <g id="Groupe_3559" data-name="Groupe 3559" transform="translate(0 13.226) rotate(-45)">
                <path id="Tracé_6062" data-name="Tracé 6062" d="M7.533-.638a8.91,8.91,0,0,1,8.595,8.595A7.885,7.885,0,0,1,7.957,16.12,8.91,8.91,0,0,1-.638,7.525,7.885,7.885,0,0,1,7.533-.638Z" transform="translate(0 0)" fill="#4b61dc"/>
                <path id="Tracé_6059" data-name="Tracé 6059" d="M-.083.975A1.021,1.021,0,0,1,.975-.083,1.154,1.154,0,0,1,2.087,1.03l.077,3.037L7.438,4.2a1.154,1.154,0,0,1,1.11,1.113A1.021,1.021,0,0,1,7.491,6.371L1.135,6.21A1.153,1.153,0,0,1,.022,5.1Z" transform="translate(3.934 4.172)" fill="#f2f3f7" fill-rule="evenodd"/>
                <path id="Tracé_6060" data-name="Tracé 6060" d="M2.373.151a.817.817,0,0,1,.753-.438A.923.923,0,0,1,3.9.19l3.2,5.779L-.543,5.775Z" transform="translate(11.146 18.317) rotate(180)" fill="#4b61dc" fill-rule="evenodd"/>
              </g>
            </g>
          </g>
          <g id="_15" data-name="15" transform="translate(0 32.901)">
            <rect id="Rectangle_3305" data-name="Rectangle 3305" width="7.743" height="7.889" rx="0.653" transform="translate(3.871 3.945)" fill="#bbdefb"/>
            <path id="Tracé_6061" data-name="Tracé 6061" d="M2.081,6.829a.782.782,0,0,1-.774-.789V2.1a.782.782,0,0,1,.774-.789H5.952a.789.789,0,0,1,0,1.578h-3.1V6.04A.782.782,0,0,1,2.081,6.829ZM5.952,17.085H2.081a.782.782,0,0,1-.774-.789V12.351a.774.774,0,1,1,1.549,0v3.156h3.1a.789.789,0,0,1,0,1.578Zm10.066,0H12.147a.789.789,0,0,1,0-1.578h3.1V12.351a.774.774,0,1,1,1.549,0V16.3A.782.782,0,0,1,16.018,17.085Zm0-10.256a.782.782,0,0,1-.774-.789V2.884h-3.1a.789.789,0,0,1,0-1.578h3.871a.782.782,0,0,1,.774.789V6.04A.782.782,0,0,1,16.018,6.829ZM13.7,9.985H4.4a.789.789,0,0,1,0-1.578H13.7a.789.789,0,0,1,0,1.578Z" transform="translate(-1.307 -1.307)" fill="#1e88e5"/>
          </g>
        </g>
      </g>
    </g>
  </g>
</svg>
