<svg height="60" width="60" xmlns="http://www.w3.org/2000/svg"><defs><clipPath id="a"><path stroke="#707070" fill="#fff" transform="translate(-6584 1652)" d="M0 0h28v28H0z"/></clipPath></defs><g clip-path="url(#a)" transform="translate(6599 -1636)"><path fill="#a3bc3b" d="M-6565.8 1678.6a1.506 1.506 0 01-1.4 1.4h-5.6a1.4 1.4 0 010-2.8h1.4v-2.94a4.763 4.763 0 001.4.14 4.763 4.763 0 001.4-.14v2.94h1.4a1.506 1.506 0 011.4 1.4z"/><path fill="#f4aa40" d="M-6558.8 1656.9a4.969 4.969 0 01-4.2 4.9v-4.48c0-.14 0-.14-.14-.28 0-.14-.14-.28-.28-.42l-.14-.14c-.14-.14-.28-.14-.42-.28h-4.62a5.2 5.2 0 012.52-3.64 6.6 6.6 0 012.38-.56 4.96 4.96 0 014.9 4.9z"/><path fill="#d0e286" d="M-6563 1657.6v9.8a7.042 7.042 0 01-5.6 6.86 4.763 4.763 0 01-1.4.14 4.763 4.763 0 01-1.4-.14 2.6 2.6 0 01-.98-.28c-.42-.14-.84-.42-1.26-.56a5.482 5.482 0 01-1.4-1.12.489.489 0 01-.14-.28l-.42-.42c-.14-.28-.28-.42-.42-.7a4.193 4.193 0 01-.56-1.4v-.14a4.472 4.472 0 01-.42-1.96v-9.8a1.506 1.506 0 011.4-1.4h11.2c.28 0 .42 0 .56.14.14 0 .28.14.42.28l.14.14c.14.14.14.28.28.42 0 .14 0 .14.14.28-.14 0-.14 0-.14.14z"/><path fill="#f4aa40" d="M-6571.82 1656.2h-2.94l-.42-1.4h-4.62a1.506 1.506 0 01-1.4-1.4 1.506 1.506 0 011.4-1.4h5.6a1.686 1.686 0 011.4.98z"/><path opacity=".1" d="M-6558.8 1656.9a4.969 4.969 0 01-4.2 4.9v5.6a7.042 7.042 0 01-5.6 6.86v2.94h1.4a1.4 1.4 0 110 2.8h-5.6a1.4 1.4 0 010-2.8h1.4v-2.94a2.6 2.6 0 01-.98-.28c-.42-.14-.84-.42-1.26-.56a5.482 5.482 0 01-1.4-1.12.489.489 0 01-.14-.28l-.42-.42c5.46-3.78 7.98-10.36 8.96-15.4.28-1.4.42-2.52.56-3.64a6.6 6.6 0 012.38-.56 4.96 4.96 0 014.9 4.9z"/></g></svg>