<svg height="60" width="60" xmlns="http://www.w3.org/2000/svg"><defs><clipPath id="a"><path stroke="#707070" fill="#fff" transform="translate(-6625 1602)" d="M0 0h30v30H0z"/></clipPath></defs><g clip-path="url(#a)" transform="translate(6640 -1587)"><path fill="#bc79ff" d="M-6605.289 1632h-13.382a1.075 1.075 0 01-1.079-1.079v-21.447h14.447V1632z"/><path fill="#5e4ce5" d="M-6601.276 1632h-4.027v-22.526h5.039v21.513a1 1 0 01-1.012 1.013zm-4.013-22.526l2.513-5.434 2.526 5.434z"/><path fill="#bc79ff" d="M-6619.75 1609.474l2.526-5.434h14.448l-2.513 5.434z"/><path fill="#3c23a8" d="M-6603.5 1602h-13a.73.73 0 00-.724.724v1.329h14.448v-1.329a.722.722 0 00-.724-.724z"/><path fill="#fff7ee" d="M-6619.75 1613.908v7.224l14.461 1.5v-7.527z"/><path fill="#60caef" d="M-6616.75 1616.421a.283.283 0 01.25.184l.8 2.158h.039l.8-2.158a.283.283 0 01.25-.184h.355a.29.29 0 01.276.289v2.855a.281.281 0 01-.276.289h-.086a.29.29 0 01-.276-.289v-1.96h-.024l-.75 2.053a.283.283 0 01-.25.184h-.066a.283.283 0 01-.25-.184l-.75-2.066h-.026v1.974a.281.281 0 01-.276.289h-.095a.29.29 0 01-.276-.289v-2.855a.281.281 0 01.276-.289zm3.7 3.434h-.118a.29.29 0 01-.276-.289v-2.855a.281.281 0 01.276-.289h.118a.29.29 0 01.276.289v2.855a.3.3 0 01-.279.292zm1.066-3.434h.118a.29.29 0 01.276.289v2.263a.281.281 0 00.276.289h.816a.29.29 0 01.276.289.281.281 0 01-.276.289h-1.476a.29.29 0 01-.276-.289v-2.854a.276.276 0 01.263-.276zm2.447 0h.118a.29.29 0 01.276.289v1.237h.039l1.062-1.421a.275.275 0 01.211-.105h.079a.3.3 0 01.211.487l-.671.882a.318.318 0 00-.013.355l.789 1.263a.3.3 0 01-.224.461h-.132a.271.271 0 01-.224-.132l-.592-.961a.265.265 0 00-.434-.026l-.039.053a.314.314 0 00-.066.184v.579a.281.281 0 01-.276.289h-.119a.29.29 0 01-.276-.289v-2.855a.281.281 0 01.276-.29z"/><path fill="#eddfd1" d="M-6605.289 1615.105l5.039-.961v7.092l-5.039 1.395z"/></g></svg>