<svg height="60" width="60" xmlns="http://www.w3.org/2000/svg"><defs><clipPath id="a"><path stroke="#707070" fill="#fff" transform="translate(-6573 1667)" d="M0 0h30v30H0z"/></clipPath></defs><g clip-path="url(#a)" transform="translate(6588 -1652)"><path fill="#3179af" d="M-6557.998 1670.228a6.274 6.274 0 00-6.276 6.274v9.323h12.55v-9.323a6.274 6.274 0 00-6.274-6.274z"/><path fill="#265e87" d="M-6555.071 1682.777v-1.2a7.48 7.48 0 00-7.47-7.47 7.838 7.838 0 00-1.309.114 6.243 6.243 0 00-.424 2.281v6.275z"/><path fill="#265e87" d="M-6560.928 1681.582v1.2h7.793a2.152 2.152 0 001.41 1.685v-7.965a6.266 6.266 0 00-.424-2.277 7.253 7.253 0 00-1.309-.113 7.48 7.48 0 00-7.47 7.47z"/><path fill="#4893cc" d="M-6563.623 1673.712l.066.054c.592.257 1.566-.669 2.116-.52.639.179 1 1.458 1.542 1.536.723.1 1.422-1.064 1.894-1.064.645 0 1.333 1.141 1.9 1.064.657-.09 1.016-1.386 1.542-1.536.7-.2 1.679.711 2.116.52l.066-.054a6.27 6.27 0 00-5.617-3.484 6.285 6.285 0 00-5.625 3.484z"/><path fill="#ffc970" d="M-6561.752 1680.74l-1.685.616a.6.6 0 01-.765-.359l-4.578-12.58a.6.6 0 01.358-.765l1.686-.615a.6.6 0 01.765.359l4.573 12.579a.6.6 0 01-.354.765z"/><path fill="#ffb233" d="M-6566.33 1675.146l2.132 5.851a.6.6 0 00.765.359l1.685-.616a.6.6 0 00.359-.765l-2.11-5.8a7.293 7.293 0 00-2.831.971z"/><path fill="#d84861" d="M-6564.95 1670.202l-3.215-.1-.412-1.123 3.221.1zm1.022 2.811l-3.215-.1-.412-1.125 3.221.1z"/><path fill="#c12944" d="M-6562.906 1675.815l-3.215-.1-.412-1.125 3.221.1z"/><path fill="#9cd3fc" d="M-6559.493 1687.439h2.988v9.562h-2.988z"/><path fill="#cde9fe" d="M-6559.493 1687.439h1.494v9.562h-1.494z"/><path fill="#6abdfb" d="M-6559.493 1687.439h2.988v4.183h-2.988zm6.083 9.563h-9.179a.728.728 0 01-.729-.729.733.733 0 01.418-.663l3.406-1.6h2.988l3.406 1.6a.726.726 0 01.418.663.732.732 0 01-.728.729z"/><path fill="#9cd3fc" d="M-6556.727 1697.002h-5.862a.728.728 0 01-.729-.729.733.733 0 01.418-.663l3.406-1.6h1.496l1.8 1.548a.827.827 0 01.287.622.816.816 0 01-.816.822z"/><path fill="#b23998" d="M-6562.541 1675.307a6.274 6.274 0 00-6.275 6.275l6.275 4.243 6.275-4.243a6.274 6.274 0 00-6.275-6.275z"/><path fill="#9cd3fc" d="M-6568.816 1681.582h21.633a8.847 8.847 0 01-8.844 8.844h-3.945a8.847 8.847 0 01-8.844-8.844z"/><path fill="#6abdfb" d="M-6549.812 1681.582s-3.962 8.844-8.844 8.844h2.629a8.836 8.836 0 008.844-8.844h-2.629z"/><path fill="#c955b0" d="M-6568.165 1678.791l.066.054c.592.257 1.566-.669 2.116-.52.639.179 1 1.458 1.542 1.536.723.1 1.422-1.064 1.894-1.064.645 0 1.333 1.141 1.9 1.064.657-.09 1.016-1.386 1.542-1.536.7-.2 1.679.711 2.116.52l.066-.054a6.27 6.27 0 00-5.617-3.484 6.285 6.285 0 00-5.625 3.484z"/><path fill="#8b2d77" d="M-6556.266 1681.582s-1.04-3.974-2.635-5.109a7.453 7.453 0 00-2.027 5.109z"/><path fill="#b23998" d="M-6560.725 1679.861h.084c.657-.09 1.016-1.386 1.542-1.536.7-.2 1.679.711 2.116.52l.066-.054a6.258 6.258 0 00-1.981-2.318 7.466 7.466 0 00-1.827 3.388z"/><path fill="#d84861" d="M-6559.732 1681.582h6.872a.9.9 0 01.9.9.9.9 0 00.9.9h.06a1.431 1.431 0 011.434 1.434 1.2 1.2 0 001.2 1.2 1.2 1.2 0 001.2-1.2v-3.234a6.274 6.274 0 00-6.292-6.275 6.274 6.274 0 00-6.274 6.275z"/><path fill="#e17084" d="M-6559.081 1678.791l.066.054c.592.257 1.566-.669 2.116-.52.639.179 1 1.458 1.542 1.536.723.1 1.422-1.064 1.894-1.064.645 0 1.333 1.141 1.9 1.064.657-.09 1.016-1.386 1.542-1.536.7-.2 1.679.711 2.116.52l.066-.054a6.27 6.27 0 00-5.619-3.484 6.285 6.285 0 00-5.623 3.484z"/><path fill="#cde9fe" d="M-6566.187 1681.582a7.654 7.654 0 002.241 5.408l.269.269a2.849 2.849 0 002.02.837.741.741 0 00.586-1.2 7.661 7.661 0 01-1.59-4.667v-.647z"/></g></svg>