<svg height="60" width="60" xmlns="http://www.w3.org/2000/svg"><defs><clipPath id="a"><path stroke="#707070" fill="#fff" transform="translate(-6613 1617)" d="M0 0h30v30H0z"/></clipPath></defs><g clip-path="url(#a)" transform="translate(6628 -1602)"><path fill="#873000" d="M-6585.576 1621.352l-2.076-2.5-.163.838c-1.638-.675-3.976-.55-6.214 3.5 0 0-2.051 4.089-10.028 7.815 0 0-8.277 3.476-5.139 10.79l-.6-.013 1.725 2.063c.013.013.013.025.025.038s5.914 8.552 15.429-2.676c.013.013 12.628-13.3 7.039-19.855z"/><path fill="#873000" d="M-6595.978 1620.815s-2.051 4.086-10.03 7.814c0 0-9.853 4.126-3.976 12.878 0 0 5.914 8.552 15.429-2.676 0 0 12.766-13.466 6.914-19.993-.01.014-4.361-5.25-8.337 1.977z"/><path fill="#f75e3b" d="M-6605.343 1643.246a6.855 6.855 0 01-3.626-2.426c-2.513-3.751-2.2-6.852.988-9.49a11.727 11.727 0 012.463-1.55l.038-.013a32.16 32.16 0 006.952-4.289 14.448 14.448 0 003.65-4.077 8.574 8.574 0 011.875-2.438 2.619 2.619 0 012.376-.638 4.452 4.452 0 012.038 1.313l.025.025c2.526 2.826.638 7.539-1.4 10.99a46.071 46.071 0 01-5.489 7.327l-.038.038a22.6 22.6 0 01-2.888 2.9l-.013.013c-2.263 1.863-4.414 2.676-6.4 2.4a4.193 4.193 0 01-.55-.088z"/><path fill="#fff" d="M-6602.543 1640.595h-.038a.982.982 0 01-.95-1.025l.123-3.489-3.251-.338a.993.993 0 01.2-1.976l5.1.525-.2 5.339a.976.976 0 01-.988.963z"/><path fill="#fff" d="M-6602.368 1636.181a1.015 1.015 0 01-.775-.363 1 1 0 01.15-1.4c.063-.05 5.839-4.751 7.5-7.539a.993.993 0 111.7 1.025c-1.838 3.076-7.714 7.852-7.952 8.052a1.011 1.011 0 01-.625.225z"/></g></svg>