<svg xmlns="http://www.w3.org/2000/svg" width="1000" height="1000" viewBox="0 0 1000 1000">
  <g id="Groupe_138" data-name="Groupe 138" transform="translate(15000 -16904)">
    <g id="Groupe_136" data-name="Groupe 136" transform="translate(67)">
      <rect id="Rectangle_102" data-name="Rectangle 102" width="1000" height="1000" rx="230" transform="translate(-15067 16904)" fill="#ff7c7c"/>
      <g id="Groupe_135" data-name="Groupe 135" transform="translate(798.397 -285.455)">
        <g id="_18169866f26bde1132c69fea88fd3a90" data-name="18169866f26bde1132c69fea88fd3a90" transform="translate(-15574.665 17497.732)">
          <g id="Groupe_133" data-name="Groupe 133" transform="translate(0 0)">
            <g id="Groupe_132" data-name="Groupe 132">
              <path id="Tracé_332" data-name="Tracé 332" d="M509.074,164.268c-1.944,28.7,9.513,109.036-28.3,184.5-13.336,27.186-33.812,52.48-62.241,70.826-83.407,54.124-170.957,26.365-258.481-11.064C136.62,398.6,90.89,380.241,90.74,346.08l.143-69.92c.151,34.141,45.929,52.54,69.315,62.447,87.765,37.534,175.178,65.12,258.481,11.064,49.357-31.852,75.639-82.44,87.424-155.724A182.77,182.77,0,0,0,509.074,164.268Z" transform="translate(-90.74 -66.413)" fill="#cf2027"/>
              <path id="Tracé_333" data-name="Tracé 333" d="M473.748,146.689c18.246,14.976,30.545,35.1,34.028,56.214,2.432,15.32.724,31.117-1.795,46.6-11.782,75.52-37.987,127.62-87.419,160.5-83.4,55.784-170.948,27.174-258.466-11.4-23.424-10.226-69.161-29.158-69.311-64.362-.135-39.883,52.875-53.023,84.284-51.977,16.235.319,33.256,3.258,48.475-1.468,27.08-8.314,40.037-35.038,53.607-53.77,8.077-10.924,17.532-21.35,23.421-33.081,8.838-16.784,10.147-34.865,26.121-48.718C361.112,115.609,429.035,109.988,473.748,146.689Z" transform="translate(-90.708 -121.064)" fill="#e02426"/>
              <path id="Tracé_334" data-name="Tracé 334" d="M158.442,365.053c-42.325-18.6-81.263-40.148-39.961-62.879,58.681-33.021,95.036,29.92,155.542-61.416,2.37-3.588,4.68-7.085,7-10.316,43.806-58.066,29.9-64.264,46.543-78.785C375,110.64,474.278,133.067,484.546,195.521c1.8,11.352.106,24.869-1.8,36.567-5.224,33.627-12.214,58.217-22.69,79.918-12.833,27.113-32.065,49.718-55.722,65.544C325.314,430.673,240.755,401.532,158.442,365.053Z" transform="translate(-83.6 -108.625)" fill="#ee4541"/>
            </g>
          </g>
          <g id="Groupe_134" data-name="Groupe 134" transform="translate(189.906 54.042)" opacity="0.54">
            <path id="Tracé_335" data-name="Tracé 335" d="M352.673,282.361l-.863.149a48.671,48.671,0,0,0-23.038,10.93c-34.914,30.311-95.749,19.647-107.353-15.746-11.564-35.15,24.16-46.629,43.162-79.185,12.007-20.551,21.725-53.5,53.224-56.864C429.86,129.735,427.906,268.047,352.673,282.361Z" transform="translate(-219.164 -140.918)" fill="#f7e28e"/>
            <path id="Tracé_336" data-name="Tracé 336" d="M273.944,288.339c-34.566,0-65.339-25.749-36.963-52.042,10.845-10.116,23.056-22.41,31.619-37.071,17.558-30.065,19.956-51.768,55.315-51.768,89.92,0,79.866,101.2,22.507,112.116C314.711,265.429,314.318,288.339,273.944,288.339Z" transform="translate(-214.473 -132.645)" fill="#efd874"/>
          </g>
        </g>
      </g>
    </g>
  </g>
</svg>
