<svg xmlns="http://www.w3.org/2000/svg" xmlns:xlink="http://www.w3.org/1999/xlink" width="1000" height="1000" viewBox="0 0 1000 1000">
  <defs>
    <clipPath id="clip-path">
      <rect id="Rectangle_97" data-name="Rectangle 97" width="400" height="380" transform="translate(-14067 16643)" fill="#fff"/>
    </clipPath>
  </defs>
  <g id="Groupe_140" data-name="Groupe 140" transform="translate(12379 -16904)">
    <g id="Groupe_128" data-name="Groupe 128">
      <rect id="Rectangle_103" data-name="Rectangle 103" width="1000" height="1000" rx="230" transform="translate(-12379 16904)" fill="#7547cb"/>
      <g id="Groupe_de_masques_23" data-name="Groupe de masques 23" transform="translate(1988 570)" clip-path="url(#clip-path)">
        <g id="dfc5955851fb5fb3eac0a4da1e020190" transform="translate(-14063.003 16636.998)">
          <path id="Tracé_301" data-name="Tracé 301" d="M269.442,359.236a14.788,14.788,0,0,1-8.7,26.767H137.386a14.788,14.788,0,0,1-8.7-26.767L159.252,337h79.626C249.046,344.413,259.275,351.825,269.442,359.236Z" fill="#e6ecf4"/>
          <path id="Tracé_302" data-name="Tracé 302" d="M284.265,254.865a12.214,12.214,0,1,1-13.34-2.687A12.25,12.25,0,0,1,284.265,254.865Z" fill="#a05454"/>
          <rect id="Rectangle_104" data-name="Rectangle 104" width="79.626" height="49.001" transform="translate(159.252 288.001)" fill="#d8e0eb"/>
          <path id="Tracé_303" data-name="Tracé 303" d="M343,92a2.3,2.3,0,0,1-.061.674,12.267,12.267,0,0,1-12.189,11.576H312.379a12.25,12.25,0,1,1,0-24.5h18.375A12.286,12.286,0,0,1,343,92Z" fill="#ffcf44"/>
          <path id="Tracé_304" data-name="Tracé 304" d="M260.071,33.81c.98.98,1.96,2.021,2.94,3.063H203.6a13.7,13.7,0,0,0-13.72,13.72v4.655a12.25,12.25,0,1,1-24.5,0V50.593a13.7,13.7,0,0,0-13.72-13.72H122.992c.858-1.041,1.838-2.083,2.818-3.063a94.934,94.934,0,0,1,134.262,0Z" fill="#a05454"/>
          <path id="Tracé_305" data-name="Tracé 305" d="M239,67.5a12.258,12.258,0,0,1,8.575,20.887,12.014,12.014,0,0,1-8.7,3.614H220.5a12.25,12.25,0,1,1,0-24.5Z" fill="#ff5666"/>
          <path id="Tracé_306" data-name="Tracé 306" d="M164.826,88.262h-.061a12.209,12.209,0,0,0-11.638-8.514H134.752a12.976,12.976,0,0,0-2.7.306c-1.593-.122-3.8-.306-6.493-.306a103.324,103.324,0,0,0-25.909,3.614,93.547,93.547,0,0,1,23.337-46.489h28.665a13.7,13.7,0,0,1,13.72,13.72v4.655a12.25,12.25,0,0,0,24.5,0V50.593a13.7,13.7,0,0,1,13.72-13.72h59.413a93.415,93.415,0,0,1,16.354,24.745c-2.266-.184-4.533-.245-6.8-.245A95.183,95.183,0,0,0,239,67.5H220.5a12.237,12.237,0,0,0-10.9,17.824c-1.47,1.225-2.818,2.511-4.165,3.859a94.314,94.314,0,0,0-13.72,17.4c-.613-.612-1.286-1.225-1.96-1.776a95.011,95.011,0,0,0-24.929-16.538Z" fill="#66a9ff"/>
          <path id="Tracé_307" data-name="Tracé 307" d="M164.765,88.262A10.87,10.87,0,0,1,165.377,92a12.014,12.014,0,0,1-3.614,8.7,12.174,12.174,0,0,1-8.636,3.553H134.752A12.247,12.247,0,0,1,122.5,92a12.37,12.37,0,0,1,9.555-11.944,12.976,12.976,0,0,1,2.7-.306h18.375a12.209,12.209,0,0,1,11.638,8.515Z" fill="#ff5666"/>
          <path id="Tracé_308" data-name="Tracé 308" d="M91.876,134.874a12.286,12.286,0,0,1,12.25,12.25,12.014,12.014,0,0,1-3.614,8.7,12.173,12.173,0,0,1-8.636,3.553H73.5a12.25,12.25,0,0,1,0-24.5Z" fill="#ffcf44"/>
          <path id="Tracé_309" data-name="Tracé 309" d="M361.318,190h-73.44v30.625a12.371,12.371,0,0,1-10.964,12.189,12.941,12.941,0,0,1-13.536-13.353V190H110.251v36.75a12.25,12.25,0,0,1-24.5,0V190H6.125a97.974,97.974,0,0,0,98,98H287.879a97.87,97.87,0,0,0,98-98ZM232.753,239a12.25,12.25,0,1,1-24.5,0V220.625a12.279,12.279,0,0,1,12.25-12.25,11.976,11.976,0,0,1,8.636,3.614,11.1,11.1,0,0,1,1.96,2.511,12.219,12.219,0,0,1,1.654,6.125Zm51.512,33.137a11.976,11.976,0,0,1-8.636,3.614,12.312,12.312,0,1,1,8.636-3.614Z" fill="#e6ecf4"/>
          <path id="Tracé_310" data-name="Tracé 310" d="M363.4,128.749a92.923,92.923,0,0,1,4.1,27.563A94.533,94.533,0,0,1,361.318,190h-73.44V146.941a18.193,18.193,0,0,1,18.189-18.191ZM263.378,165.5V190H183.814a94.534,94.534,0,0,1-6.186-33.688,92.923,92.923,0,0,1,4.1-27.563h43.611a19.73,19.73,0,0,0,15.925-7.228,13.459,13.459,0,0,1,1.225-1.409,12.25,12.25,0,0,1,20.886,8.636Z" fill="#fc91ce"/>
          <path id="Tracé_311" data-name="Tracé 311" d="M361.38,220.623H36.81a6.125,6.125,0,1,1,0-12.25H361.38a6.125,6.125,0,1,1,0,12.25Z" fill="#cad1e1"/>
          <path id="Tracé_312" data-name="Tracé 312" d="M232.753,159.372a6.125,6.125,0,1,0,0,12.25h30.625v-12.25ZM343,165.5H312.379a6.125,6.125,0,1,1,0-12.25H343a6.125,6.125,0,1,1,0,12.25Z" fill="#f679be"/>
          <path id="Tracé_313" data-name="Tracé 313" d="M128.627,263.51a6.122,6.122,0,0,1-6.125-6.125v-12.25a6.125,6.125,0,1,1,12.25,0v12.25a6.122,6.122,0,0,1-6.125,6.125Zm49-12.25a6.122,6.122,0,0,1-6.125-6.125v-12.25a6.125,6.125,0,0,1,12.25,0v12.25a6.122,6.122,0,0,1-6.125,6.125Z" fill="#1ddabd"/>
          <path id="Tracé_314" data-name="Tracé 314" d="M232.753,220.625V239a12.25,12.25,0,1,1-24.5,0V220.625a12.28,12.28,0,0,1,12.25-12.25,11.976,11.976,0,0,1,8.636,3.614,11.105,11.105,0,0,1,1.96,2.511A12.218,12.218,0,0,1,232.753,220.625Zm70.99-137.263A11.976,11.976,0,0,0,300.129,92a12.286,12.286,0,0,0,12.25,12.25h18.375a12.267,12.267,0,0,0,12.189-11.576A93.773,93.773,0,0,1,363.4,128.749H306.07a18.193,18.193,0,0,0-18.191,18.189v73.687a12.371,12.371,0,0,1-10.964,12.189,12.942,12.942,0,0,1-13.536-13.353V128.749a12.214,12.214,0,0,0-20.887-8.636,13.461,13.461,0,0,0-1.225,1.409,19.73,19.73,0,0,1-15.925,7.228H181.731a95.176,95.176,0,0,1,23.7-39.568c1.348-1.348,2.7-2.634,4.165-3.859A12.243,12.243,0,0,0,220.5,92h18.375a12.014,12.014,0,0,0,8.7-3.614A12.258,12.258,0,0,0,239,67.5a95.183,95.183,0,0,1,33.565-6.125c2.266,0,4.533.061,6.8.245a94.1,94.1,0,0,1,49.307,18.13H312.379a11.976,11.976,0,0,0-8.636,3.614Z" fill="#a05454"/>
          <path id="Tracé_315" data-name="Tracé 315" d="M134.752,104.249h18.375a12.174,12.174,0,0,0,8.636-3.553,12.014,12.014,0,0,0,3.614-8.7,10.87,10.87,0,0,0-.613-3.736h.061A95.01,95.01,0,0,1,189.755,104.8c.674.551,1.347,1.164,1.96,1.776a94.115,94.115,0,0,0-9.984,22.173,92.924,92.924,0,0,0-4.1,27.563A94.534,94.534,0,0,0,183.814,190H110.251v36.75a12.25,12.25,0,0,1-24.5,0V190H31.912a91.117,91.117,0,0,1-1.286-15.313A94.917,94.917,0,0,1,99.663,83.36a103.324,103.324,0,0,1,25.9-3.612c2.7,0,4.9.184,6.493.306A12.37,12.37,0,0,0,122.5,92,12.247,12.247,0,0,0,134.752,104.249Zm-30.625,42.876a12.286,12.286,0,0,0-12.25-12.25H73.5a12.25,12.25,0,1,0,0,24.5H91.876a12.174,12.174,0,0,0,8.636-3.553,12.014,12.014,0,0,0,3.614-8.7Z" fill="#1ddabd"/>
          <path id="Tracé_316" data-name="Tracé 316" d="M159.252,171.622h-24.5a6.125,6.125,0,1,1,0-12.25h24.5a6.125,6.125,0,1,1,0,12.25ZM147,128.746H116.377a6.125,6.125,0,0,1,0-12.25H147a6.125,6.125,0,0,1,0,12.25Z" fill="#05c9b1"/>
        </g>
      </g>
    </g>
  </g>
</svg>
