<svg xmlns="http://www.w3.org/2000/svg" xmlns:xlink="http://www.w3.org/1999/xlink" width="1000" height="1000" viewBox="0 0 1000 1000">
  <defs>
    <clipPath id="clip-path">
      <rect id="Rectangle_95" data-name="Rectangle 95" width="444" height="419" transform="translate(-15624 16280.02)" fill="#fff"/>
    </clipPath>
  </defs>
  <g id="Groupe_137" data-name="Groupe 137" transform="translate(16314 -16903)">
    <rect id="Rectangle_101" data-name="Rectangle 101" width="1000" height="1000" rx="230" transform="translate(-16314 16903)" fill="#6ccfff"/>
    <g id="Groupe_de_masques_24" data-name="Groupe de masques 24" transform="translate(-412 914.98)" clip-path="url(#clip-path)">
      <g id="_00ed6be37d9cb5cc129a2dd1d0bbbac3" data-name="00ed6be37d9cb5cc129a2dd1d0bbbac3" transform="translate(-15542.53 16280)">
        <rect id="Rectangle_105" data-name="Rectangle 105" width="193.484" height="78.528" transform="translate(0 111.837)" fill="#e0e0e0"/>
        <rect id="Rectangle_106" data-name="Rectangle 106" width="193.484" height="150.49" transform="translate(0 190.366)" fill="#039be5"/>
        <rect id="Rectangle_107" data-name="Rectangle 107" width="193.484" height="78.528" transform="translate(0 340.855)" fill="#e0e0e0"/>
        <rect id="Rectangle_108" data-name="Rectangle 108" width="87.946" height="78.528" transform="translate(193.484 111.837)" fill="#bdbdbd"/>
        <rect id="Rectangle_109" data-name="Rectangle 109" width="87.946" height="150.49" transform="translate(193.484 190.366)" fill="#0288d1"/>
        <rect id="Rectangle_110" data-name="Rectangle 110" width="87.946" height="78.528" transform="translate(193.484 340.855)" fill="#bdbdbd"/>
        <path id="Tracé_337" data-name="Tracé 337" d="M358.976,141.428H271.029v0L315,71.534Z" transform="translate(-77.545 -29.591)" fill="#a5a5a5"/>
        <path id="Tracé_338" data-name="Tracé 338" d="M334.322,71.529v0l-43.973,69.889H96.864l43.973-69.894Z" transform="translate(-96.864 -29.591)" fill="#bdbdbd"/>
        <rect id="Rectangle_111" data-name="Rectangle 111" width="193.484" height="41.938" transform="translate(43.973 0)" fill="#8e8e8e"/>
        <path id="Tracé_339" data-name="Tracé 339" d="M210.357,294.294a24.013,24.013,0,0,1-48.026,0c0-13.174,24.013-56.5,24.013-56.5S210.357,281.12,210.357,294.294Z" transform="translate(-89.602 -12.36)" fill="#eee"/>
      </g>
    </g>
  </g>
</svg>
