<svg xmlns="http://www.w3.org/2000/svg" xmlns:xlink="http://www.w3.org/1999/xlink" width="1000" height="1000" viewBox="0 0 1000 1000">
  <defs>
    <clipPath id="clip-path">
      <rect id="Rectangle_98" data-name="Rectangle 98" width="460" height="437" transform="translate(-14186 17476)" fill="#fff"/>
    </clipPath>
  </defs>
  <g id="Groupe_139" data-name="Groupe 139" transform="translate(13600 -16903)">
    <g id="Groupe_127" data-name="Groupe 127">
      <rect id="Rectangle_69" data-name="Rectangle 69" width="1000" height="1000" rx="230" transform="translate(-13600 16903)" fill="#fff"/>
      <rect id="Rectangle_88" data-name="Rectangle 88" width="1000" height="1000" rx="230" transform="translate(-13600 16903)" fill="#fff"/>
      <rect id="Rectangle_89" data-name="Rectangle 89" width="1000" height="1000" rx="230" transform="translate(-13600 16903)" fill="#fff"/>
      <rect id="Rectangle_90" data-name="Rectangle 90" width="1000" height="1000" rx="230" transform="translate(-13600 16903)" fill="#fff"/>
      <rect id="Rectangle_91" data-name="Rectangle 91" width="1000" height="1000" rx="230" transform="translate(-13600 16903)" fill="#fff"/>
      <rect id="Rectangle_92" data-name="Rectangle 92" width="1000" height="1000" rx="230" transform="translate(-13600 16903)" fill="#fff"/>
      <rect id="Rectangle_93" data-name="Rectangle 93" width="1000" height="1000" rx="230" transform="translate(-13600 16903)" fill="#fff09b"/>
      <g id="Groupe_de_masques_22" data-name="Groupe de masques 22" transform="translate(856 -291)" clip-path="url(#clip-path)">
        <g id="af254cafee8cce8cfa4ecaa45b72f6fb" transform="translate(-14186 17500.232)">
          <path id="Tracé_295" data-name="Tracé 295" d="M437.467,191.791a175.244,175.244,0,0,1-11.372,32.317A181.756,181.756,0,0,1,415.2,244.1q-3.417,5.439-7.205,10.627L348.043,303.44c-34.59,13.149-134.895,46.227-222.263,1.855-21.4-10.868-51.426-26.7-61.122-59.97-12.289-42.2,17.318-80.983,21.995-86.927l.019.019c5.658,5.267,11.419,10.349,17.336,15.162a221.069,221.069,0,0,0,35.914,24.175A164.981,164.981,0,0,0,208.916,217.1c37.4,2.179,74.134-7.14,109.2-19.279,10.169-3.514,84.525-38.28,91.8-33.087C409.915,164.731,439,185.494,437.467,191.791Z" transform="translate(2.272 -17.663)" fill="#fdd402"/>
          <path id="Tracé_296" data-name="Tracé 296" d="M237.026,255.382a252.529,252.529,0,0,0,160.605-57.707,6.951,6.951,0,0,0-8.788-10.773,238.506,238.506,0,0,1-118.787,52.264c-55.1,7.7-118.748-5.344-146.9-17.639a6.953,6.953,0,0,0-5.555,12.749C141.2,244.582,194.577,255.382,237.026,255.382Z" transform="translate(10.002 -13.598)" fill="#fdde47"/>
          <path id="Tracé_297" data-name="Tracé 297" d="M426.094,224.108A181.773,181.773,0,0,1,415.2,244.1q-3.417,5.439-7.205,10.627L348.043,303.44c-34.59,13.149-134.895,46.227-222.263,1.855-21.4-10.868-51.426-26.7-61.122-59.97-12.289-42.2,17.318-80.983,21.995-86.927l.019.019c5.658,5.267,11.419,10.349,17.336,15.162a221.069,221.069,0,0,0,35.914,24.175c23.226,23.035,50.787,41,87.636,48.814,36.646,7.78,74.365,4.1,110.853-2.624,6.983-1.289,43.619-11.8,69.587-17.035a156.07,156.07,0,0,1,18.1-2.8Z" transform="translate(2.272 -17.663)" fill="#fbbf13"/>
          <path id="Tracé_298" data-name="Tracé 298" d="M8.749,214.416A231.232,231.232,0,0,0,24.363,266.1c.009,0,.009.009.009.018a.009.009,0,0,1,.007,0,.009.009,0,0,1,0,.007c2.315,5.323,4.871,10.627,7.659,15.857,29.515,55.352,89.137,98.111,150.879,118.66a269.033,269.033,0,0,0,46.851,11.174c92.591,13.159,198.638-30.2,235.858-120.478,2.473-5.99-23.171-30.889-23.171-30.889-2.186-2.124-12.743-.835-26.144,1.864-25.968,5.23-62.6,15.746-69.587,17.035-36.488,6.723-74.208,10.4-110.853,2.624C167.463,267.45,131.068,217.977,94.987,166l-.019-.019C84.911,151.5,74.881,136.808,64.176,122.639q-2.07-2.754-4.186-5.48c-1.75-2.263-6.1-7.715-12.836-8.81a16.786,16.786,0,0,0-7.733.649c-9.178,2.838-17.02,12.087-19.8,15.421a28.022,28.022,0,0,0-4.121,6C7.985,149.056,2.526,179.382,8.749,214.416Z" transform="translate(-6.042 -25.244)" fill="#fdd402"/>
          <path id="Tracé_299" data-name="Tracé 299" d="M277.52,354.266a237.929,237.929,0,0,0,33.806-2.393c55.794-8.009,97.625-34.491,122.892-55.3a6.951,6.951,0,0,0-8.823-10.744c-23.9,19.678-63.427,44.72-116.04,52.272a225.108,225.108,0,0,1-31.971,2.263c-72.833,0-145.281-34.49-187.433-91.33-32.166-43.374-41.393-90.028-43.469-121.528-.382-5.7-.564-11.448-.541-17.105a6.951,6.951,0,0,0-6.918-6.983h-.028a6.95,6.95,0,0,0-6.945,6.927c-.024,5.986.168,12.07.572,18.085,2.2,33.357,11.994,82.8,46.176,128.9C123.532,317.652,200.353,354.265,277.52,354.266Z" transform="translate(-2.157 -25.96)" fill="#fdde47"/>
          <path id="Tracé_300" data-name="Tracé 300" d="M409.129,274.518c12.086,15.282,29.922,38.132,42.267,53.766a174.662,174.662,0,0,0,13.41-26.076c2.473-5.991-23.171-30.889-23.171-30.889-2.186-2.124-12.743-.835-26.144,1.864C413.436,273.6,411.306,274.045,409.129,274.518Zm23.1-29.09v-.009c-12.373-15.709-30.987-39.689-43.341-55.361,14.206-5.323,25.857-8.772,28.524-6.871,0,0,29.089,20.763,27.551,27.059a175.369,175.369,0,0,1-12.734,35.173ZM55.546,124c-2.351-5.669-6.83-15.859-5.464-29.767,2.072-21.1,14.276-34.618,18.363-38.787-.265-1.3-2.58-11.715-12.806-16.852a24.8,24.8,0,0,0-19.448-.927,88.563,88.563,0,0,0-16.67,25.038c-5.566,12.606-6.688,23.208-7.409,30.6a135.088,135.088,0,0,0,3.7,45.929c2.353-2.684,8.77-11.62,19.448-14.4C43.954,122.576,52.058,123.106,55.546,124Z" transform="translate(-5.218 -36.117)" fill="#8b8891"/>
        </g>
      </g>
    </g>
  </g>
</svg>
