<svg xmlns="http://www.w3.org/2000/svg" xmlns:xlink="http://www.w3.org/1999/xlink" width="200" height="200" viewBox="0 0 200 200">
  <defs>
    <clipPath id="clip-path">
      <circle id="Ellipse_36" data-name="Ellipse 36" cx="100" cy="100" r="100" transform="translate(-10318 18829)" fill="#fff" stroke="#707070" stroke-width="1"/>
    </clipPath>
  </defs>
  <g id="Groupe_de_masques_17" data-name="Groupe de masques 17" transform="translate(10318 -18829)" clip-path="url(#clip-path)">
    <g id="_5245a74f6d8049cd5f108c43f66bc65f" data-name="5245a74f6d8049cd5f108c43f66bc65f" transform="translate(-10322.167 18824.834)">
      <path id="Tracé_243" data-name="Tracé 243" d="M204.162,104.167h0a99.975,99.975,0,0,1-99.975,99.975h-.046A99.975,99.975,0,0,1,4.167,104.167h0A99.975,99.975,0,0,1,104.141,4.192h.046A99.975,99.975,0,0,1,204.162,104.167Z" fill="#f93"/>
      <path id="Tracé_244" data-name="Tracé 244" d="M180.776,156.892a116.808,116.808,0,0,1-.75,12.437A99.764,99.764,0,0,1,113.5,203.7H94.825A99.957,99.957,0,0,1,4.17,104.174v-.016a99.449,99.449,0,0,1,11.047-45.7A111.123,111.123,0,0,1,72.372,44.675C132.652,46.41,181.073,96.581,180.776,156.892Z" fill="#fff" opacity="0.25"/>
      <path id="Tracé_245" data-name="Tracé 245" d="M204.167,104.159v.016a99.693,99.693,0,0,1-30.656,72.03A111.713,111.713,0,0,1,143.559,12.254,99.959,99.959,0,0,1,204.167,104.159Z" fill="#fff" opacity="0.25"/>
      <g id="Groupe_117" data-name="Groupe 117">
        <path id="Tracé_246" data-name="Tracé 246" d="M194.791,155.337H177.77a1.563,1.563,0,0,1,0-3.125h17.021a1.563,1.563,0,0,1,0,3.125Zm-29.639,0H13.541a1.563,1.563,0,0,1,0-3.125H165.152a1.563,1.563,0,0,1,0,3.125Z" fill="#4c4947"/>
      </g>
      <g id="Groupe_120" data-name="Groupe 120">
        <path id="Tracé_247" data-name="Tracé 247" d="M163.936,122.792l-5.431-1.921v-11.8H49.828v11.8L44.4,122.792a5.188,5.188,0,0,0-3.458,4.891v19.34a5.188,5.188,0,0,0,5.188,5.188H162.205a5.188,5.188,0,0,0,5.188-5.188v-19.34A5.188,5.188,0,0,0,163.936,122.792Z" fill="#96c"/>
        <path id="Tracé_248" data-name="Tracé 248" d="M158.5,120.871V58.381a10.464,10.464,0,0,0-10.464-10.464H60.293A10.464,10.464,0,0,0,49.828,58.381v62.49Z" fill="#fff"/>
        <rect id="Rectangle_86" data-name="Rectangle 86" width="38.331" height="33.777" transform="translate(85 87.094)" fill="#666"/>
        <path id="Tracé_249" data-name="Tracé 249" d="M148.922,60.93v7.394a2.487,2.487,0,0,1-2.487,2.487H139.04a2.487,2.487,0,0,1-2.487-2.487V60.93a2.487,2.487,0,0,1,2.487-2.487h7.394A2.487,2.487,0,0,1,148.922,60.93Z" fill="#666"/>
        <rect id="Rectangle_87" data-name="Rectangle 87" width="12.369" height="7.304" transform="translate(59.412 58.444)" fill="#666"/>
        <path id="Tracé_250" data-name="Tracé 250" d="M147.614,83.1a4.193,4.193,0,1,1-4.185-4.185A4.2,4.2,0,0,1,147.614,83.1Z" fill="#77e244"/>
        <path id="Tracé_251" data-name="Tracé 251" d="M69.789,83.1A4.193,4.193,0,1,1,65.6,78.919,4.2,4.2,0,0,1,69.789,83.1Z" fill="#ff4848"/>
        <path id="Tracé_252" data-name="Tracé 252" d="M137.8,135.388v39.573a6.289,6.289,0,0,1-6.289,6.289H76.824a6.289,6.289,0,0,1-6.289-6.289V135.388Z" fill="#fff"/>
        <path id="Tracé_253" data-name="Tracé 253" d="M125.039,163.537a3.825,3.825,0,0,1-2.95,5.959H104.751l9.6-14.635a3,3,0,0,1,5,0Z" fill="#595857"/>
        <path id="Tracé_254" data-name="Tracé 254" d="M113.949,169.5H87.26a4.6,4.6,0,0,1-4.6-4.6h0a4.3,4.3,0,0,1,.7-2.359l10.512-16.029a3,3,0,0,1,5,0C128.13,191.14,99.008,146.7,113.949,169.5Z" fill="#666"/>
        <path id="Tracé_255" data-name="Tracé 255" d="M122.989,86.24a18.823,18.823,0,1,1-18.813-18.813A18.826,18.826,0,0,1,122.989,86.24Z" fill="#0c9"/>
        <path id="Tracé_256" data-name="Tracé 256" d="M104.176,107.156a20.907,20.907,0,1,1,20.9-20.917A20.94,20.94,0,0,1,104.176,107.156Zm0-37.646a16.74,16.74,0,1,0,16.73,16.73A16.758,16.758,0,0,0,104.176,69.509Z" fill="#003"/>
        <circle id="Ellipse_37" data-name="Ellipse 37" cx="26.671" cy="26.671" r="26.671" transform="matrix(0.924, -0.383, 0.383, 0.924, 69.319, 72.66)" fill="#c9eaf5"/>
        <circle id="Ellipse_38" data-name="Ellipse 38" cx="15.354" cy="15.354" r="15.354" transform="matrix(0.924, -0.383, 0.383, 0.924, 84.104, 78.785)" fill="#69f"/>
        <circle id="Ellipse_39" data-name="Ellipse 39" cx="6.338" cy="6.338" r="6.338" transform="translate(97.829 80.756)" fill="#4e8cf2"/>
        <g id="Groupe_118" data-name="Groupe 118">
          <path id="Tracé_257" data-name="Tracé 257" d="M101.974,82.91a2.149,2.149,0,1,1-2.159-2.159A2.152,2.152,0,0,1,101.974,82.91Z" fill="#fff"/>
        </g>
        <g id="Groupe_119" data-name="Groupe 119">
          <path id="Tracé_258" data-name="Tracé 258" d="M144.7,137.485H63.632a2.1,2.1,0,0,1,0-4.193H144.7a2.1,2.1,0,1,1,0,4.193Z" fill="#7b51b7"/>
        </g>
      </g>
    </g>
  </g>
</svg>
