<svg xmlns="http://www.w3.org/2000/svg" xmlns:xlink="http://www.w3.org/1999/xlink" width="200" height="200" viewBox="0 0 200 200">
  <defs>
    <clipPath id="clip-path">
      <circle id="Ellipse_35" data-name="Ellipse 35" cx="100" cy="100" r="100" transform="translate(-10318 17956)" fill="#fff" stroke="#707070" stroke-width="1"/>
    </clipPath>
  </defs>
  <g id="Groupe_de_masques_18" data-name="Groupe de masques 18" transform="translate(10318 -17956)" clip-path="url(#clip-path)">
    <g id="d100c8d363ca72b382f6d225f3ae407c" transform="translate(-10318 17956)">
      <path id="Tracé_259" data-name="Tracé 259" d="M100,200A100,100,0,1,0,0,100,100,100,0,0,0,100,200Z" fill="#9b51e0"/>
      <g id="Groupe_121" data-name="Groupe 121">
        <path id="Tracé_260" data-name="Tracé 260" d="M142.859,117.256a4.78,4.78,0,1,0-4.78-4.78,4.78,4.78,0,0,0,4.78,4.78Zm-35.87-2.384a2.395,2.395,0,1,0-2.395-2.395,2.395,2.395,0,0,0,2.395,2.395Zm-28.694,0a2.395,2.395,0,1,0-2.395-2.395,2.395,2.395,0,0,0,2.395,2.395Z" fill="#fff"/>
        <path id="Tracé_261" data-name="Tracé 261" d="M157.206,72.664v-10.4a14.367,14.367,0,0,0-14.348-14.347H66.333A14.365,14.365,0,0,0,51.986,62.261v76.516a14.366,14.366,0,0,0,14.347,14.348h86.084a14.365,14.365,0,0,0,14.347-14.347V86.167a14.363,14.363,0,0,0-9.558-13.5Zm-43.042,39.813a21.521,21.521,0,1,1-21.522-21.52A21.55,21.55,0,0,1,114.164,112.477Zm28.694,9.569a9.558,9.558,0,0,1-9.522-10.509,9.446,9.446,0,0,1,4.706-7.166,10.42,10.42,0,0,1,5.328-1.453h18.614v19.13H142.859ZM66.333,52.7h76.527a9.583,9.583,0,0,1,9.569,9.569v9.567H66.342A9.567,9.567,0,0,1,66.331,52.7Z" fill="#fff"/>
        <path id="Tracé_262" data-name="Tracé 262" d="M92.642,100.523a4.784,4.784,0,0,1,4.78,4.781,2.395,2.395,0,0,0,4.789,0,9.55,9.55,0,0,0-7.175-9.228v-.341a2.394,2.394,0,0,0-4.787,0v.341a9.548,9.548,0,0,0,2.394,18.8,4.78,4.78,0,1,1-4.78,4.778,2.394,2.394,0,1,0-4.787,0,9.551,9.551,0,0,0,7.172,9.228v.341a2.4,2.4,0,1,0,4.791,0v-.341a9.548,9.548,0,0,0-2.4-18.8,4.78,4.78,0,1,1,0-9.559Z" fill="#fff"/>
      </g>
    </g>
  </g>
</svg>
