<svg xmlns="http://www.w3.org/2000/svg" xmlns:xlink="http://www.w3.org/1999/xlink" width="330" height="130" viewBox="0 0 330 130">
  <defs>
    <clipPath id="clip-path">
      <rect id="Rectangle_3409" data-name="Rectangle 3409" width="70" height="68" transform="translate(-17336 4739)" fill="#fff" stroke="#707070" stroke-width="1"/>
    </clipPath>
  </defs>
  <g id="Groupe_3690" data-name="Groupe 3690" transform="translate(16662 -4318)">
    <rect id="Rectangle_3249" data-name="Rectangle 3249" width="330" height="130" transform="translate(-16662 4318)" fill="#302960"/>
    <g id="Groupe_de_masques_100" data-name="Groupe de masques 100" transform="translate(804 -390)" clip-path="url(#clip-path)">
      <g id="_1d4b2cc24b91c3922b85ff70e1162d2c" data-name="1d4b2cc24b91c3922b85ff70e1162d2c" transform="translate(-17335.389 4739)">
        <path id="Tracé_6788" data-name="Tracé 6788" d="M52.439,7.124A27.4,27.4,0,0,0,15.4,6.982a25.79,25.79,0,0,0-2.1,36.073,22.773,22.773,0,0,1,5.64,14.584,2.254,2.254,0,0,0,2.271,2.215h25.6a2.254,2.254,0,0,0,2.271-2.215v-.514a21.278,21.278,0,0,1,5.446-13.881,25.791,25.791,0,0,0-2.088-36.12Z" transform="translate(0.432 0.153)" fill="#fff27d"/>
        <path id="Tracé_6789" data-name="Tracé 6789" d="M18.678,45.623a25.743,25.743,0,0,1-1.284-31.879A27.293,27.293,0,0,1,48.6,4.2,27.393,27.393,0,0,0,13.8,8.8,25.765,25.765,0,0,0,13.3,43.051a22.773,22.773,0,0,1,5.64,14.584,2.254,2.254,0,0,0,2.271,2.215h3.111a22.781,22.781,0,0,0-5.64-14.227Z" transform="translate(0.438 0.157)" fill="#e3c264"/>
        <path id="Tracé_6790" data-name="Tracé 6790" d="M44.953,55.728H21.4a1.063,1.063,0,0,0-1.076,1.05,8.507,8.507,0,0,0,8.611,8.4h8.482a8.507,8.507,0,0,0,8.611-8.4A1.063,1.063,0,0,0,44.953,55.728Z" transform="translate(1.266 2.179)" fill="#798bc6"/>
        <path id="Tracé_6791" data-name="Tracé 6791" d="M39.636,62.091h-8.46a8.573,8.573,0,0,1-8.342-6.363H21.4a1.063,1.063,0,0,0-1.076,1.05,8.507,8.507,0,0,0,8.611,8.4h8.482a8.613,8.613,0,0,0,7.965-5.25,8.668,8.668,0,0,1-5.748,2.163Z" transform="translate(1.266 2.179)" fill="#667dba"/>
        <path id="Tracé_6792" data-name="Tracé 6792" d="M17,48.636a21.32,21.32,0,0,1,1.313,7.234,2.254,2.254,0,0,0,2.271,2.215h25.6a2.254,2.254,0,0,0,2.271-2.215v-.514a19.872,19.872,0,0,1,1.216-6.72Z" transform="translate(1.059 1.922)" fill="#c9c1f5"/>
        <path id="Tracé_6793" data-name="Tracé 6793" d="M24.225,55a2.245,2.245,0,0,1-2.271-2.163,20.051,20.051,0,0,0-.409-4.2H17a21.32,21.32,0,0,1,1.313,7.234,2.254,2.254,0,0,0,2.271,2.215h25.6a2.254,2.254,0,0,0,2.271-2.215V55Z" transform="translate(1.059 1.922)" fill="#afbdd6"/>
        <path id="Tracé_6794" data-name="Tracé 6794" d="M65.658,41.633a1.033,1.033,0,0,1-.463-.1l-5.037-2.373a1.054,1.054,0,0,1-.677-.871,1.041,1.041,0,0,1,.483-.986,1.1,1.1,0,0,1,1.12-.033l5.037,2.373a1.042,1.042,0,0,1,.581,1.177A1.071,1.071,0,0,1,65.658,41.633ZM8.266,14.606a1,1,0,0,1-.463-.1L2.766,12.129a1.054,1.054,0,0,1-.677-.871,1.041,1.041,0,0,1,.483-.986,1.1,1.1,0,0,1,1.12-.033l5.037,2.373a1.042,1.042,0,0,1,.581,1.177A1.071,1.071,0,0,1,8.266,14.606ZM3.229,41.633a1.071,1.071,0,0,1-1.044-.818,1.042,1.042,0,0,1,.581-1.177L7.8,37.265a1.087,1.087,0,0,1,1.365.525,1.037,1.037,0,0,1-.439,1.365L3.692,41.528a1.033,1.033,0,0,1-.463.1ZM60.621,14.606a1.071,1.071,0,0,1-1.044-.818,1.042,1.042,0,0,1,.581-1.177L65.2,10.239a1.1,1.1,0,0,1,1.12.033,1.041,1.041,0,0,1,.483.986,1.054,1.054,0,0,1-.677.871L61.084,14.5A1,1,0,0,1,60.621,14.606Zm7.19,12.327H63.506a1.05,1.05,0,1,1,0-2.1h4.305a1.05,1.05,0,1,1,0,2.1Zm-62.429,0H1.076a1.05,1.05,0,1,1,0-2.1H5.382a1.05,1.05,0,1,1,0,2.1Z" transform="translate(0 0.525)" fill="#fff27d"/>
        <path id="Tracé_6795" data-name="Tracé 6795" d="M45.462,25.788a1.063,1.063,0,0,0-.614-.609L34.224,21.084V5.1a1.055,1.055,0,0,0-.815-1.013,1.087,1.087,0,0,0-1.208.52l-11.3,21a1.027,1.027,0,0,0,0,.892,1.067,1.067,0,0,0,.667.6l10.505,3.2V47.1a1.063,1.063,0,0,0,1.076,1.05A1.08,1.08,0,0,0,34.1,47.6L45.4,26.649a1.027,1.027,0,0,0,.065-.861Z" transform="translate(1.296 0.305)" fill="#eef5fd"/>
        <path id="Tracé_6796" data-name="Tracé 6796" d="M36.732,28.2,26.184,24.937a1.064,1.064,0,0,1-.63-.614,1.027,1.027,0,0,1,.06-.867L34.224,7.4V5.1a1.055,1.055,0,0,0-.815-1.013,1.087,1.087,0,0,0-1.208.52l-11.3,21a1.027,1.027,0,0,0,0,.892,1.067,1.067,0,0,0,.667.6l10.505,3.2V47.1a1.063,1.063,0,0,0,1.076,1.05A1.08,1.08,0,0,0,34.1,47.6L36.732,42.7Z" transform="translate(1.296 0.305)" fill="#d7e2f2"/>
      </g>
    </g>
  </g>
</svg>
