<svg xmlns="http://www.w3.org/2000/svg" xmlns:xlink="http://www.w3.org/1999/xlink" width="280" height="180" viewBox="0 0 280 180">
  <defs>
    <clipPath id="clip-path">
      <rect id="Rectangle_3370" data-name="Rectangle 3370" width="240" height="160" transform="translate(-13890.35 -778)" fill="#fff" stroke="#707070" stroke-width="1"/>
    </clipPath>
    <clipPath id="clip-path-2">
      <rect id="Rectangle_3372" data-name="Rectangle 3372" width="209.535" height="126.971" fill="none"/>
    </clipPath>
  </defs>
  <g id="Groupe_3627" data-name="Groupe 3627" transform="translate(14176 -137)">
    <rect id="Rectangle_3260" data-name="Rectangle 3260" width="280" height="180" transform="translate(-14176 137)" fill="#ffec7d"/>
    <g id="Groupe_de_masques_75" data-name="Groupe de masques 75" transform="translate(-265.65 935)" clip-path="url(#clip-path)">
      <g id="_278d41cb51a18140387bad10fc487e0d" data-name="278d41cb51a18140387bad10fc487e0d" transform="translate(-13874.875 -778)">
        <rect id="Rectangle_3371" data-name="Rectangle 3371" width="209.535" height="126.971" transform="translate(0 32.684)" fill="#ffec7d"/>
        <g id="Groupe_3616" data-name="Groupe 3616" transform="translate(0 32.684)" clip-path="url(#clip-path-2)">
          <line id="Ligne_25" data-name="Ligne 25" x2="60.47" y2="172.726" transform="translate(8.877 -22.878)" fill="none" stroke="#fff" stroke-miterlimit="10" stroke-width="0.887"/>
          <line id="Ligne_26" data-name="Ligne 26" y1="119.688" x2="76.182" transform="translate(0 -21.571)" fill="none" stroke="#fff" stroke-miterlimit="10" stroke-width="0.887"/>
          <line id="Ligne_27" data-name="Ligne 27" x1="69.978" y2="171.144" transform="translate(53.351 -22.878)" fill="none" stroke="#fff" stroke-miterlimit="10" stroke-width="0.887"/>
          <line id="Ligne_28" data-name="Ligne 28" x2="149.241" y2="51.762" transform="translate(59.152 5.185)" fill="none" stroke="#fff" stroke-miterlimit="10" stroke-width="0.887"/>
          <line id="Ligne_29" data-name="Ligne 29" x2="23.467" y2="166.772" transform="translate(186.068 -21.571)" fill="none" stroke="#fff" stroke-miterlimit="10" stroke-width="0.887"/>
          <path id="Tracé_6440" data-name="Tracé 6440" d="M113,36.855,97.224,207.928" transform="translate(43.14 -58.079)" fill="none" stroke="#fff" stroke-miterlimit="10" stroke-width="0.887"/>
          <line id="Ligne_30" data-name="Ligne 30" y1="70.712" x2="208.392" transform="translate(0 79.137)" fill="none" stroke="#fff" stroke-miterlimit="10" stroke-width="0.887"/>
        </g>
        <path id="Tracé_6441" data-name="Tracé 6441" d="M65.828,61.075s3.127-11.222,4.746-16.666c1.353-4.55,5.954-11.087,16.307-12.083a123.837,123.837,0,0,0,4.592,83.749c-9.265-1.805-24.236,7.963-29.163,6.921C51.3,120.669,45.5,108.4,45.035,105.344c-1.116-7.273-.473-11.253,11.078-28.825C56.113,76.52,63.92,67.747,65.828,61.075Z" transform="translate(8.87 -27.688)" fill="#350313"/>
        <path id="Tracé_6442" data-name="Tracé 6442" d="M65.811,62.634s3.127-11.221,4.746-16.666c1.353-4.55,5.954-11.087,16.307-12.083,0,0,12.09-11.7,29.6,2.065s8.418,24.6,9.555,34.412S135,118.61,127.7,131.738l-43.554,3.673s-39.275-17.648-39.452-30.528c-.085-6.17-.144-9.233,11.406-26.8C56.1,78.078,63.9,69.306,65.811,62.634Z" transform="translate(8.887 -29.246)" fill="#38101b"/>
        <path id="Tracé_6443" data-name="Tracé 6443" d="M200.828,168.275H21.889c6.919-26.816,12.544-41.633,12.544-41.633a23.394,23.394,0,0,1,13.438-17.293l12.559-4.256q3.5-1,7-1.986l4.37-1.238,2.544-.726L83.311,98.6a13.986,13.986,0,0,0,4.141-1.937,12.4,12.4,0,0,0,5.1-7.1h0c.059-.236.113-.476.156-.717.01-.071.024-.142.039-.218s.024-.147.034-.218a.784.784,0,0,0,.015-.107c.029-.174.054-.347.068-.525.02-.218.034-.441.044-.663,0-.142.01-.285.01-.427V70h34.229v16.7A11.881,11.881,0,0,0,131,95.351a12.02,12.02,0,0,0,1.289,1.077,2.91,2.91,0,0,0,.239.174,14.174,14.174,0,0,0,4.238,2l8.477,2.4.02,0,9.551,2.711,6.992,1.986,4.36,1.238,8.477,2.4a23,23,0,0,1,9.1,7.257,34.226,34.226,0,0,1,5.347,10.036h.054S194.173,141.459,200.828,168.275Z" transform="translate(-5.966 -8.62)" fill="#ed9a72"/>
        <path id="Tracé_6444" data-name="Tracé 6444" d="M78.024,87.753c12.208-1.94,21.243-14.836,21.243-14.836S87.161,72.007,79.589,70H65.039V86.689a11.42,11.42,0,0,1-.369,2.861v.017S65.816,89.693,78.024,87.753Z" transform="translate(21.92 -8.62)" fill="#b86a55"/>
        <path id="Tracé_6445" data-name="Tracé 6445" d="M75.854,106.691c.182,1.6.288,3.191.373,4.781l.224,4.76c.018.793.063,1.584.1,2.376l.107,2.375c.086,1.583.173,3.162.315,4.766a21.017,21.017,0,0,1-1.241-4.685,40.676,40.676,0,0,1-.467-4.792c-.057-1.6-.056-3.2.04-4.8a34.967,34.967,0,0,1,.554-4.78Z" transform="translate(28.798 9.955)" fill="#b86a55"/>
        <path id="Tracé_6446" data-name="Tracé 6446" d="M157.907,157.148H40.122L44.18,129.37l.264-2.142v-.009L48.53,94.1l.015-.138q3.5-1,7-1.986a42.286,42.286,0,0,0,21.539,25.8,48,48,0,0,0,21.04,5.392c.2,0,.391.009.586,0,20.43.254,38.78-12.342,44.219-30.583l6.992,1.986,4.292,34.79h0Z" transform="translate(5.919 2.508)" fill="#e8e9ea"/>
        <path id="Tracé_6447" data-name="Tracé 6447" d="M63.41,86.325s17.936,23.219,41.309,0" transform="translate(21.099 -0.354)" fill="none" stroke="#db3a3a" stroke-linecap="round" stroke-miterlimit="10" stroke-width="0.962" stroke-dasharray="0.661 5.295"/>
        <path id="Tracé_6448" data-name="Tracé 6448" d="M114.326,64.534a5.024,5.024,0,0,0-1.948-.341c1.11-14.68-5.744-27.2-16.98-29.416C84.131,32.559,72.184,41.441,66.57,55.3a5.057,5.057,0,0,0-2.325-.624c-3.629-.054-6.642,3.885-6.731,8.8-.086,4.742,2.586,8.647,6.034,8.965.661,11.809,7.106,21.312,15.022,24.953a8.369,8.369,0,0,0,1.885.479,6.565,6.565,0,0,0,1.535.234c9.925-.442,19.725-6.486,25.471-16.991,3.192.593,7.057-1.913,9.013-6.028C118.618,70.572,117.656,65.85,114.326,64.534Z" transform="translate(17.254 -26.618)" fill="#e9966e"/>
        <path id="Tracé_6449" data-name="Tracé 6449" d="M82.077,62.389a9.741,9.741,0,0,1-5.959,1.295c.061.022.124.04.186.057l-.382-.075c.065.008.129.015.2.018a8.965,8.965,0,0,1-4.789-3.34Z" transform="translate(26.261 -13.506)" fill="#b86a55"/>
        <path id="Tracé_6450" data-name="Tracé 6450" d="M70,55.048a1.486,1.486,0,1,0,0-2.966A1.486,1.486,0,1,0,70,55.048Z" transform="translate(24.372 -17.688)" fill="#38101b"/>
        <path id="Tracé_6451" data-name="Tracé 6451" d="M82.751,57.555a1.486,1.486,0,1,0,0-2.966A1.486,1.486,0,1,0,82.751,57.555Z" transform="translate(32.682 -16.419)" fill="#38101b"/>
        <path id="Tracé_6452" data-name="Tracé 6452" d="M79.585,50.223a17.8,17.8,0,0,1-3.643-.17c-.59-.08-1.173-.184-1.751-.3l-.844-.182q-.383-.087-.773-.145a16.3,16.3,0,0,0-3.18-.19c-.273.008-.547.027-.826.047s-.6.05-.9.067a13.8,13.8,0,0,1-1.852-.015,12.769,12.769,0,0,1,1.555-.918c.267-.133.529-.262.8-.383a7.676,7.676,0,0,1,.9-.325,8.822,8.822,0,0,1,3.876-.229c.322.059.643.123.957.211s.573.172.86.268c.556.186,1.108.387,1.652.611a16.71,16.71,0,0,1,3.163,1.656Z" transform="translate(22.669 -20.077)" fill="#38101b"/>
        <path id="Tracé_6453" data-name="Tracé 6453" d="M79.229,50.628a17.77,17.77,0,0,1,3.631-.318c.6,0,1.19.026,1.781.065.3.02.569.043.9.079s.647.1.967.168a8.349,8.349,0,0,1,3.427,1.667,6.893,6.893,0,0,1,.672.634c.2.214.377.43.56.652a11.41,11.41,0,0,1,1,1.421,13.231,13.231,0,0,1-1.694-.683c-.267-.128-.534-.265-.788-.4s-.486-.244-.731-.354a15.809,15.809,0,0,0-2.982-1.024q-.381-.093-.77-.158l-.851-.152c-.58-.11-1.158-.235-1.732-.384a17.213,17.213,0,0,1-3.4-1.216Z" transform="translate(31.41 -18.586)" fill="#38101b"/>
        <path id="Tracé_6551" data-name="Tracé 6551" d="M5.12-.107c2.891.087,5.262,1.168,5.3,2.415s-2.28,2.187-5.171,2.1S-.015,3.24-.05,1.993,2.23-.194,5.12-.107Z" transform="translate(126.345 50.482) rotate(-70.531)" fill="#b86a55"/>
        <path id="Tracé_6552" data-name="Tracé 6552" d="M5.149-.032c2.862.024,5.19,1.063,5.2,2.321s-2.3,2.259-5.165,2.235S-.006,3.461-.016,2.2,2.287-.056,5.149-.032Z" transform="translate(76.768 41.292) rotate(-85.095)" fill="#b86a55"/>
        <path id="Tracé_6454" data-name="Tracé 6454" d="M64.265,48.287c-.175,1.455-.416,2.888-.675,4.316l-.8,4.271q-.423,2.129-.82,4.259c-.257,1.423-.512,2.842-.724,4.293a18.787,18.787,0,0,1-.117-4.382,37.058,37.058,0,0,1,.593-4.342c.286-1.434.625-2.857,1.046-4.262a32.6,32.6,0,0,1,1.5-4.153Z" transform="translate(19.56 -19.609)" fill="#b86a55"/>
        <path id="Tracé_6455" data-name="Tracé 6455" d="M92.765,54.289a31.754,31.754,0,0,1-.515,4.347c-.252,1.438-.588,2.862-.976,4.275A37.933,37.933,0,0,1,89.85,67.09a19.889,19.889,0,0,1-2.09,3.948c.463-1.4.874-2.79,1.284-4.182s.8-2.789,1.181-4.188l1.2-4.193C91.837,57.076,92.266,55.68,92.765,54.289Z" transform="translate(36.972 -16.57)" fill="#b86a55"/>
        <path id="Tracé_6456" data-name="Tracé 6456" d="M108.072,75.836c.8-6.536-3.3-11.51-5.379-13.569-.116-7.592-.675-14.443-2.062-18.634a20.98,20.98,0,0,0-6.207-6.4,33.556,33.556,0,0,0-13.189-2.577,25.5,25.5,0,0,0-12.614,6.726,14.656,14.656,0,0,1,2.889-.983c11.183-2.532,18.748,4.307,21.823,9.031C97.141,55.274,97,59.086,95.209,72.7A69.24,69.24,0,0,1,89.442,92.7c2.922,1.641,8.2-6.977,10.778-11.695,2.552.474,5.531-1.036,7.624-3.762C107.933,76.789,108.013,76.326,108.072,75.836Z" transform="translate(24.496 -26.51)" fill="#b86a55"/>
        <path id="Tracé_6457" data-name="Tracé 6457" d="M81.536,113.372s4.077-.942,9.016-2.575h0c.961-.318,1.954-.662,2.956-1.03,4.752-2.063,13.68-7.777,14.9-21.878.038-.964.081-1.956.138-2.976,0,0,2.626-9.813,5.29-16.8a19.564,19.564,0,0,0-4.647-7.166c-.156-10.211-1.112-19.087-3.808-21.943C97,30.113,72.211,33.2,69.912,37.841S61.763,51.168,62.94,56.316c0,0,3.885-14.713,15.068-17.245S96.755,43.378,99.831,48.1c3.807,5.848,3.664,9.659,1.875,23.277-2.047,15.588-6.484,19.964-8.67,22.447S81.536,113.372,81.536,113.372Z" transform="translate(20.692 -27.184)" fill="#38101b"/>
        <path id="Tracé_6458" data-name="Tracé 6458" d="M107.364,75.836c.8-6.536-3.3-11.51-5.379-13.569-.116-7.592-.675-14.443-2.062-18.634a20.979,20.979,0,0,0-6.207-6.4,33.557,33.557,0,0,0-13.189-2.577,24.518,24.518,0,0,0-10.819,5.175A14.785,14.785,0,0,1,73.495,38.4c11.183-2.532,18.748,4.307,21.823,9.031,3.807,5.848,3.664,9.659,1.875,23.277-1.216,9.262-2.987,15.364-4.682,19.312a35.07,35.07,0,0,0,7-9.015c2.552.474,5.531-1.036,7.624-3.762C107.225,76.789,107.3,76.326,107.364,75.836Z" transform="translate(25.205 -26.51)" fill="#350313"/>
        <path id="Tracé_6459" data-name="Tracé 6459" d="M92.112,43.232l-2.946,17.21s-1.9,18.277-5.414,25.232,9.4-1.443,9.4-1.443L100.306,69.3Z" transform="translate(33.964 -22.167)" fill="#38101b"/>
        <path id="Tracé_6460" data-name="Tracé 6460" d="M85.177,107.971l20.195,10.409c6.735-13.707-.83-51.854-1.95-61.515-.037-.317-.062-.635-.079-.954-2.761,7.014-5.585,17.566-5.585,17.566-.174,21.962-17.995,25.885-17.995,25.885-.169.412-.306.807-.428,1.195A10.975,10.975,0,0,0,85.177,107.971Z" transform="translate(31.48 -15.749)" fill="#350313"/>
        <path id="Tracé_6461" data-name="Tracé 6461" d="M67.724,64.726s16.323,2.235,19.184,4.039c0,0-8.241,2.947-9.839,2.323S67.724,64.726,67.724,64.726Z" transform="translate(23.911 -11.287)" fill="#fdffff"/>
        <path id="Tracé_6462" data-name="Tracé 6462" d="M67.724,64.726S70.779,71.85,76.7,72.5s10.208-3.731,10.208-3.731a23.292,23.292,0,0,1-19.184-4.039Z" transform="translate(23.911 -11.287)" fill="#d7645d"/>
        <path id="Tracé_6463" data-name="Tracé 6463" d="M67.724,64.79s7.077-1.521,19.184,4.039C86.908,68.829,78.382,67.172,67.724,64.79Z" transform="translate(23.911 -11.351)" fill="#a75844"/>
        <path id="Tracé_6464" data-name="Tracé 6464" d="M76.821,159.313H39.974c1.46-10.329,3.15-21.75,4.566-29.919v-.009c1.987-11.474,3.911-31.286,4.087-33.116l.015-.138a46.3,46.3,0,0,1,9.375-4.519c.84-.312,1.68-.592,2.51-.846A75,75,0,0,1,75.663,87.7s.083,1.674.22,4.448c.107,2.159.244,4.991.4,8.223.278,5.77.61,12.814.9,19.572.41,9.265.757,18.005.82,22.221A166.7,166.7,0,0,1,76.821,159.313Z" transform="translate(5.822 0.343)" fill="#f37041"/>
      </g>
    </g>
  </g>
</svg>
