<svg height="80" width="80" xmlns="http://www.w3.org/2000/svg"><defs><clipPath id="a"><path fill="#fff" transform="translate(-6795 946)" d="M0 0h42v40H0z"/></clipPath></defs><g clip-path="url(#a)" transform="translate(6814 -926)"><path fill="#c7ad92" d="M-6757.431 956.292v19.414l-16.523 9.68-.049.026-16.567-9.706v-19.414l16.567-9.706 16.572 9.706z"/><path fill="#fee27d" d="M-6780.286 962.282v7.189l-3.961-2.311v-7.2z"/><path fill="#b79b7b" d="M-6757.431 956.292l-16.572 9.708-16.567-9.707 16.567-9.707 16.572 9.706z"/><path fill="#fed947" d="M-6763.75 952.581l-16.536 9.738-3.961-2.32 16.568-9.719 3.929 2.3z"/><path fill="#dfccbf" d="M-6757.431 956.293v19.414l-16.523 9.68h-.009v-19.378z"/><path d="M-6756.933 955.998a.574.574 0 00-.252-.239l-6.2-3.635a.567.567 0 00-.165-.1l-3.768-2.198a.567.567 0 00-.165-.1l-6.234-3.649a.559.559 0 00-.567 0l-16.532 9.686a.587.587 0 00-.325.577v19.367a.589.589 0 00.288.509l16.569 9.707a.559.559 0 00.567 0l16.569-9.707a.589.589 0 00.288-.509V956.34a.6.6 0 00-.073-.342zm-7.978-3.412l-15.417 9.033-2.775-1.627 15.415-9.033zm-15.946 10.073v5.8l-2.819-1.64v-5.812zm6.854-15.398l5.161 3.023-15.415 9.033-5.161-3.019zm-.533 37.166l-15.467-9.06v-18.069l5.18 3.035v6.822a.589.589 0 00.289.509l3.961 2.311a.559.559 0 00.57 0 .589.589 0 00.284-.507v-6.14l5.18 3.035zm.533-19.1l-5.173-3.029 15.417-9.037 5.176 3.037zm16 10.042l-15.388 9.013v-18.064l15.388-9.02z"/><path d="M-6770.948 980.638a.573.573 0 01-.555-.436.592.592 0 01.271-.659.56.56 0 01.65.066.6.6 0 01.165.649.572.572 0 01-.531.38zm2.088-1.223a.574.574 0 01-.553-.436.592.592 0 01.271-.66h.007a.564.564 0 01.779.221.594.594 0 01-.215.8h-.007a.558.558 0 01-.281.076zm2.094-1.227a.574.574 0 01-.552-.434.592.592 0 01.266-.66h.007a.564.564 0 01.781.214.594.594 0 01-.209.8h-.007a.558.558 0 01-.285.079zm2.094-1.227a.574.574 0 01-.552-.434.592.592 0 01.266-.659h.007a.564.564 0 01.781.214.594.594 0 01-.209.8h-.007a.558.558 0 01-.285.079zm2.094-1.227a.574.574 0 01-.553-.436.592.592 0 01.271-.66h.007a.564.564 0 01.779.221.594.594 0 01-.215.8h-.007a.558.558 0 01-.282.075zm2.1-1.228a.587.587 0 11.572-.59.6.6 0 01-.283.51.56.56 0 01-.293.08zm0-2.45a.579.579 0 01-.571-.586v-.008a.572.572 0 111.143 0v.012a.579.579 0 01-.571.586zm0-2.453a.579.579 0 01-.571-.586v-.008a.572.572 0 111.143 0v.008a.579.579 0 01-.571.586zm0-2.454a.579.579 0 01-.571-.586v-.008a.572.572 0 111.143 0v.008a.579.579 0 01-.571.586zm0-2.453a.579.579 0 01-.571-.586v-.008a.572.572 0 111.143 0v.008a.579.579 0 01-.571.586zm0-2.455a.563.563 0 01-.4-.17.592.592 0 01-.168-.414.572.572 0 11.571.588z"/><path d="M-6770.926 980.62a.562.562 0 01-.4-.17.592.592 0 01-.168-.414.572.572 0 11.571.588zm0-2.443a.579.579 0 01-.571-.586v-.008a.572.572 0 111.143 0v.008a.579.579 0 01-.571.586zm0-2.449a.579.579 0 01-.571-.586v-.008a.572.572 0 111.143 0v.008a.579.579 0 01-.571.586zm0-2.449a.579.579 0 01-.571-.586v-.008a.572.572 0 111.143 0v.008a.579.579 0 01-.571.586zm0-2.449a.579.579 0 01-.571-.586v-.008a.572.572 0 111.143 0v.008a.579.579 0 01-.571.586zm0-2.451a.563.563 0 01-.4-.17.592.592 0 01-.168-.414.572.572 0 11.571.588zm10.444-6.14a.578.578 0 01-.569-.511.587.587 0 01.421-.644.569.569 0 01.677.345.6.6 0 01-.247.733.558.558 0 01-.279.075zm-8.377 4.908a.574.574 0 01-.553-.436.592.592 0 01.271-.66h.007a.564.564 0 01.779.221.594.594 0 01-.215.8h-.007a.558.558 0 01-.281.076zm2.094-1.227a.574.574 0 01-.552-.434.592.592 0 01.266-.659h.007a.564.564 0 01.781.214.594.594 0 01-.209.8h-.007a.558.558 0 01-.285.079zm2.094-1.227a.574.574 0 01-.552-.434.592.592 0 01.266-.659h.007a.564.564 0 01.781.214.594.594 0 01-.209.8h-.007a.558.558 0 01-.285.079zm2.094-1.227a.574.574 0 01-.553-.436.592.592 0 01.271-.66h.007a.564.564 0 01.779.221.594.594 0 01-.215.8h-.007a.558.558 0 01-.281.076z"/><path d="M-6770.95 968.373a.578.578 0 01-.569-.511.587.587 0 01.421-.645.569.569 0 01.677.345.6.6 0 01-.246.733.558.558 0 01-.279.075z"/></g></svg>