<svg height="120" width="120" xmlns="http://www.w3.org/2000/svg"><defs><clipPath id="a"><circle stroke="#707070" fill="#fff" transform="translate(-10520 3672)" r="31" cy="31" cx="31"/></clipPath></defs><g clip-path="url(#a)" transform="translate(10549 -3643)"><g transform="translate(-12259.848 2487.855)"><circle fill="#e6e6dc" transform="translate(1739.848 1184.145)" r="31" cy="31" cx="31"/><path fill="#d0cfbf" d="M1753.88 1241.058q1.027.687 2.106 1.29a30.965 30.965 0 002.791 1.349q1.428.6 2.91 1.061t3 .766q1.519.309 3.063.464t3.1.155q1.1 0 2.2-.078 1.544-.11 3.072-.373a30.969 30.969 0 003.022-.679q1.495-.414 2.943-.977 1.339-.526 2.624-1.175v-.039a30.992 30.992 0 003.11-1.75q1.188-.77 2.3-1.647a30.933 30.933 0 002.329-2.044q1.112-1.08 2.112-2.267t1.875-2.468q.875-1.279 1.62-2.641a30.96 30.96 0 003.176-8.7q.309-1.519.464-3.063t.155-3.1q0-.985-.07-1.967l-14.7-14.7-.019-.019-.01-.008c-.029-.029-.066-.051-.1-.079a2.552 2.552 0 00-.274-.227c-.055-.038-.119-.063-.178-.1a2.324 2.324 0 00-.247-.134 2.536 2.536 0 00-.363-.116c-.039-.01-.072-.025-.11-.034a2.52 2.52 0 00-.515-.052h-28.828a2.553 2.553 0 00-2.554 2.6v40.748z"/><path fill="#4f5863" d="M1767.149 1199.6v1.86h7.542v-1.86z"/><ellipse fill="#4f5863" transform="translate(1757.698 1199.577)" ry=".943" rx=".955" cy=".943" cx=".955"/><path fill="rgba(13,13,39,0.24)" d="M1767.3 1212.774a2.038 2.038 0 00-2.063 2v24.274a2.038 2.038 0 002.063 2h20.5v-28.28h-20.5z"/><path fill="#3d444d" d="M1756.433 1197.708a2.574 2.574 0 00-2.554 2.6v40.747a30.887 30.887 0 0033.936.016v-40.763a2.573 2.573 0 00-2.555-2.6h-28.827z"/><path fill="#ffb400" d="M1757.652 1203.348v39.806a30.646 30.646 0 0026.393.006v-39.812z"/><path fill="#4f5863" d="M1767.149 1199.6v1.86h7.542v-1.86z"/><ellipse fill="#4f5863" transform="translate(1757.698 1199.577)" ry=".943" rx=".955" cy=".943" cx=".955"/><path fill="rgba(13,13,39,0.24)" d="M1766.279 1212.774a2.121 2.121 0 00-2.214 2v24.274a2.121 2.121 0 002.214 2h21.521v-28.28z"/><path fill="#dcdcdc" d="M1766.087 1211.083a2.017 2.017 0 00-2.021 2.021v24.239a2.017 2.017 0 002.021 2.021h24.1a30.473 30.473 0 0011.353-28.28h-35.456z"/><path fill="#4d4d4d" d="M1764.067 1214.853v5.657h37.281a31.012 31.012 0 00.5-5.366q0-.145-.01-.291h-37.771z"/><path fill="#b3b3b3" d="M1773.493 1233.708h-5.655v1.885h5.655z"/><path fill="#ffb400" d="M1797.248 1222.4a3.771 3.771 0 10.891 7.429 31.008 31.008 0 002.342-5.59 3.77 3.77 0 00-3.233-1.839z"/><path fill="#b3b3b3" d="M1781.034 1233.708h-5.656v1.885h5.656zm7.542 0h-5.656v1.885h5.656zm1.885 0v1.885h3.652q.793-.913 1.513-1.885zm0-9.427h-22.624v3.77h22.624z"/><path fill="#ff5642" d="M1800.923 1222.5a3.763 3.763 0 00-2.13 5.975 31 31 0 002.131-5.975z"/></g></g></svg>