<svg height="239" width="384" xmlns="http://www.w3.org/2000/svg"><defs><clipPath id="a"><path stroke="#707070" fill="#fff" transform="translate(-9988 2151)" d="M0 0h384v239H0z"/></clipPath><clipPath id="b"><path fill="none" transform="translate(27.64 102.319)" d="M0 0h286.222v190.218H0z"/></clipPath><linearGradient gradientUnits="objectBoundingBox" y2=".716" x2=".5" y1="-.166" x1=".5" id="c"><stop stop-color="#e4430d" offset="0"/><stop stop-color="#f8b997" offset="1"/></linearGradient></defs><g clip-path="url(#a)" transform="translate(9988 -2151)"><g transform="translate(-9966.751 2097.463)"><path fill="#ff7e84" d="M27.64 102.319h286.222v190.218H27.64z"/><g clip-path="url(#b)" stroke-width="2.001" stroke-miterlimit="10" stroke="#fff" fill="none"><circle transform="translate(49.351 117.916)" r="12.588" cy="12.588" cx="12.588"/><circle transform="translate(61.94 131.254)" r="12.588" cy="12.588" cx="12.588"/><circle transform="translate(215.093 124.066)" r="22.672" cy="22.672" cx="22.672"/><circle transform="translate(242.394 138.032)" r="22.672" cy="22.672" cx="22.672"/><circle transform="translate(194.678 72.299)" r="32.197" cy="32.197" cx="32.197"/><circle transform="translate(42.33 231.7)" r="32.197" cy="32.197" cx="32.197"/><circle transform="translate(245.121 224.69)" r="32.197" cy="32.197" cx="32.197"/></g><path fill="#350313" d="M132.9 132.566s-.743 60.256-12.163 68.853 98.925 24.08 98.925 24.08a594.774 594.774 0 01-10.381-94.165c-1.493-51.797-76.381 1.232-76.381 1.232z"/><path fill="#f8b997" d="M289.14 292.535H52.3q1.461-6.313 2.808-11.966c6.91-28.854 11.772-44.562 11.772-44.562a35.817 35.817 0 015.376-13.994 30.919 30.919 0 0112.386-11.072l16.808-5.236 21.431-6.67 11.819-3.675a18.089 18.089 0 005.723-2.988c.32-.253.634-.507.934-.78a18 18 0 003.929-5.009 17.586 17.586 0 001.634-4.335v-.007a17.4 17.4 0 00.34-1.874c.047-.36.087-.72.107-1.087.013-.187.02-.374.027-.56.007-.207.013-.42.013-.627V153.9h45.236v24.192a18.131 18.131 0 006.71 14.06c.04.033.08.067.127.1a18.03 18.03 0 005.87 3.108l9.75 3.04 28.227 8.791 12.073 3.755a28.163 28.163 0 018.7 6.443 47.574 47.574 0 019.1 14.894c.047.127.1.253.147.373.06.16.12.314.173.46.66 1.781.96 2.895.96 2.895h.08l.14.46c.814 2.675 5.1 17.075 11.005 41.514q1.648 6.76 3.435 14.55z"/><path fill="#e59876" d="M164.568 179.634c16.133-2.812 28.075-21.5 28.075-21.5s-16-1.317-26.007-4.233h-19.23v24.2a18.066 18.066 0 01-.487 4.147v.025s1.515.173 17.649-2.639z"/><path fill="#ffc929" d="M289.207 292.535H52.576q1.43-6.223 2.768-11.793v-.007c6.877-28.668 11.706-44.269 11.706-44.269A35.752 35.752 0 0172.746 222a30.832 30.832 0 0112.066-10.6l16.635-5.7 21.953-7.5 17.015-5.823.787-.267v53.813h58.322l-.08-23.465-.1-30.3.18-.047 15.434 5.316 28.367 9.765 12.253 4.215a27.964 27.964 0 018.337 6.056 47 47 0 019.285 14.821c.047.127.1.253.147.373.06.16.12.314.173.46a40.134 40.134 0 011.007 2.895l.133.46h.074s4.515 14.594 11.032 41.5q1.646 6.769 3.441 14.563z"/><path fill="#ffc929" d="M91.655 284.965l-.087 7.57H91.2zm157.045 7.57h-.374l-.087-7.57z"/><path fill="#ef8421" d="M204.9 271.727h31.31s-9.344 13.025-31.31 0z"/><path fill="url(#c)" d="M208.947 103.372a7.065 7.065 0 00-3.023.115c-3.891-24.31-18.8-42.362-36.339-42.1-17.583.262-31.987 18.851-35.1 43.367a7.2 7.2 0 00-3.691-.217c-5.413 1.16-8.4 8.618-6.682 16.658 1.663 7.759 7.108 13.2 12.352 12.535 5.44 19.02 12.76 31.3 34.971 32.894 16.534 1.19 28.993-14.77 33.567-33.87 4.968-.132 9.766-5.546 11.12-12.928 1.478-8.09-1.729-15.456-7.175-16.454z"/><ellipse fill="#e59876" transform="rotate(-83.571 173.122 -52.081)" ry="3.478" rx="8.664" cy="3.478" cx="8.664"/><ellipse fill="#e59876" transform="rotate(-8.135 841.155 -832.041)" ry="8.664" rx="3.478" cy="8.664" cx="3.478"/><path fill="#e59876" d="M134.486 104.752c.463 2.434.725 4.85.955 7.262s.371 4.818.5 7.222.21 4.806.3 7.209l.217 7.282a29.285 29.285 0 01-2.156-7.066 54.368 54.368 0 01-.842-7.3 64.617 64.617 0 01.03-7.323 44.641 44.641 0 01.989-7.29zm71.647-1.066a44.653 44.653 0 011.205 7.257 64.724 64.724 0 01.248 7.319 54.406 54.406 0 01-.625 7.318 29.274 29.274 0 01-1.945 7.127v-7.286c.023-2.4.028-4.809.089-7.215s.142-4.816.288-7.233.349-4.84.74-7.287z"/><path fill="#350313" d="M135.389 125.312s5.04-62.967 49.9-50.262c0 0 21.4 17.708 20.013 54.431 0 0 1.232-13 2.845-22.59 0 0 4.334-23.265-4-36.208a27.346 27.346 0 00-18.262-11.91s-16.064-12.116-34.55.517a39.125 39.125 0 00-15.762 23.284 104.271 104.271 0 00-2.679 24.351z"/><path stroke-width=".827" stroke-miterlimit="10" stroke="#350313" fill="none" d="M187.817 75.049s8.63 18.056 10.881 27.677 5.831 24.55.994 44.686 5.588 23.025 5.588 23.025"/><path fill="#38101b" d="M153.666 110.709c3.175 0 3.18-4.934 0-4.934s-3.18 4.934 0 4.934zm33.55 0c3.175 0 3.18-4.934 0-4.934s-3.18 4.934 0 4.934zm-24.716-8.945a24.638 24.638 0 01-5.168-1.976c-.81-.4-1.6-.841-2.371-1.3l-1.123-.683q-.509-.317-1.04-.592a22.581 22.581 0 00-4.489-1.79c-.4-.116-.8-.213-1.215-.313-.435-.1-.888-.2-1.331-.316a19.083 19.083 0 01-2.663-.894 19.107 19.107 0 012.714-.724c.453-.086.9-.167 1.358-.229a11.012 11.012 0 011.465-.092 12.246 12.246 0 015.709 1.454c.434.244.864.5 1.272.782s.738.54 1.1.827c.706.555 1.4 1.131 2.069 1.74a24.649 24.649 0 013.713 4.106zm17.025.803a24.643 24.643 0 013.345-4.407 37.055 37.055 0 012.939-2.831c.39-.334.788-.608 1.2-.888a12.245 12.245 0 015.563-1.939 11 11 0 011.467-.034c.464.022.914.065 1.373.111a19.091 19.091 0 012.766.488 19.074 19.074 0 01-2.577 1.118c-.431.152-.873.3-1.3.429-.4.134-.8.267-1.184.416a22.575 22.575 0 00-4.317 2.17q-.505.32-.985.679l-1.06.777a38.899 38.899 0 01-2.25 1.5 24.654 24.654 0 01-4.979 2.413z"/><path fill="#38101b" d="M183.022 108.242a4.394 4.394 0 011.459-2.264 4.118 4.118 0 012.724-.985 4.359 4.359 0 012.683 1.044 7.24 7.24 0 01.921 1.006 7.782 7.782 0 01.6 1.2 9.739 9.739 0 01-1.143-.6c-.377-.167-.722-.367-1.071-.511a5.517 5.517 0 00-2.017-.491 4.717 4.717 0 00-2.008.43 16.054 16.054 0 00-2.148 1.171zm-33.55 0a4.4 4.4 0 011.459-2.264 4.118 4.118 0 012.724-.985 4.358 4.358 0 012.683 1.044 7.24 7.24 0 01.921 1.006 7.784 7.784 0 01.6 1.2 9.733 9.733 0 01-1.143-.6c-.377-.167-.722-.367-1.071-.511a5.517 5.517 0 00-2.017-.491 4.717 4.717 0 00-2.008.43 16.074 16.074 0 00-2.148 1.171z"/><ellipse fill="#c15856" transform="translate(159.269 132.334)" ry="9.045" rx="12.746" cy="9.045" cx="12.746"/><path fill="#d7645d" d="M167.534 149.839a17.371 17.371 0 004.481.586c6.76 0 12.276-3.738 12.7-8.459a17.371 17.371 0 00-4.481-.586c-6.757 0-12.273 3.738-12.7 8.459z"/><path fill="#e59876" d="M178.935 124.919a13.719 13.719 0 01-8.379 4.013c.1.016.2.025.3.033h-.592c.1-.008.2-.016.3-.033a13.677 13.677 0 01-8.272-3.9z"/><path fill="#577fff" d="M141.207 245.919h58.322v46.616h-58.322z"/></g></g></svg>