<svg xmlns="http://www.w3.org/2000/svg" width="330" height="130" viewBox="0 0 330 130">
  <g id="Groupe_3517" data-name="Groupe 3517" transform="translate(16256 -4855)">
    <g id="Groupe_3514" data-name="Groupe 3514" transform="translate(542 42)">
      <rect id="Rectangle_3249" data-name="Rectangle 3249" width="330" height="130" transform="translate(-16798 4813)" fill="#ff3967"/>
      <g id="bed9f23082fb0bf7cb8b19a6b374d249" transform="translate(-16668.289 4841.472)">
        <path id="Tracé_5929" data-name="Tracé 5929" d="M7.781,42.917A12.438,12.438,0,0,0,19.519,53.635c1.709,7.429,8.661,12.3,15.84,10.961a13.739,13.739,0,0,0,7.863-4.75,14.371,14.371,0,0,0,9.345,1.461c8.091-1.583,13.447-9.865,11.966-18.512a16.714,16.714,0,0,0-3.3-7.429,14.533,14.533,0,0,0,3.647-12.423c-1.254-7.551-8.091-12.544-15.156-11.2a11.965,11.965,0,0,0-5.7,2.679A14.973,14.973,0,0,0,32.4,11.861a16.41,16.41,0,0,0-4.786,1.827,14.445,14.445,0,0,0-9.345-1.34C9.718,14.053,4.248,22.578,5.73,31.469a16.127,16.127,0,0,0,2.165,5.846A15.439,15.439,0,0,0,7.781,42.917Z" transform="translate(0)" fill="#a3edfb"/>
        <path id="Tracé_5930" data-name="Tracé 5930" d="M38,63.536H14a2.244,2.244,0,0,1-2-2.415V10.415A2.244,2.244,0,0,1,14,8H38a2.244,2.244,0,0,1,2,2.415V61.121A2.244,2.244,0,0,1,38,63.536Z" fill="#3f0e71"/>
        <path id="Tracé_5931" data-name="Tracé 5931" d="M30.4,12H21.5a1.927,1.927,0,0,1-1.9-1.5L19,8H33l-.6,2.5A1.96,1.96,0,0,1,30.4,12Z" transform="translate(-0.001 -0.479)" fill="#ccc"/>
        <g id="Groupe_3516" data-name="Groupe 3516" transform="translate(24.3 29.536)">
          <circle id="Ellipse_879" data-name="Ellipse 879" cx="18" cy="18" r="18" fill="#f0f5f7"/>
          <path id="Tracé_5932" data-name="Tracé 5932" d="M46.7,24.3A18.018,18.018,0,0,1,21.3,49.7,18.015,18.015,0,1,0,46.7,24.3Z" transform="translate(-17 -20)" fill="#c8ccce"/>
          <g id="Groupe_3515" data-name="Groupe 3515" transform="translate(4 4)">
            <circle id="Ellipse_880" data-name="Ellipse 880" cx="14" cy="14" r="14" fill="#6e00cc"/>
            <path id="Tracé_5933" data-name="Tracé 5933" d="M35,48a.945.945,0,0,1-1-1V29a1,1,0,0,1,2,0V47A.945.945,0,0,1,35,48Zm-6,0a.945.945,0,0,1-1-1V29a1,1,0,0,1,2,0V47A.945.945,0,0,1,29,48Zm12,0a.945.945,0,0,1-1-1V29a1,1,0,0,1,2,0V47A.945.945,0,0,1,41,48Z" transform="translate(-21 -24)" fill="#fff"/>
            <circle id="Ellipse_881" data-name="Ellipse 881" cx="3" cy="3" r="3" transform="translate(11 7)" fill="#376f6f"/>
            <circle id="Ellipse_882" data-name="Ellipse 882" cx="3" cy="3" r="3" transform="translate(17 12)" fill="#376f6f"/>
            <circle id="Ellipse_883" data-name="Ellipse 883" cx="3" cy="3" r="3" transform="translate(5 16)" fill="#376f6f"/>
          </g>
        </g>
      </g>
    </g>
  </g>
</svg>
