<?xml version="1.0" standalone="no"?><svg xmlns="http://www.w3.org/2000/svg" viewBox="0 0 1440 320"><path fill="#0099ff" fill-opacity="1" d="M0,192L10.4,186.7C20.9,181,42,171,63,165.3C83.5,160,104,160,125,181.3C146.1,203,167,245,188,266.7C208.7,288,230,288,250,266.7C271.3,245,292,203,313,192C333.9,181,355,203,376,192C396.5,181,417,139,438,133.3C459.1,128,480,160,501,144C521.7,128,543,64,563,85.3C584.3,107,605,213,626,234.7C647,256,668,192,689,181.3C709.6,171,730,213,751,234.7C772.2,256,793,256,814,234.7C834.8,213,856,171,877,176C897.4,181,918,235,939,229.3C960,224,981,160,1002,138.7C1022.6,117,1043,139,1064,154.7C1085.2,171,1106,181,1127,186.7C1147.8,192,1169,192,1190,181.3C1210.4,171,1231,149,1252,165.3C1273,181,1294,235,1315,245.3C1335.7,256,1357,224,1377,208C1398.3,192,1419,192,1430,192L1440,192L1440,320L1429.6,320C1419.1,320,1398,320,1377,320C1356.5,320,1336,320,1315,320C1293.9,320,1273,320,1252,320C1231.3,320,1210,320,1190,320C1168.7,320,1148,320,1127,320C1106.1,320,1085,320,1064,320C1043.5,320,1023,320,1002,320C980.9,320,960,320,939,320C918.3,320,897,320,877,320C855.7,320,835,320,814,320C793,320,772,320,751,320C730.4,320,710,320,689,320C667.8,320,647,320,626,320C605.2,320,584,320,563,320C542.6,320,522,320,501,320C480,320,459,320,438,320C417.4,320,397,320,376,320C354.8,320,334,320,313,320C292.2,320,271,320,250,320C229.6,320,209,320,188,320C167,320,146,320,125,320C104.3,320,83,320,63,320C41.7,320,21,320,10,320L0,320Z"></path></svg>