<svg xmlns="http://www.w3.org/2000/svg" xmlns:xlink="http://www.w3.org/1999/xlink" width="32" height="32" viewBox="0 0 32 32">
  <defs>
    <clipPath id="clip-path">
      <rect id="Rectangle_190" data-name="Rectangle 190" width="32" height="32" transform="translate(-10703 17740)" fill="#fff"/>
    </clipPath>
  </defs>
  <g id="Groupe_de_masques_40" data-name="Groupe de masques 40" transform="translate(10703 -17740)" clip-path="url(#clip-path)">
    <g id="b580d5abe70cf174c0b5200bda14b4f1" transform="translate(-10705.286 17737.715)">
      <path id="Tracé_712" data-name="Tracé 712" d="M14.991,11.008c-.3-.809-.655-.751-.889-.76s-.439,0-.755,0a1.538,1.538,0,0,0-1.088.458,4.451,4.451,0,0,0-1.529,3.266,7.7,7.7,0,0,0,1.482,4.175c.191.273,2.607,4.517,6.623,6.262s4.038,1.213,4.774,1.174a4.058,4.058,0,0,0,2.778-1.791,3.3,3.3,0,0,0,.305-1.883c-.094-.169-.357-.279-.751-.493s-2.328-1.25-2.691-1.4-.628-.222-.91.166-1.085,1.255-1.328,1.512-.479.281-.873.066a10.964,10.964,0,0,1-3.15-2.094,12.021,12.021,0,0,1-2.127-2.838c-.219-.407,0-.615.207-.8.187-.172.418-.45.628-.675a2.728,2.728,0,0,0,.426-.649.728.728,0,0,0-.007-.7c-.093-.2-.821-2.191-1.125-3Z" fill="#fff" fill-rule="evenodd"/>
      <path id="Tracé_713" data-name="Tracé 713" d="M18.576,4.571a13.4,13.4,0,0,1,9.5,3.9,13.217,13.217,0,0,1,0,18.8,13.4,13.4,0,0,1-9.5,3.9,13.534,13.534,0,0,1-6.493-1.657l-.858-.471-.933.3L5.9,30.739l1.384-4.082.343-1.011-.555-.912a13.215,13.215,0,0,1,2-16.261,13.4,13.4,0,0,1,9.5-3.9m0-2.286A15.649,15.649,0,0,0,2.867,17.874a15.427,15.427,0,0,0,2.254,8.049L2.286,34.286l8.7-2.763a15.736,15.736,0,0,0,23.3-13.649A15.649,15.649,0,0,0,18.576,2.286Z" fill="#fff"/>
    </g>
  </g>
</svg>
