<svg xmlns="http://www.w3.org/2000/svg" width="330" height="130" viewBox="0 0 330 130">
  <g id="Groupe_3507" data-name="Groupe 3507" transform="translate(17494 -4612)">
    <rect id="Rectangle_3249" data-name="Rectangle 3249" width="330" height="130" transform="translate(-17494 4612)" fill="#03ce0b"/>
    <g id="_8e4ac565fe4c6cb01f7554ce865ea94d" data-name="8e4ac565fe4c6cb01f7554ce865ea94d" transform="translate(-17371 4642)">
      <path id="Tracé_5828" data-name="Tracé 5828" d="M53.08,19.06V47.15a8.638,8.638,0,0,1-8.63,8.63H11.63A8.623,8.623,0,0,1,3,47.16V19.06a8.623,8.623,0,0,1,8.63-8.62H44.45A8.623,8.623,0,0,1,53.08,19.06Z" fill="#f9a41a"/>
      <path id="Tracé_5829" data-name="Tracé 5829" d="M57.78,22.83v28.1a8.632,8.632,0,0,1-8.63,8.63H16.34a8.638,8.638,0,0,1-8.63-8.63V22.83a8.621,8.621,0,0,1,8.63-8.61H49.15A8.608,8.608,0,0,1,57.78,22.83Z" fill="#fbe063"/>
      <path id="Tracé_5830" data-name="Tracé 5830" d="M39.52,14.21v6.11a3.261,3.261,0,0,1-3.26,3.26H29.23a3.261,3.261,0,0,1-3.26-3.26V14.21H39.52Z" fill="#495e66"/>
      <path id="Tracé_5831" data-name="Tracé 5831" d="M23.89,50.91H15.65a.5.5,0,0,1,0-1h8.24a.5.5,0,0,1,0,1Zm5.58-5.32H15.65a.5.5,0,0,1,0-1H29.47a.5.5,0,1,1,0,1Z" fill="#f9a41a"/>
      <path id="Tracé_5832" data-name="Tracé 5832" d="M67,37.24V55.97a3.576,3.576,0,0,1-3.58,3.58H44.8a3.576,3.576,0,0,1-3.58-3.58V33.73a3.576,3.576,0,0,1,3.58-3.58H59.9Z" fill="#efefed"/>
      <path id="Tracé_5833" data-name="Tracé 5833" d="M67,37.24H61.32a1.413,1.413,0,0,1-1.42-1.42V30.14Z" fill="#e2e2e0"/>
      <path id="Tracé_5834" data-name="Tracé 5834" d="M50.72,41.45v2.97a1.351,1.351,0,0,1-1.35,1.35H46.4a1.344,1.344,0,0,1-1.35-1.35V41.45A1.351,1.351,0,0,1,46.4,40.1h2.97A1.357,1.357,0,0,1,50.72,41.45Zm0,9.28V53.7a1.351,1.351,0,0,1-1.35,1.35H46.4a1.344,1.344,0,0,1-1.35-1.35V50.73a1.351,1.351,0,0,1,1.35-1.35h2.97A1.37,1.37,0,0,1,50.72,50.73Z" fill="#8f90fb"/>
      <g id="Groupe_3503" data-name="Groupe 3503">
        <path id="Tracé_5835" data-name="Tracé 5835" d="M63.45,41.87H54.36a.5.5,0,0,1,0-1h9.09a.5.5,0,0,1,0,1ZM59.9,45H54.36a.5.5,0,0,1,0-1H59.9a.5.5,0,0,1,0,1Z" fill="#e2e2e0"/>
      </g>
      <g id="Groupe_3504" data-name="Groupe 3504">
        <path id="Tracé_5836" data-name="Tracé 5836" d="M63.45,51.16H54.36a.5.5,0,0,1,0-1h9.09a.5.5,0,0,1,0,1ZM59.9,54.28H54.36a.5.5,0,0,1,0-1H59.9a.5.5,0,0,1,0,1Z" fill="#e2e2e0"/>
      </g>
      <g id="Groupe_3505" data-name="Groupe 3505">
        <path id="Tracé_5837" data-name="Tracé 5837" d="M47.62,53.19a.469.469,0,0,1-.35-.15l-.42-.42a.5.5,0,1,1,.71-.71l.06.06.59-.59a.5.5,0,0,1,.71.71l-.94.94A.48.48,0,0,1,47.62,53.19Z" fill="#fff"/>
      </g>
      <g id="Groupe_3506" data-name="Groupe 3506">
        <path id="Tracé_5838" data-name="Tracé 5838" d="M47.62,43.63a.469.469,0,0,1-.35-.15l-.42-.42a.5.5,0,1,1,.71-.71l.06.06.59-.59a.5.5,0,0,1,.71.71l-.94.94A.465.465,0,0,1,47.62,43.63Z" fill="#fff"/>
      </g>
    </g>
  </g>
</svg>
